<svg width="25" height="24" viewBox="0 0 25 24" fill="none" xmlns="http://www.w3.org/2000/svg">
<path d="M11.4858 11.7201V17.7554C11.4858 18.2636 11.0764 18.6765 10.5646 18.6765H8.99405C8.48581 18.6765 8.07287 18.2636 8.07287 17.7554V17.0283H4.43758V19.5307C4.43758 20.0389 4.02464 20.4518 3.5164 20.4518H1.55405V22.9048C1.55405 22.9759 1.52579 23.0441 1.47548 23.0944C1.42518 23.1447 1.35695 23.173 1.28581 23.173C1.21467 23.173 1.14645 23.1447 1.09614 23.0944C1.04584 23.0441 1.01758 22.9759 1.01758 22.9048V8.75183C1.01758 8.68069 1.04584 8.61247 1.09614 8.56216C1.14645 8.51186 1.21467 8.4836 1.28581 8.4836C1.35695 8.4836 1.42518 8.51186 1.47548 8.56216C1.52579 8.61247 1.55405 8.68069 1.55405 8.75183V11.1836H3.5164C4.02464 11.1836 4.43758 11.5965 4.43758 12.1083V14.5859H8.07287V11.7201H11.4858ZM20.7943 2.42713C20.3894 2.73903 20.031 3.10695 19.7298 3.51983C20.2299 4.09866 20.5299 5.02336 20.5299 6.00207C20.5299 7.60936 19.6977 9.02007 18.7476 9.02007C17.8013 9.02007 16.9652 7.60936 16.9652 6.00242C16.9652 5.62371 17.0118 5.25207 17.0976 4.90548H16.1189C15.8796 4.90548 15.6442 4.98771 15.4546 5.14124L15.2224 5.33077C15.2012 5.55207 15.1906 5.77371 15.1906 6.0056C15.1906 8.86654 16.7835 11.1847 18.7476 11.1847C20.712 11.1847 22.3052 8.86654 22.3052 6.0056C22.3052 4.48795 21.8588 3.13054 21.1511 2.18042C21.0278 2.2561 20.9086 2.33846 20.7943 2.42713Z" fill="#192215"/>
<path d="M17.6514 4.90588C17.5499 5.26239 17.4994 5.63146 17.5014 6.00211C17.5014 7.49506 18.2514 8.48435 18.7476 8.48435C19.2439 8.48435 19.9942 7.49506 19.9942 6.00211C19.9942 5.09153 19.7119 4.38776 19.4154 3.98435C19.2212 4.26924 18.9602 4.50218 18.6551 4.66277C18.35 4.82336 18.0103 4.90672 17.6655 4.90553L17.6514 4.90588ZM14.6584 5.79176C14.4679 5.91106 13.9529 6.54141 12.9834 6.54141H4.48633C4.67198 9.15247 6.18645 11.1847 8.0295 11.1847H17.0224C15.3629 10.1079 14.5624 7.71247 14.6584 5.79176ZM22.2693 3.07694C23.1266 2.51259 23.4375 1.83423 23.548 1.37329C22.8481 1.43753 22.205 1.62 21.6192 1.91647C21.8815 2.27586 22.0998 2.66548 22.2693 3.07694Z" fill="#192215"/>
<path d="M13.9802 5.65196L14.7157 5.05196C14.9705 4.88502 15.345 4.37008 16.1193 4.37008H17.6659C17.9378 4.3697 18.205 4.29953 18.442 4.1663C18.679 4.03306 18.8778 3.84122 19.0195 3.60914C19.4025 2.9907 19.8938 2.44626 20.4697 2.00185C21.2232 1.42337 22.245 0.937728 23.6056 0.826904H8.02993C6.06193 0.826904 4.46875 3.14502 4.46875 6.00561H12.9838C13.3466 6.00506 13.6982 5.88025 13.9802 5.65196ZM10.803 2.45714H10.6788C10.6101 2.45361 10.5454 2.42385 10.498 2.374C10.4507 2.32415 10.4243 2.25802 10.4243 2.18926C10.4243 2.1205 10.4507 2.05436 10.498 2.00451C10.5454 1.95466 10.6101 1.9249 10.6788 1.92137H10.803C10.8717 1.9249 10.9363 1.95466 10.9837 2.00451C11.0311 2.05436 11.0575 2.1205 11.0575 2.18926C11.0575 2.25802 11.0311 2.32415 10.9837 2.374C10.9363 2.42385 10.8717 2.45361 10.803 2.45714ZM11.7326 2.18926C11.7326 2.04137 11.8526 1.92137 12.0009 1.92137H14.6546C14.7233 1.9249 14.788 1.95466 14.8354 2.00451C14.8827 2.05436 14.9091 2.1205 14.9091 2.18926C14.9091 2.25802 14.8827 2.32415 14.8354 2.374C14.788 2.42385 14.7233 2.45361 14.6546 2.45714H12.0005C11.9295 2.45705 11.8614 2.42879 11.8112 2.37858C11.761 2.32836 11.7327 2.26028 11.7326 2.18926Z" fill="#192215"/>
</svg>
