<svg width="22" height="20" viewBox="0 0 22 20" fill="none" xmlns="http://www.w3.org/2000/svg">
<path d="M7.06652 13.437V16.8603H2.94727V17.6191H11.9446V16.8603H7.82541V12.5298L7.27177 13.2421C7.21308 13.3166 7.144 13.3823 7.06663 13.4371L7.06652 13.437ZM7.8253 6.40731V0.739258H7.06652V6.7449C7.13943 6.71244 7.21349 6.67987 7.28972 6.64689C7.46551 6.56104 7.64414 6.48114 7.8253 6.40731ZM21.1554 2.40266C21.1171 2.40004 21.0791 2.41086 21.0478 2.43325L19.371 2.27903L18.8792 1.75267C18.8792 1.75267 18.4097 1.73463 17.7566 1.77507C17.5909 1.78534 17.3886 1.87029 17.1789 1.99101C16.7061 1.80411 16.2367 2.01963 15.9812 2.16909C15.9241 2.20248 15.8878 2.24905 15.8667 2.30371C15.7808 2.52359 15.9458 2.87923 16.0486 3.08157C16.1351 3.25156 16.5258 3.37716 16.746 3.32012C16.7222 3.6238 16.0175 3.47237 15.8976 3.23673C15.8701 3.18236 15.844 3.12731 15.8193 3.07162V7.96272C15.8756 8.01821 15.9309 8.06499 15.9777 8.09703L16.0568 9.15804C16.0622 9.23074 16.0829 9.30147 16.1175 9.36564C16.1521 9.4298 16.1998 9.48595 16.2576 9.53042C16.3153 9.57489 16.3818 9.60669 16.4527 9.62373C16.5236 9.64077 16.5972 9.64268 16.6689 9.62932L18.4579 9.29577L18.6117 9.82908C18.6487 9.95649 18.7331 10.0649 18.8476 10.1319C18.9621 10.199 19.0979 10.2196 19.2271 10.1896C19.3563 10.1596 19.4692 10.0811 19.5423 9.97044C19.6155 9.85976 19.6434 9.72525 19.6204 9.59458L19.4113 8.4199C19.3888 8.29333 19.3201 8.17963 19.2185 8.10087C19.1169 8.0221 18.9897 7.98388 18.8615 7.99363L18.858 7.99394L17.3762 8.11674L17.405 7.1581C17.5736 7.28318 17.7078 7.33494 17.6806 7.22904C17.6388 7.06725 17.7756 6.44952 17.8856 6.00282C17.9025 5.98664 17.9168 5.97108 17.9258 5.95697C18.1233 5.64604 18.6806 4.78001 18.7234 4.70804C18.766 4.63616 19.4805 4.46949 19.7275 4.51233C19.9745 4.55516 20.757 4.0342 20.757 4.0342C20.757 4.0342 20.9564 3.55545 20.8781 3.59984C20.7999 3.64423 19.4111 3.92602 19.3117 3.91887C19.2121 3.91161 19.2437 3.87064 19.315 3.75075C19.3861 3.63085 20.2349 3.47943 20.4482 3.46978C20.6615 3.46014 21.1755 2.92196 21.1755 2.92196L21.2114 2.72106C21.2657 2.69669 21.3055 2.64473 21.3099 2.58136C21.3115 2.55947 21.3088 2.53749 21.3019 2.51666C21.295 2.49584 21.2841 2.47658 21.2697 2.45998C21.2554 2.44338 21.2379 2.42978 21.2183 2.41994C21.1986 2.41011 21.1773 2.40423 21.1554 2.40266ZM18.7966 2.78796C18.7718 2.78663 18.7474 2.78036 18.725 2.76952C18.7027 2.75868 18.6827 2.74348 18.6662 2.72482C18.6497 2.70616 18.6372 2.68441 18.6292 2.66084C18.6213 2.63727 18.6181 2.61235 18.6199 2.58753C18.6217 2.56272 18.6284 2.53852 18.6397 2.51633C18.6509 2.49414 18.6665 2.47442 18.6854 2.45832C18.7044 2.44222 18.7264 2.43006 18.7501 2.42255C18.7738 2.41504 18.7988 2.41233 18.8236 2.41458C18.8724 2.41902 18.9176 2.44246 18.9493 2.47984C18.9811 2.51723 18.9969 2.56558 18.9933 2.6145C18.9898 2.66342 18.9672 2.709 18.9304 2.74144C18.8936 2.77388 18.8456 2.79058 18.7966 2.78796Z" fill="#192215"/>
<path d="M9.23947 18.3014V19.2605H20.612V18.3014H15.4053V0.739258H14.4461V3.80737L13.6735 4.31423C13.6164 4.29183 13.555 4.28244 13.4939 4.28675C13.4327 4.29105 13.3732 4.30895 13.3198 4.33912C11.747 5.23367 10.2205 5.84683 8.87356 6.38781C8.72701 6.44672 8.58264 6.5049 8.4392 6.56278C8.1068 6.67863 7.76962 6.81574 7.44291 6.9766C6.57316 7.35205 5.79519 7.74171 5.15682 8.21994C4.09105 8.51625 3.00992 9.4668 2.22065 10.1345C1.07656 11.1022 0 12.3214 0 12.3214C0 12.3214 2.48087 11.6677 3.0708 11.2709C3.53897 10.9559 4.73802 10.0925 5.39029 9.43143C5.55862 9.80066 6.02948 9.96868 6.22716 10.0244L5.72653 12.2201C5.71873 12.2542 5.7138 12.2889 5.7118 12.3238L3.9808 13.1575C3.92479 13.1845 3.87293 13.2197 3.8274 13.2623L1.99538 14.964C1.90074 15.0519 1.83578 15.167 1.8095 15.2934C1.78321 15.4198 1.79691 15.5513 1.84869 15.6695C1.90047 15.7878 1.98776 15.8871 2.09847 15.9535C2.20918 16.02 2.33782 16.0503 2.46655 16.0404C2.60687 16.0298 2.7394 15.9717 2.84232 15.8758L4.60558 14.2381L6.76462 13.1982C6.85122 13.1565 6.92697 13.0953 6.98595 13.0194L9.24559 10.1121C9.3191 10.0176 9.36373 9.90387 9.37409 9.78458C10.3995 9.56823 10.9204 10.1735 13.3723 9.39462C13.7784 9.26559 14.1336 9.11676 14.4462 8.95725V9.40457C12.8441 10.3329 10.9229 10.2084 10.9013 10.2069L10.8938 10.3103C10.8986 10.3107 10.994 10.317 11.1573 10.317C11.7389 10.317 13.1807 10.2367 14.4461 9.52436V9.82628C12.7065 10.7055 11.5481 10.5828 11.5358 10.5814L11.5236 10.6844C11.5351 10.6859 11.6052 10.6934 11.7279 10.6934C12.1328 10.6934 13.1099 10.6101 14.4462 9.94296V13.186L8.9862 11.0375L8.49687 11.667L14.4462 14.0082V18.3014H9.23947ZM7.40661 10.4501L7.4118 10.427L7.42508 10.4263L7.40661 10.4501ZM19.7347 7.48999C19.4984 7.29604 19.1937 7.33027 19.1809 7.33182C19.1664 7.33356 19.1525 7.33832 19.14 7.34579C19.1275 7.35327 19.1168 7.3633 19.1084 7.37522C19.1001 7.38714 19.0943 7.40069 19.0916 7.41498C19.0888 7.42927 19.0891 7.44398 19.0924 7.45815C19.1041 7.50887 19.1525 7.54371 19.2054 7.5378C19.2076 7.53749 19.4378 7.51353 19.6047 7.65147C19.7114 7.73984 19.7728 7.87892 19.787 8.06488C19.7879 8.07858 19.7915 8.09196 19.7976 8.10425C19.8037 8.11655 19.8122 8.12751 19.8225 8.1365C19.8329 8.14549 19.8449 8.15234 19.858 8.15665C19.871 8.16095 19.8847 8.16263 19.8984 8.16158C19.9121 8.16053 19.9254 8.15677 19.9377 8.15053C19.9499 8.14429 19.9608 8.13568 19.9696 8.12521C19.9785 8.11474 19.9852 8.10262 19.9893 8.08954C19.9935 8.07646 19.995 8.06268 19.9938 8.04901C19.975 7.80362 19.8879 7.61559 19.7347 7.48999Z" fill="#192215"/>
</svg>
