<svg width="25" height="24" viewBox="0 0 25 24" fill="none" xmlns="http://www.w3.org/2000/svg">
<g clip-path="url(#clip0_1396_34125)">
<path d="M23.1036 18.3013L23.1576 18.0192C23.1701 17.9539 23.169 17.8867 23.1545 17.8218C23.14 17.7569 23.1123 17.6957 23.0731 17.6419C23.0339 17.5882 22.9841 17.5431 22.9268 17.5094C22.8695 17.4757 22.8058 17.4541 22.7398 17.446L19.7744 17.0818L18.6248 15.5709C18.6706 15.4913 18.8704 15.1548 18.8704 15.1548C19.5742 15.7783 20.4411 16.0969 21.3249 16.0969C22.183 16.0969 23.057 15.7964 23.8124 15.1828C23.8645 15.1404 23.9073 15.0878 23.938 15.0281C23.9687 14.9684 23.9867 14.903 23.9909 14.836C23.995 14.7689 23.9852 14.7018 23.9621 14.6388C23.939 14.5757 23.9031 14.5182 23.8566 14.4697L22.2773 12.824C22.4376 12.1469 22.1887 11.4349 21.6503 11.0037L22.0852 9.75805C22.1163 9.66885 22.1207 9.57253 22.0979 9.48087C22.075 9.38921 22.026 9.30619 21.9567 9.24198C21.8874 9.17777 21.8009 9.13516 21.7078 9.11937C21.6147 9.10357 21.519 9.11527 21.4324 9.15305L20.6917 9.47659L20.8672 8.26798C20.8821 8.16549 20.8638 8.06093 20.815 7.96957C20.7662 7.87821 20.6895 7.80484 20.5961 7.76018C20.5026 7.71552 20.3974 7.7019 20.2956 7.72131C20.1939 7.74073 20.101 7.79216 20.0306 7.8681L16.2176 11.9812L2.62156 7.02771C1.56472 6.64116 1.01944 5.46687 1.406 4.41008C1.59326 3.89814 1.96871 3.48974 2.46311 3.26018C2.95757 3.03056 3.51175 3.00726 4.02369 3.19452C4.27553 3.28672 4.55435 3.15713 4.64649 2.90534C4.69073 2.78441 4.68512 2.65085 4.63089 2.53405C4.57666 2.41725 4.47825 2.32678 4.35732 2.28254C3.60185 2.00615 2.78385 2.04062 2.05416 2.37943C1.32443 2.71819 0.770354 3.32093 0.494019 4.07645C-0.0765092 5.63622 0.728273 7.36922 2.28799 7.9397L2.97548 8.19116C2.96512 8.21781 2.986 8.16391 2.97548 8.19116C2.76745 8.55479 2.46753 9.19977 2.32046 9.88596C2.0909 10.9574 2.12198 12.5244 3.49562 14.0364L2.02163 17.6451C1.97858 17.7506 1.97394 17.8678 2.00852 17.9762L3.15265 21.5642C3.18714 21.6724 3.25841 21.765 3.35409 21.826C3.44977 21.8871 3.56381 21.9127 3.67641 21.8984L4.3666 21.8107C4.43717 21.8018 4.50492 21.7775 4.56505 21.7394C4.62518 21.7014 4.67621 21.6507 4.71455 21.5907C4.75288 21.5308 4.77757 21.4632 4.78687 21.3926C4.79617 21.3221 4.78985 21.2504 4.76837 21.1826L3.9536 18.6071L7.03996 15.8386L9.93894 17.4981C9.93301 17.4951 9.94472 17.5015 9.93894 17.4981C11.1378 18.1242 12.4023 18.4647 13.596 18.4647C14.0122 18.4647 14.4159 18.4252 14.804 18.3485L17.0951 20.9789C17.1762 21.072 17.2897 21.1308 17.4126 21.1431L21.2756 21.5322C21.3963 21.5444 21.5172 21.5109 21.6145 21.4384C21.7117 21.3658 21.7783 21.2595 21.8011 21.1403L21.8551 20.8582C21.8676 20.7929 21.8665 20.7257 21.852 20.6608C21.8375 20.5959 21.8098 20.5347 21.7706 20.481C21.7314 20.4272 21.6816 20.3821 21.6243 20.3484C21.567 20.3147 21.5033 20.2931 21.4373 20.2851L18.5307 19.9281L17.2194 17.2297C17.2948 17.169 17.3687 17.1064 17.4409 17.0418L18.3973 18.1398C18.4784 18.2329 18.592 18.2917 18.7148 18.304L22.5779 18.6932C22.6987 18.7054 22.8196 18.6719 22.9169 18.5994C23.0142 18.5268 23.0808 18.4205 23.1036 18.3013ZM23.5222 19.2903C23.0875 19.2903 22.7338 19.6439 22.7338 20.0786C22.7338 20.5133 23.0875 20.8669 23.5222 20.8669C23.9568 20.8669 24.3105 20.5133 24.3105 20.0786C24.3105 19.6439 23.9569 19.2903 23.5222 19.2903Z" fill="#192215"/>
</g>
<defs>
<clipPath id="clip0_1396_34125">
<rect width="24" height="24" fill="white" transform="translate(0.310547)"/>
</clipPath>
</defs>
</svg>
