<svg width="20" height="20" viewBox="0 0 20 20" fill="none" xmlns="http://www.w3.org/2000/svg">
<path d="M19.9552 16.9395C19.5195 16.9395 19.1038 16.8543 18.7306 16.7091C18.35 16.5588 17.9167 16.4712 17.466 16.4712C17.0177 16.4712 16.5845 16.5613 16.2014 16.7091C15.4156 17.0161 14.543 17.0161 13.7572 16.7091C13.3691 16.5588 12.9383 16.4712 12.4901 16.4712C12.0418 16.4712 11.6086 16.5613 11.2255 16.7091C10.8548 16.8543 10.4341 16.9395 10.0009 16.9395C9.56515 16.9395 9.14944 16.8543 8.77381 16.7091C8.39066 16.5588 7.95743 16.4712 7.51418 16.4712C7.06092 16.4712 6.63019 16.5613 6.24704 16.7091C5.87642 16.8543 5.45571 16.9395 5.01997 16.9395C4.58925 16.9395 4.16603 16.8543 3.7954 16.7091C3.40975 16.5588 2.97903 16.4712 2.53077 16.4712C2.08251 16.4712 1.65179 16.5613 1.27114 16.7091C0.893004 16.8543 0.477302 16.9395 0.0390625 16.9395V15.3593C0.474798 15.3593 0.8905 15.2742 1.27114 15.1339C1.65179 14.9812 2.08251 14.891 2.53077 14.891C2.97903 14.891 3.40975 14.9812 3.7954 15.1339C4.16603 15.2742 4.58674 15.3593 5.01997 15.3593C5.45571 15.3593 5.87642 15.2742 6.24704 15.1339C6.63019 14.9812 7.06092 14.891 7.51418 14.891C7.95743 14.891 8.39066 14.9812 8.77381 15.1339C9.14944 15.2742 9.56515 15.3593 10.0009 15.3593C10.4341 15.3593 10.8548 15.2742 11.2255 15.1339C11.6086 14.9812 12.0418 14.891 12.4901 14.891C12.9383 14.891 13.3691 14.9812 13.7572 15.1339C14.1279 15.2742 14.5436 15.3593 14.9793 15.3593C15.415 15.3593 15.8332 15.2742 16.2014 15.1339C17.0134 14.8102 17.9186 14.8102 18.7306 15.1339C19.1012 15.2742 19.5195 15.3593 19.9552 15.3593V16.9395ZM17.0728 12.0763C18.3825 12.0763 19.4418 11.0095 19.4418 9.70225C19.4418 8.39254 18.38 7.33325 17.0728 7.33325C15.7631 7.33325 14.7038 8.39254 14.7038 9.70225C14.7038 11.0095 15.668 12.0763 17.0728 12.0763Z" fill="#192215"/>
<path d="M2.91602 14.2221L16.2485 14.2196L11.9413 6.58174L16.534 5.74532C17.2076 5.6151 17.6985 5.08671 17.6985 4.40556C17.6985 3.6593 17.0899 3.06079 16.3462 3.06079C16.2936 3.06079 16.241 3.06079 16.1909 3.0658L9.09395 4.35798C8.5906 4.47067 7.93449 5.1994 8.31012 6.10092C8.33016 6.146 8.35019 6.19108 8.37023 6.24116L10.2259 9.58931L2.91602 14.2221Z" fill="#192215"/>
</svg>
