<svg width="20" height="20" viewBox="0 0 20 20" fill="none" xmlns="http://www.w3.org/2000/svg">
<path d="M18.5196 6.29387L10.1862 2.1272C10.1284 2.0983 10.0646 2.08325 9.9999 2.08325C9.93521 2.08325 9.87141 2.0983 9.81354 2.1272L1.48021 6.29387C1.41098 6.32851 1.35278 6.38174 1.31212 6.44761C1.27145 6.51348 1.24994 6.58937 1.25 6.66678V8.33345C1.25015 8.40453 1.2684 8.4744 1.30302 8.53647C1.33765 8.59854 1.38752 8.65077 1.44792 8.68824C1.50856 8.7248 1.5774 8.74559 1.64814 8.74872C1.71888 8.75184 1.78928 8.73721 1.85292 8.70616L10 4.6322L18.1469 8.70637C18.2104 8.73823 18.2811 8.75329 18.3521 8.75013C18.4231 8.74697 18.4921 8.72568 18.5526 8.6883C18.613 8.65092 18.6629 8.59869 18.6975 8.53657C18.732 8.47446 18.7501 8.40453 18.75 8.33345V6.66678C18.75 6.58935 18.7285 6.51344 18.6878 6.44757C18.6471 6.3817 18.5888 6.32848 18.5196 6.29387Z" fill="#192215"/>
<path d="M2.5 9.31438V17.5C2.49997 17.5547 2.51073 17.6089 2.53166 17.6595C2.55259 17.7101 2.58328 17.756 2.62198 17.7947C2.66067 17.8334 2.70662 17.8641 2.75718 17.885C2.80775 17.9059 2.86194 17.9167 2.91667 17.9167H17.0833C17.1381 17.9167 17.1923 17.9059 17.2428 17.885C17.2934 17.8641 17.3393 17.8334 17.378 17.7947C17.4167 17.756 17.4474 17.7101 17.4683 17.6595C17.4893 17.6089 17.5 17.5547 17.5 17.5V9.31417L10 5.56396L2.5 9.31438ZM8.43458 9.03271C8.89812 8.95146 9.36 9.39167 9.47417 10.0369V10.0377C9.58771 10.6831 9.30979 11.2544 8.84146 11.3373C8.8041 11.3438 8.76625 11.3471 8.72833 11.3471C8.29979 11.3471 7.90562 10.9263 7.80146 10.3323C7.6875 9.68709 7.96521 9.11563 8.43458 9.03271ZM7.38083 12.3923C7.35704 12.5175 7.30244 12.6349 7.22195 12.7337C7.14145 12.8326 7.03761 12.9099 6.91979 12.9585C6.84787 12.9844 6.77204 12.9976 6.69562 12.9977C6.30812 12.9977 5.90937 12.6648 5.72187 12.1498C5.49729 11.5329 5.67229 10.9227 6.11979 10.759C6.24133 10.7211 6.37035 10.7138 6.49537 10.7378C6.6204 10.7618 6.73756 10.8163 6.83646 10.8965C7.05542 11.0721 7.22197 11.3044 7.31796 11.5682C7.41395 11.832 7.4357 12.117 7.38083 12.3923ZM12.6823 11.5679C12.7742 11.3022 12.9414 11.0689 13.1635 10.8965C13.2624 10.8163 13.3796 10.7618 13.5046 10.7378C13.6297 10.7138 13.7587 10.7211 13.8802 10.759C14.3277 10.9225 14.5027 11.5329 14.2781 12.1498C14.0906 12.665 13.6919 12.9977 13.3044 12.9977C13.2281 12.9976 13.1524 12.9844 13.0806 12.9585C12.9627 12.91 12.8588 12.8327 12.7782 12.7339C12.6976 12.635 12.643 12.5176 12.6192 12.3923C12.5598 12.1172 12.5817 11.8308 12.6823 11.5679ZM10 15.8425C8.46458 15.8425 7.54792 15.2852 7.54792 14.3517C7.54792 13.3663 8.61896 12.2204 10 12.2204C11.381 12.2204 12.4521 13.3663 12.4521 14.3517C12.4521 15.285 11.5354 15.8425 10 15.8425ZM10.5256 10.0377V10.0369C10.6396 9.39251 11.0944 8.9498 11.565 9.03271C12.0346 9.11584 12.3125 9.68688 12.1983 10.3331C12.0942 10.9265 11.6996 11.3473 11.2721 11.3473C11.2342 11.3473 11.1965 11.344 11.1592 11.3375C10.6902 11.2544 10.4121 10.6831 10.5256 10.0377Z" fill="#192215"/>
</svg>
