<svg width="20" height="20" viewBox="0 0 20 20" fill="none" xmlns="http://www.w3.org/2000/svg">
<g clip-path="url(#clip0_1396_34101)">
<path d="M19.668 19.082H12.6367V16.1311C12.4424 16.1593 12.2451 16.1593 12.0508 16.1311V19.082H5.89844V14.6719C5.70368 14.6926 5.50726 14.6926 5.3125 14.6719V19.082H0.332031C0.170195 19.082 0.0390625 19.2131 0.0390625 19.3749C0.0390625 19.5368 0.170195 19.6679 0.332031 19.6679H19.668C19.8298 19.6679 19.9609 19.5368 19.9609 19.3749C19.9609 19.2131 19.8298 19.082 19.668 19.082Z" fill="#192215"/>
<path d="M10.3786 13.1369C10.3236 13.0819 10.2928 13.0074 10.2928 12.9297C10.2928 12.852 10.3236 12.7775 10.3786 12.7225C10.4335 12.6676 10.5081 12.6367 10.5858 12.6367C10.6635 12.6367 10.738 12.6676 10.7929 12.7225L12.0506 13.9802V11.8792L10.9645 10.7931C10.9095 10.7382 10.8787 10.6637 10.8787 10.586C10.8787 10.5083 10.9095 10.4337 10.9645 10.3788C11.0194 10.3238 11.094 10.293 11.1717 10.293C11.2494 10.293 11.3239 10.3238 11.3788 10.3788L12.0505 11.0505V8.53516C12.0505 8.37332 12.1817 8.24219 12.3435 8.24219C12.5054 8.24219 12.6365 8.37332 12.6365 8.53516V9.87863L13.3082 9.20691C13.3631 9.15197 13.4377 9.1211 13.5154 9.1211C13.5931 9.1211 13.6676 9.15197 13.7225 9.20691C13.7775 9.26186 13.8084 9.33638 13.8084 9.41408C13.8084 9.49179 13.7775 9.56631 13.7225 9.62125L12.6366 10.7073V12.8083L14.4802 10.9647C14.5074 10.9375 14.5397 10.9159 14.5752 10.9012C14.6108 10.8865 14.6488 10.8789 14.6873 10.8789C14.7258 10.8789 14.7639 10.8865 14.7994 10.9012C14.835 10.9159 14.8673 10.9375 14.8945 10.9647C14.9217 10.9919 14.9433 11.0242 14.958 11.0597C14.9727 11.0953 14.9803 11.1334 14.9803 11.1719C14.9803 11.2103 14.9727 11.2484 14.958 11.284C14.9433 11.3195 14.9217 11.3518 14.8945 11.379L12.6366 13.637V16.1311C13.0146 16.0771 13.37 15.9184 13.6625 15.6729C13.955 15.4274 14.173 15.105 14.2918 14.7421C14.346 14.5775 14.5301 14.4962 14.6876 14.5652C15.6964 15.0063 16.8343 14.2095 16.7311 13.0814C16.7254 13.0186 16.7401 12.9556 16.773 12.9017C16.806 12.8479 16.8554 12.8062 16.914 12.7827C18.5644 12.1218 18.6505 9.81348 17.0479 9.03375C16.9824 9.0019 16.9311 8.94679 16.904 8.87917C16.877 8.81156 16.8761 8.73629 16.9015 8.66805C16.9873 8.43813 17.0312 8.19468 17.0311 7.94926C17.0311 6.55574 15.6618 5.56426 14.3398 6.00125C14.2691 6.02468 14.192 6.02023 14.1244 5.98879C14.0568 5.95735 14.0037 5.9013 13.976 5.83207C13.7068 5.16047 13.0661 4.72656 12.3436 4.72656C11.6211 4.72656 10.9804 5.16047 10.7112 5.83203C10.6835 5.90124 10.6304 5.95726 10.5628 5.9887C10.4952 6.02013 10.4182 6.02461 10.3474 6.00121C9.94848 5.86934 9.5082 5.86289 9.09578 5.99172C9.49852 7.72195 9.70691 9.32246 9.70691 10.243C9.70691 11.7886 9.13547 13.1734 8.23828 14.0969C8.64129 14.6395 9.37168 14.8398 9.99965 14.5652C10.1577 14.4962 10.3413 14.5778 10.3954 14.7421C10.5142 15.105 10.7322 15.4274 11.0247 15.6729C11.3172 15.9184 11.6726 16.0771 12.0507 16.1311V14.8089L10.3786 13.1369Z" fill="#192215"/>
<path d="M3.66008 9.63914C3.6007 9.5893 3.56351 9.51796 3.55663 9.44075C3.54975 9.36353 3.57375 9.28674 3.62338 9.22719C3.67301 9.16764 3.74421 9.13019 3.8214 9.12303C3.89859 9.11588 3.97547 9.13961 4.0352 9.18902L5.3125 10.2534V7.79348L4.3632 7.00242C4.30383 6.95258 4.26663 6.88124 4.25975 6.80403C4.25287 6.72682 4.27688 6.65002 4.3265 6.59047C4.37613 6.53092 4.44734 6.49347 4.52453 6.48631C4.60172 6.47916 4.67859 6.50289 4.73832 6.5523L5.3125 7.03074V5.89844C5.3125 5.7366 5.44363 5.60547 5.60547 5.60547C5.7673 5.60547 5.89844 5.7366 5.89844 5.89844V8.78856L6.47258 8.31008C6.53231 8.26066 6.60918 8.23693 6.68637 8.24409C6.76356 8.25124 6.83477 8.28869 6.88439 8.34825C6.93402 8.4078 6.95803 8.48459 6.95115 8.5618C6.94427 8.63902 6.90707 8.71035 6.8477 8.7602L5.89844 9.55129V12.0112L7.1757 10.9468C7.23543 10.8974 7.31231 10.8737 7.3895 10.8808C7.46668 10.888 7.53789 10.9254 7.58752 10.985C7.63715 11.0445 7.66115 11.1213 7.65427 11.1985C7.64739 11.2757 7.61019 11.3471 7.55082 11.3969L5.89844 12.7739V14.672C7.70039 14.4831 9.12109 12.5689 9.12109 10.243C9.12109 9.06945 8.73676 6.56348 8.01871 4.24656C7.25906 1.79539 6.35691 0.332031 5.60547 0.332031C4.85402 0.332031 3.95188 1.79539 3.19223 4.24656C2.47621 6.55695 2.08984 9.06043 2.08984 10.243C2.08984 12.5689 3.51055 14.4831 5.3125 14.672V11.0161L3.66008 9.63914Z" fill="#192215"/>
</g>
<defs>
<clipPath id="clip0_1396_34101">
<rect width="20" height="20" fill="white"/>
</clipPath>
</defs>
</svg>
