<svg width="20" height="20" viewBox="0 0 20 20" fill="none" xmlns="http://www.w3.org/2000/svg">
<path d="M8.33464 5.25008C7.16797 3.33342 5.83464 1.66675 5.83464 1.66675C5.83464 1.66675 1.66797 6.83342 1.66797 9.16675C1.66797 11.1667 3.08464 12.9167 5.0013 13.2501V12.6667C5.0013 10.6667 6.66797 7.66675 8.33464 5.25008ZM12.5013 2.50008C12.5013 2.50008 6.66797 9.58342 6.66797 12.6667C6.66797 15.7501 9.2513 18.3334 12.5013 18.3334C15.7513 18.3334 18.3346 15.8334 18.3346 12.6667C18.3346 9.50008 12.5013 2.50008 12.5013 2.50008ZM16.5846 13.5834C16.5846 13.8334 16.418 14.0834 16.3346 14.3334C16.168 14.5001 16.0846 14.7501 15.918 14.9167C15.7513 15.0834 15.5846 15.2501 15.418 15.3334C15.0846 15.5834 14.668 15.6667 14.418 15.7501C14.0846 15.8334 13.8346 15.7501 13.668 15.7501C13.5013 15.7501 13.418 15.6667 13.418 15.6667L14.0013 15.0834C16.0013 13.4167 15.668 10.7501 15.668 10.7501C15.668 10.7501 15.7513 10.8334 15.918 10.9167C16.0846 11.0834 16.2513 11.2501 16.418 11.5834C16.5846 11.9167 16.7513 12.3334 16.7513 12.7501C16.668 13.0834 16.668 13.3334 16.5846 13.5834Z" fill="#192215"/>
</svg>
