<svg preserveAspectRatio="none" width="100%" height="100%" overflow="visible" style="display: block;" viewBox="0 0 20 20" fill="none" xmlns="http://www.w3.org/2000/svg">
<g id="vuesax/bold/location">
<path id="Vector" fill-rule="evenodd" clip-rule="evenodd" d="M10.0009 1.45833C10.0009 1.45833 10.0009 1.45833 9.99256 1.45833C7.05089 1.45833 3.68423 3.18333 2.80923 7.03333C1.83423 11.3333 4.46756 14.975 6.85089 17.2667C7.73423 18.1167 8.86756 18.5417 10.0009 18.5417C11.1342 18.5417 12.2676 18.1167 13.1426 17.2667C15.5259 14.975 18.1592 11.3417 17.1842 7.04167C16.3092 3.19167 12.9509 1.45833 10.0009 1.45833ZM7.37589 8.59167C7.37589 7.14167 8.55089 5.96667 10.0009 5.96667C11.4509 5.96667 12.6259 7.14167 12.6259 8.59167C12.6259 10.0417 11.4509 11.2167 10.0009 11.2167C8.55089 11.2167 7.37589 10.0417 7.37589 8.59167Z" fill="var(--fill-0, #8FB366)"/>
<g id="Vector_2" opacity="0.01">
</g>
<g id="Vector_3" opacity="0.01">
</g>
</g>
</svg>
