<svg preserveAspectRatio="none" width="100%" height="100%" overflow="visible" style="display: block;" viewBox="0 0 14 14" fill="none" xmlns="http://www.w3.org/2000/svg">
<g id="Group 5">
<g id="Rectangle">
</g>
<path id="Shape" d="M13.1062 5.53807C13.0572 5.36163 12.8855 5.2356 12.7138 5.18519L9.05992 4.63066L7.41689 1.15226C7.34332 0.975823 7.14714 0.875 6.97548 0.875C6.77929 0.875 6.60763 0.975823 6.53406 1.15226L4.91555 4.60545L1.28616 5.18519C1.1145 5.21039 0.94284 5.33642 0.893795 5.53807C0.844749 5.71451 0.893795 5.91615 1.01641 6.04218L3.64036 8.71399L3.00277 12.4949C2.97824 12.6965 3.05181 12.8729 3.19895 12.999C3.34609 13.0998 3.54227 13.125 3.71393 13.0242L6.95095 11.2598L10.2125 13.0746C10.2861 13.125 10.3596 13.125 10.4577 13.125C10.5558 13.125 10.6539 13.0998 10.752 13.0242C10.8991 12.9234 10.9727 12.7217 10.9482 12.5201L10.3106 8.7392L12.9836 6.04218C13.1062 5.91615 13.1553 5.71451 13.1062 5.53807Z" fill="var(--fill-0, #FFDD57)"/>
</g>
</svg>
