<svg preserveAspectRatio="none" width="100%" height="100%" overflow="visible" style="display: block;" viewBox="0 0 13 19" fill="none" xmlns="http://www.w3.org/2000/svg">
<g id="Group">
<path id="Vector" fill-rule="evenodd" clip-rule="evenodd" d="M9.62718 4.73275C10.6406 4.73275 11.4945 5.63158 11.7543 6.85681H9.18327C8.8589 6.36634 8.44769 5.96994 7.97921 5.70513C8.38362 5.10849 8.97202 4.73275 9.62718 4.73275ZM0.621593 5.40201C0.173897 5.66048 -0.142978 6.17025 0.0655769 6.53142L0.694444 7.6206C0.730811 7.68361 0.805772 7.71298 0.883077 7.66833L11.4767 1.55212C11.5541 1.50744 11.566 1.42787 11.5296 1.3649L10.9008 0.275717C10.6904 -0.088697 10.0924 -0.0659235 9.64468 0.192553L6.90069 1.77681C6.79398 1.57814 6.65999 1.28048 6.53683 1.10455C6.34999 0.810327 5.96148 0.71685 5.65644 0.880678L3.22898 2.28193C2.90788 2.46732 2.79827 2.87931 2.98355 3.20017L3.34651 3.82884L0.621593 5.40201ZM3.88648 3.51705L3.52308 2.88763C3.51034 2.8656 3.51952 2.83412 3.54144 2.82142L5.95179 1.42994C5.96944 1.42048 6.00112 1.42072 6.01202 1.44025L6.36027 2.08876L3.88648 3.51705ZM2.4562 7.48181H12.2655L11.3098 17.8878C11.2646 18.3776 10.8485 18.75 10.3461 18.75H3.2253C2.72284 18.75 2.30671 18.3777 2.26167 17.8878L1.36382 8.11248L2.4562 7.48181ZM10.1573 9.72345H9.07319L8.53976 15.5313H9.62386L10.1573 9.72345ZM7.33296 9.72345H6.25343L6.23878 15.5313H7.31831L7.33296 9.72345ZM3.2205 9.72345L3.75394 15.5313H4.83804L4.3046 9.72345H3.2205ZM6.60827 5.96197C5.91843 5.96197 5.28862 6.29998 4.80882 6.85681H8.40773C7.92792 6.29998 7.29812 5.96197 6.60827 5.96197Z" fill="var(--fill-0, #8D8D8D)"/>
</g>
</svg>
