<svg preserveAspectRatio="none" width="100%" height="100%" overflow="visible" style="display: block;" viewBox="0 0 18 18" fill="none" xmlns="http://www.w3.org/2000/svg">
<g id="vuesax/bold/gps">
<path id="Vector" d="M16.5 8.4375H14.97C14.7 5.58 12.42 3.2925 9.5625 3.03V1.5C9.5625 1.1925 9.3075 0.9375 9 0.9375C8.6925 0.9375 8.4375 1.1925 8.4375 1.5V3.03C5.58 3.3 3.2925 5.58 3.03 8.4375H1.5C1.1925 8.4375 0.9375 8.6925 0.9375 9C0.9375 9.3075 1.1925 9.5625 1.5 9.5625H3.03C3.3 12.42 5.58 14.7075 8.4375 14.97V16.5C8.4375 16.8075 8.6925 17.0625 9 17.0625C9.3075 17.0625 9.5625 16.8075 9.5625 16.5V14.97C12.42 14.7 14.7075 12.42 14.97 9.5625H16.5C16.8075 9.5625 17.0625 9.3075 17.0625 9C17.0625 8.6925 16.8075 8.4375 16.5 8.4375ZM9 11.34C7.71 11.34 6.66 10.29 6.66 9C6.66 7.71 7.71 6.66 9 6.66C10.29 6.66 11.34 7.71 11.34 9C11.34 10.29 10.29 11.34 9 11.34Z" fill="var(--fill-0, #3A6B22)"/>
<g id="Vector_2" opacity="0">
</g>
<g id="Vector_3" opacity="0">
</g>
</g>
</svg>
