<svg preserveAspectRatio="none" width="100%" height="100%" overflow="visible" style="display: block;" viewBox="0 0 18 18" fill="none" xmlns="http://www.w3.org/2000/svg">
<g id="Group">
<path id="Vector" d="M10.2109 5.52344H7.78906V7.86719H10.2109C10.857 7.86719 11.3828 7.34133 11.3828 6.69531C11.3828 6.0493 10.857 5.52344 10.2109 5.52344Z" fill="var(--fill-0, #8D8D8D)"/>
<path id="Vector_2" d="M15.3633 0H2.63672C1.1829 0 0 1.1829 0 2.63672V15.3633C0 16.8171 1.1829 18 2.63672 18H15.3633C16.8171 18 18 16.8171 18 15.3633V2.63672C18 1.1829 16.8171 0 15.3633 0ZM10.0898 10.0898H7.91016V13.7812C7.91016 14.0725 7.67405 14.3086 7.38281 14.3086H6.32812C6.03689 14.3086 5.80078 14.0725 5.80078 13.7812V4.28906C5.80078 3.99783 6.03689 3.76172 6.32812 3.76172H10.0898C11.8346 3.76172 13.2539 5.18101 13.2539 6.92578C13.2539 8.67055 11.8346 10.0898 10.0898 10.0898Z" fill="var(--fill-0, #8D8D8D)"/>
</g>
</svg>
