<svg preserveAspectRatio="none" width="100%" height="100%" overflow="visible" style="display: block;" viewBox="0 0 20 20" fill="none" xmlns="http://www.w3.org/2000/svg">
<g id="Frame">
<path id="Vector" d="M9.70417 17.425L9.69833 17.4225L9.68 17.4125C9.57274 17.3535 9.46634 17.2929 9.36083 17.2308C8.09234 16.4771 6.9069 15.5916 5.82417 14.5892C3.90667 12.8 1.875 10.145 1.875 6.875C1.875 4.435 3.92833 2.5 6.40667 2.5C7.09563 2.49663 7.77648 2.64862 8.3986 2.94467C9.02072 3.24072 9.56809 3.67322 10 4.21C10.432 3.67311 10.9795 3.24055 11.6018 2.94449C12.224 2.64843 12.9051 2.4965 13.5942 2.5C16.0717 2.5 18.125 4.435 18.125 6.875C18.125 10.1458 16.0933 12.8008 14.1758 14.5883C13.0931 15.5908 11.9077 16.4763 10.6392 17.23C10.5337 17.2924 10.4273 17.3532 10.32 17.4125L10.3017 17.4225L10.2958 17.4258L10.2933 17.4267C10.203 17.4745 10.1023 17.4996 10 17.4996C9.89774 17.4996 9.79703 17.4745 9.70667 17.4267L9.70417 17.425Z" fill="var(--fill-0, white)"/>
</g>
</svg>
