<svg preserveAspectRatio="none" width="100%" height="100%" overflow="visible" style="display: block;" viewBox="0 0 18 16" fill="none" xmlns="http://www.w3.org/2000/svg">
<g id="Group">
<path id="Vector" d="M17.2696 4.21061L8.93625 0.0439471C8.87838 0.0150454 8.81458 0 8.7499 0C8.68521 0 8.62141 0.0150454 8.56354 0.0439471L0.230208 4.21061C0.160984 4.24525 0.102777 4.29849 0.0621154 4.36436C0.0214537 4.43023 -5.53127e-05 4.50612 1.06824e-07 4.58353V6.2502C0.000149505 6.32127 0.0183977 6.39114 0.0530245 6.45322C0.0876512 6.51529 0.137516 6.56752 0.197917 6.60499C0.258563 6.64154 0.327396 6.66233 0.398138 6.66546C0.46888 6.66859 0.53928 6.65396 0.602917 6.62291L8.75 2.54895L16.8969 6.62311C16.9604 6.65497 17.0311 6.67004 17.1021 6.66688C17.1731 6.66372 17.2421 6.64243 17.3026 6.60505C17.363 6.56767 17.4129 6.51543 17.4475 6.45332C17.482 6.3912 17.5001 6.32128 17.5 6.2502V4.58353C17.5 4.5061 17.4785 4.43019 17.4378 4.36432C17.3971 4.29845 17.3388 4.24522 17.2696 4.21061Z" fill="var(--fill-0, #8D8D8D)"/>
<path id="Vector_2" d="M1.25 7.23124V15.4169C1.24997 15.4716 1.26073 15.5258 1.28166 15.5763C1.30259 15.6269 1.33328 15.6729 1.37198 15.7116C1.41067 15.7503 1.45662 15.7809 1.50718 15.8019C1.55775 15.8228 1.61194 15.8336 1.66667 15.8335H15.8333C15.8881 15.8336 15.9423 15.8228 15.9928 15.8019C16.0434 15.7809 16.0893 15.7503 16.128 15.7116C16.1667 15.6729 16.1974 15.6269 16.2183 15.5763C16.2393 15.5258 16.25 15.4716 16.25 15.4169V7.23103L8.75 3.48082L1.25 7.23124ZM7.18458 6.94957C7.64812 6.86832 8.11 7.30853 8.22417 7.95374V7.95457C8.33771 8.59999 8.05979 9.17124 7.59146 9.25416C7.5541 9.26063 7.51625 9.26391 7.47833 9.26395C7.04979 9.26395 6.65562 8.84311 6.55146 8.24916C6.4375 7.60395 6.71521 7.03249 7.18458 6.94957ZM6.13083 10.3092C6.10704 10.4344 6.05244 10.5517 5.97195 10.6506C5.89145 10.7495 5.78761 10.8267 5.66979 10.8754C5.59787 10.9012 5.52204 10.9145 5.44562 10.9146C5.05812 10.9146 4.65937 10.5817 4.47187 10.0667C4.24729 9.44978 4.42229 8.83957 4.86979 8.67582C4.99133 8.63795 5.12035 8.63068 5.24537 8.65467C5.3704 8.67866 5.48756 8.73316 5.58646 8.81332C5.80542 8.98895 5.97197 9.2213 6.06796 9.48506C6.16395 9.74883 6.1857 10.0339 6.13083 10.3092ZM11.4323 9.48478C11.5242 9.21904 11.6914 8.98575 11.9135 8.81332C12.0124 8.73316 12.1296 8.67866 12.2546 8.65467C12.3797 8.63068 12.5087 8.63795 12.6302 8.67582C13.0777 8.83936 13.2527 9.44978 13.0281 10.0667C12.8406 10.5819 12.4419 10.9146 12.0544 10.9146C11.9781 10.9145 11.9024 10.9012 11.8306 10.8754C11.7127 10.8268 11.6088 10.7496 11.5282 10.6507C11.4476 10.5518 11.393 10.4345 11.3692 10.3092C11.3098 10.0341 11.3317 9.74763 11.4323 9.48478ZM8.75 13.7594C7.21458 13.7594 6.29792 13.2021 6.29792 12.2685C6.29792 11.2831 7.36896 10.1373 8.75 10.1373C10.131 10.1373 11.2021 11.2831 11.2021 12.2685C11.2021 13.2019 10.2854 13.7594 8.75 13.7594ZM9.27562 7.95457V7.95374C9.38958 7.30936 9.84437 6.86666 10.315 6.94957C10.7846 7.0327 11.0625 7.60374 10.9483 8.24999C10.8442 8.84332 10.4496 9.26416 10.0221 9.26416C9.98423 9.26413 9.94646 9.26085 9.90917 9.25436C9.44021 9.17124 9.16208 8.59999 9.27562 7.95457Z" fill="var(--fill-0, #8D8D8D)"/>
</g>
</svg>
