<svg preserveAspectRatio="none" width="100%" height="100%" overflow="visible" style="display: block;" viewBox="0 0 18 16" fill="none" xmlns="http://www.w3.org/2000/svg">
<g id="Group">
<path id="Vector" fill-rule="evenodd" clip-rule="evenodd" d="M5.41634 2.29146C5.41641 2.20939 5.40024 2.12812 5.36878 2.05232C5.33731 1.97652 5.29117 1.90769 5.23301 1.8498L3.56634 0.183129C3.50837 0.125075 3.43952 0.07902 3.36374 0.0475971C3.28795 0.0161742 3.20672 0 3.12467 0C3.04263 0 2.9614 0.0161742 2.88561 0.0475971C2.80983 0.07902 2.74098 0.125075 2.68301 0.183129L1.01634 1.8498C0.958177 1.90769 0.912035 1.97652 0.880572 2.05232C0.849108 2.12812 0.832944 2.20939 0.833008 2.29146V14.7915C0.833008 15.1365 1.11301 15.4165 1.45801 15.4165H4.79134C4.9571 15.4165 5.11607 15.3506 5.23328 15.2334C5.35049 15.1162 5.41634 14.9572 5.41634 14.7915V2.29146ZM11.2497 2.29146C11.2497 2.20939 11.2336 2.12812 11.2021 2.05232C11.1706 1.97652 11.1245 1.90769 11.0663 1.8498L9.39967 0.183129C9.3417 0.125075 9.27286 0.07902 9.19707 0.0475971C9.12129 0.0161742 9.04005 0 8.95801 0C8.87597 0 8.79473 0.0161742 8.71894 0.0475971C8.64316 0.07902 8.57431 0.125075 8.51634 0.183129L6.84967 1.8498C6.79151 1.90769 6.74537 1.97652 6.7139 2.05232C6.68244 2.12812 6.66628 2.20939 6.66634 2.29146V14.7915C6.66634 15.1365 6.94634 15.4165 7.29134 15.4165H10.6247C10.7904 15.4165 10.9494 15.3506 11.0666 15.2334C11.1838 15.1162 11.2497 14.9572 11.2497 14.7915V2.29146ZM17.083 2.29146C17.0831 2.20939 17.0669 2.12812 17.0354 2.05232C17.004 1.97652 16.9578 1.90769 16.8997 1.8498L15.233 0.183129C15.175 0.125075 15.1062 0.07902 15.0304 0.0475971C14.9546 0.0161742 14.8734 0 14.7913 0C14.7093 0 14.6281 0.0161742 14.5523 0.0475971C14.4765 0.07902 14.4076 0.125075 14.3497 0.183129L12.683 1.8498C12.6248 1.90769 12.5787 1.97652 12.5472 2.05232C12.5158 2.12812 12.4996 2.20939 12.4997 2.29146V14.7915C12.4997 15.1365 12.7797 15.4165 13.1247 15.4165H16.458C16.6238 15.4165 16.7827 15.3506 16.8999 15.2334C17.0172 15.1162 17.083 14.9572 17.083 14.7915V2.29146Z" fill="var(--fill-0, white)"/>
<path id="Vector_2" fill-rule="evenodd" clip-rule="evenodd" d="M17.2917 4.58313H16.4583C16.2926 4.58313 16.1336 4.64898 16.0164 4.76619C15.8992 4.8834 15.8333 5.04237 15.8333 5.20813C15.8333 5.37389 15.8992 5.53286 16.0164 5.65007C16.1336 5.76728 16.2926 5.83313 16.4583 5.83313H17.2917C17.4574 5.83313 17.6164 5.76728 17.7336 5.65007C17.8508 5.53286 17.9167 5.37389 17.9167 5.20813C17.9167 5.04237 17.8508 4.8834 17.7336 4.76619C17.6164 4.64898 17.4574 4.58313 17.2917 4.58313ZM13.125 4.58313H10.625C10.4592 4.58313 10.3003 4.64898 10.1831 4.76619C10.0658 4.8834 10 5.04237 10 5.20813C10 5.37389 10.0658 5.53286 10.1831 5.65007C10.3003 5.76728 10.4592 5.83313 10.625 5.83313H13.125C13.2908 5.83313 13.4497 5.76728 13.5669 5.65007C13.6842 5.53286 13.75 5.37389 13.75 5.20813C13.75 5.04237 13.6842 4.8834 13.5669 4.76619C13.4497 4.64898 13.2908 4.58313 13.125 4.58313ZM7.29167 4.58313H4.79167C4.62591 4.58313 4.46694 4.64898 4.34973 4.76619C4.23251 4.8834 4.16667 5.04237 4.16667 5.20813C4.16667 5.37389 4.23251 5.53286 4.34973 5.65007C4.46694 5.76728 4.62591 5.83313 4.79167 5.83313H7.29167C7.45743 5.83313 7.6164 5.76728 7.73361 5.65007C7.85082 5.53286 7.91667 5.37389 7.91667 5.20813C7.91667 5.04237 7.85082 4.8834 7.73361 4.76619C7.6164 4.64898 7.45743 4.58313 7.29167 4.58313ZM1.45833 4.58313H0.625C0.45924 4.58313 0.300269 4.64898 0.183058 4.76619C0.0658481 4.8834 2.98023e-08 5.04237 2.98023e-08 5.20813C2.98023e-08 5.37389 0.0658481 5.53286 0.183058 5.65007C0.300269 5.76728 0.45924 5.83313 0.625 5.83313H1.45833C1.62409 5.83313 1.78307 5.76728 1.90028 5.65007C2.01749 5.53286 2.08333 5.37389 2.08333 5.20813C2.08333 5.04237 2.01749 4.8834 1.90028 4.76619C1.78307 4.64898 1.62409 4.58313 1.45833 4.58313ZM17.2917 10.4165H16.4583C16.2926 10.4165 16.1336 10.4823 16.0164 10.5995C15.8992 10.7167 15.8333 10.8757 15.8333 11.0415C15.8333 11.2072 15.8992 11.3662 16.0164 11.4834C16.1336 11.6006 16.2926 11.6665 16.4583 11.6665H17.2917C17.4574 11.6665 17.6164 11.6006 17.7336 11.4834C17.8508 11.3662 17.9167 11.2072 17.9167 11.0415C17.9167 10.8757 17.8508 10.7167 17.7336 10.5995C17.6164 10.4823 17.4574 10.4165 17.2917 10.4165ZM13.125 10.4165H10.625C10.4592 10.4165 10.3003 10.4823 10.1831 10.5995C10.0658 10.7167 10 10.8757 10 11.0415C10 11.2072 10.0658 11.3662 10.1831 11.4834C10.3003 11.6006 10.4592 11.6665 10.625 11.6665H13.125C13.2908 11.6665 13.4497 11.6006 13.5669 11.4834C13.6842 11.3662 13.75 11.2072 13.75 11.0415C13.75 10.8757 13.6842 10.7167 13.5669 10.5995C13.4497 10.4823 13.2908 10.4165 13.125 10.4165ZM7.29167 10.4165H4.79167C4.62591 10.4165 4.46694 10.4823 4.34973 10.5995C4.23251 10.7167 4.16667 10.8757 4.16667 11.0415C4.16667 11.2072 4.23251 11.3662 4.34973 11.4834C4.46694 11.6006 4.62591 11.6665 4.79167 11.6665H7.29167C7.45743 11.6665 7.6164 11.6006 7.73361 11.4834C7.85082 11.3662 7.91667 11.2072 7.91667 11.0415C7.91667 10.8757 7.85082 10.7167 7.73361 10.5995C7.6164 10.4823 7.45743 10.4165 7.29167 10.4165ZM1.45833 10.4165H0.625C0.45924 10.4165 0.300269 10.4823 0.183058 10.5995C0.0658481 10.7167 2.98023e-08 10.8757 2.98023e-08 11.0415C2.98023e-08 11.2072 0.0658481 11.3662 0.183058 11.4834C0.300269 11.6006 0.45924 11.6665 0.625 11.6665H1.45833C1.62409 11.6665 1.78307 11.6006 1.90028 11.4834C2.01749 11.3662 2.08333 11.2072 2.08333 11.0415C2.08333 10.8757 2.01749 10.7167 1.90028 10.5995C1.78307 10.4823 1.62409 10.4165 1.45833 10.4165Z" fill="var(--fill-0, white)"/>
</g>
</svg>
