<svg preserveAspectRatio="none" width="100%" height="100%" overflow="visible" style="display: block;" viewBox="0 0 17 17" fill="none" xmlns="http://www.w3.org/2000/svg">
<g id="Group">
<path id="Vector" d="M6.66667 3.58333C5.5 1.66667 4.16667 0 4.16667 0C4.16667 0 0 5.16667 0 7.5C0 9.5 1.41667 11.25 3.33333 11.5833V11C3.33333 9 5 6 6.66667 3.58333ZM10.8333 0.833333C10.8333 0.833333 5 7.91667 5 11C5 14.0833 7.58333 16.6667 10.8333 16.6667C14.0833 16.6667 16.6667 14.1667 16.6667 11C16.6667 7.83333 10.8333 0.833333 10.8333 0.833333ZM14.9167 11.9167C14.9167 12.1667 14.75 12.4167 14.6667 12.6667C14.5 12.8333 14.4167 13.0833 14.25 13.25C14.0833 13.4167 13.9167 13.5833 13.75 13.6667C13.4167 13.9167 13 14 12.75 14.0833C12.4167 14.1667 12.1667 14.0833 12 14.0833C11.8333 14.0833 11.75 14 11.75 14L12.3333 13.4167C14.3333 11.75 14 9.08333 14 9.08333C14 9.08333 14.0833 9.16667 14.25 9.25C14.4167 9.41667 14.5833 9.58333 14.75 9.91667C14.9167 10.25 15.0833 10.6667 15.0833 11.0833C15 11.4167 15 11.6667 14.9167 11.9167Z" fill="var(--fill-0, #8D8D8D)"/>
</g>
</svg>
