<svg preserveAspectRatio="none" width="100%" height="100%" overflow="visible" style="display: block;" viewBox="0 0 296 12" fill="none" xmlns="http://www.w3.org/2000/svg">
<g id="Group 2085662672">
<rect id="Rectangle 1918" opacity="0.1" y="4" width="295.902" height="4" rx="2" fill="var(--fill-0, #3A6B22)"/>
<rect id="Rectangle 1919" y="4" width="63.1927" height="4" rx="2" fill="var(--fill-0, #3A6B22)"/>
<path id="Ellipse 39" d="M61.1869 2C63.4118 2.00011 65.2054 3.79668 65.2054 6C65.2054 8.20332 63.4118 9.99989 61.1869 10C58.9618 10 57.1683 8.20339 57.1683 6C57.1683 3.79661 58.9618 2 61.1869 2Z" fill="var(--fill-0, white)" stroke="var(--stroke-0, #3A6B22)" stroke-width="4"/>
<path id="Ellipse 40" d="M6.01855 2C8.24349 2.00011 10.0371 3.79668 10.0371 6C10.0371 8.20332 8.24349 9.99989 6.01855 10C3.79352 10 2 8.20339 2 6C2 3.79661 3.79352 2 6.01855 2Z" fill="var(--fill-0, white)" stroke="var(--stroke-0, #3A6B22)" stroke-width="4"/>
</g>
</svg>
