<svg width="18" height="18" viewBox="0 0 18 18" fill="none" xmlns="http://www.w3.org/2000/svg">
<path fill-rule="evenodd" clip-rule="evenodd" d="M9.0008 1.31299C9.0008 1.31299 9.0008 1.31299 8.9933 1.31299C6.3458 1.31299 3.3158 2.86549 2.5283 6.33049C1.6508 10.2005 4.0208 13.478 6.1658 15.5405C6.9608 16.3055 7.9808 16.688 9.0008 16.688C10.0208 16.688 11.0408 16.3055 11.8283 15.5405C13.9733 13.478 16.3433 10.208 15.4658 6.33799C14.6783 2.87299 11.6558 1.31299 9.0008 1.31299ZM6.6383 7.73299C6.6383 6.42799 7.6958 5.37049 9.0008 5.37049C10.3058 5.37049 11.3633 6.42799 11.3633 7.73299C11.3633 9.03799 10.3058 10.0955 9.0008 10.0955C7.6958 10.0955 6.6383 9.03799 6.6383 7.73299Z" fill="#192215"/>
</svg>
