<svg width="36" height="36" viewBox="0 0 36 36" fill="none" xmlns="http://www.w3.org/2000/svg">
<rect width="36" height="36" rx="18" fill="#F8F1D7"/>
<path fill-rule="evenodd" clip-rule="evenodd" d="M8.375 11.125C8.375 10.3957 8.66473 9.69618 9.18046 9.18046C9.69618 8.66473 10.3957 8.375 11.125 8.375H12.3827C13.171 8.375 13.8585 8.91217 14.0501 9.67667L15.063 13.7311C15.1451 14.0592 15.1285 14.4043 15.0153 14.7231C14.9022 15.0419 14.6975 15.3202 14.4268 15.5232L13.2416 16.4123C13.1178 16.5049 13.0913 16.6406 13.1261 16.735C13.6434 18.1419 14.4604 19.4196 15.5204 20.4796C16.5804 21.5396 17.8581 22.3566 19.265 22.8739C19.3594 22.9087 19.4942 22.8822 19.5877 22.7584L20.4768 21.5732C20.6798 21.3025 20.9581 21.0978 21.2769 20.9847C21.5957 20.8715 21.9408 20.8549 22.2689 20.937L26.3233 21.9499C27.0878 22.1415 27.625 22.829 27.625 23.6182V24.875C27.625 25.6043 27.3353 26.3038 26.8195 26.8195C26.3038 27.3353 25.6043 27.625 24.875 27.625H22.8125C14.8393 27.625 8.375 21.1607 8.375 13.1875V11.125Z" fill="#3A6B22"/>
</svg>
