<svg width="20" height="21" viewBox="0 0 20 21" fill="none" xmlns="http://www.w3.org/2000/svg">
<path d="M9.60024 8.26694C6.35857 8.26694 3.50857 10.8919 3.23357 14.1253C3.12524 15.3753 3.52524 16.5586 4.35024 17.4503C5.16691 18.3419 6.31691 18.8336 7.56691 18.8336H11.4669C12.8752 18.8336 14.1086 18.2836 14.9502 17.2919C15.7919 16.3003 16.1252 14.9836 15.9002 13.6003C15.4086 10.6586 12.5836 8.26694 9.60024 8.26694Z" fill="white"/>
<path fill-rule="evenodd" clip-rule="evenodd" d="M8.56633 7.04999C7.21784 7.04999 6.12466 5.95682 6.12466 4.60832C6.12466 3.25983 7.21784 2.16666 8.56633 2.16666C9.91483 2.16666 11.008 3.25983 11.008 4.60832C11.008 5.95682 9.91483 7.04999 8.56633 7.04999Z" fill="white"/>
<path fill-rule="evenodd" clip-rule="evenodd" d="M14.1167 8.0237C12.9937 8.0237 12.0833 7.11334 12.0833 5.99036C12.0833 4.86739 12.9937 3.95703 14.1167 3.95703C15.2397 3.95703 16.15 4.86739 16.15 5.99036C16.15 7.11334 15.2397 8.0237 14.1167 8.0237Z" fill="white"/>
<path fill-rule="evenodd" clip-rule="evenodd" d="M17.1247 11.276C16.2272 11.276 15.4997 10.5485 15.4997 9.65103C15.4997 8.75357 16.2272 8.02603 17.1247 8.02603C18.0221 8.02603 18.7497 8.75357 18.7497 9.65103C18.7497 10.5485 18.0221 11.276 17.1247 11.276Z" fill="white"/>
<path fill-rule="evenodd" clip-rule="evenodd" d="M3.28333 9.65129C2.16035 9.65129 1.25 8.74094 1.25 7.61796C1.25 6.49498 2.16035 5.58463 3.28333 5.58463C4.40631 5.58463 5.31667 6.49498 5.31667 7.61796C5.31667 8.74094 4.40631 9.65129 3.28333 9.65129Z" fill="white"/>
<path opacity="0.01" fill-rule="evenodd" clip-rule="evenodd" d="M4.76837e-07 20.5L4.76837e-07 0.5L20 0.5L20 20.5L4.76837e-07 20.5Z" fill="white"/>
</svg>
