<svg width="20" height="20" viewBox="0 0 20 20" fill="none" xmlns="http://www.w3.org/2000/svg">
<path d="M9.99935 1.66675C5.40768 1.66675 1.66602 5.40841 1.66602 10.0001C1.66602 14.5917 5.40768 18.3334 9.99935 18.3334C14.591 18.3334 18.3327 14.5917 18.3327 10.0001C18.3327 5.40841 14.591 1.66675 9.99935 1.66675ZM13.3327 10.6251H10.6243V13.3334C10.6243 13.6751 10.341 13.9584 9.99935 13.9584C9.65768 13.9584 9.37435 13.6751 9.37435 13.3334V10.6251H6.66602C6.32435 10.6251 6.04102 10.3417 6.04102 10.0001C6.04102 9.65841 6.32435 9.37508 6.66602 9.37508H9.37435V6.66675C9.37435 6.32508 9.65768 6.04175 9.99935 6.04175C10.341 6.04175 10.6243 6.32508 10.6243 6.66675V9.37508H13.3327C13.6743 9.37508 13.9577 9.65841 13.9577 10.0001C13.9577 10.3417 13.6743 10.6251 13.3327 10.6251Z" fill="#3A6B22"/>
</svg>
