<svg width="21" height="21" viewBox="0 0 21 21" fill="none" xmlns="http://www.w3.org/2000/svg">
<path d="M10.1009 8.26694C6.85921 8.26694 4.00921 10.8919 3.73421 14.1253C3.62588 15.3753 4.02588 16.5586 4.85088 17.4503C5.66755 18.3419 6.81755 18.8336 8.06755 18.8336H11.9675C13.3759 18.8336 14.6092 18.2836 15.4509 17.2919C16.2925 16.3003 16.6259 14.9836 16.4009 13.6003C15.9092 10.6586 13.0842 8.26694 10.1009 8.26694Z" fill="#192215"/>
<path fill-rule="evenodd" clip-rule="evenodd" d="M9.06667 7.04999C7.71817 7.04999 6.625 5.95682 6.625 4.60832C6.625 3.25983 7.71817 2.16666 9.06667 2.16666C10.4152 2.16666 11.5083 3.25983 11.5083 4.60832C11.5083 5.95682 10.4152 7.04999 9.06667 7.04999Z" fill="#192215"/>
<path fill-rule="evenodd" clip-rule="evenodd" d="M14.6173 8.0237C13.4943 8.0237 12.584 7.11334 12.584 5.99036C12.584 4.86739 13.4943 3.95703 14.6173 3.95703C15.7403 3.95703 16.6507 4.86739 16.6507 5.99036C16.6507 7.11334 15.7403 8.0237 14.6173 8.0237Z" fill="#192215"/>
<path fill-rule="evenodd" clip-rule="evenodd" d="M17.625 11.276C16.7275 11.276 16 10.5485 16 9.65103C16 8.75357 16.7275 8.02603 17.625 8.02603C18.5225 8.02603 19.25 8.75357 19.25 9.65103C19.25 10.5485 18.5225 11.276 17.625 11.276Z" fill="#192215"/>
<path fill-rule="evenodd" clip-rule="evenodd" d="M3.78333 9.65129C2.66035 9.65129 1.75 8.74094 1.75 7.61796C1.75 6.49498 2.66035 5.58463 3.78333 5.58463C4.90631 5.58463 5.81667 6.49498 5.81667 7.61796C5.81667 8.74094 4.90631 9.65129 3.78333 9.65129Z" fill="#192215"/>
<path opacity="0.01" fill-rule="evenodd" clip-rule="evenodd" d="M0.5 20.5L0.5 0.5L20.5 0.5L20.5 20.5L0.5 20.5Z" fill="#192215"/>
</svg>
