<svg width="21" height="21" viewBox="0 0 21 21" fill="none" xmlns="http://www.w3.org/2000/svg">
<path d="M17.166 3.41666H5.08266C4.82432 3.41666 4.57433 3.54166 4.416 3.74999L3.166 5.41666C2.75767 5.96666 3.14932 6.74999 3.83266 6.74999H15.916C16.1743 6.74999 16.4243 6.62499 16.5826 6.41666L17.8326 4.74999C18.241 4.19999 17.8493 3.41666 17.166 3.41666Z" fill="white"/>
<path d="M3.83266 8.83334H15.916C16.1743 8.83334 16.4243 8.95834 16.5826 9.16668L17.8326 10.8333C18.241 11.3833 17.8493 12.1667 17.166 12.1667H5.08266C4.82432 12.1667 4.57433 12.0417 4.416 11.8333L3.166 10.1667C2.75767 9.61668 3.14932 8.83334 3.83266 8.83334Z" fill="white"/>
<path d="M17.166 14.25H5.08266C4.82432 14.25 4.57433 14.375 4.416 14.5833L3.166 16.25C2.75767 16.8 3.14932 17.5833 3.83266 17.5833H15.916C16.1743 17.5833 16.4243 17.4583 16.5826 17.25L17.8326 15.5833C18.241 15.0333 17.8493 14.25 17.166 14.25Z" fill="white"/>
</svg>
