<svg width="1024" height="1024" viewBox="0 0 1024 1024" fill="none" xmlns="http://www.w3.org/2000/svg">
<g clip-path="url(#clip0_1449_17061)">
<rect width="1024" height="1024" fill="white"/>
<rect width="1024" height="1024" fill="#3A6B22"/>
<path d="M356.797 461.424C375.771 483.654 398.927 495.193 422.004 493.92C425.154 493.746 428.287 493.328 431.376 492.67C479.098 482.617 505.702 419.566 491.937 349.012C486.17 319.349 473.632 292.118 456.732 272.345C437.791 250.16 414.605 238.638 391.543 239.91C388.393 240.084 385.261 240.502 382.172 241.16C334.449 251.213 307.845 314.265 321.61 384.818C327.36 414.435 339.896 441.636 356.797 461.424Z" fill="#F8F1D7"/>
<path d="M537.275 434.363C546.048 462.242 562.85 481.915 584.588 489.766C587.555 490.838 590.602 491.678 593.702 492.28C641.557 501.684 690.694 454.052 705.608 383.733C711.897 354.176 711.003 324.21 703.179 299.404C694.419 271.579 677.583 251.91 655.859 244.065C652.892 242.993 649.846 242.153 646.745 241.551C598.891 232.147 549.754 279.778 534.839 350.098C528.552 379.605 529.457 409.542 537.275 434.363Z" fill="#F8F1D7"/>
<path d="M673.316 570.047C674.616 595.191 684.543 615.761 701.266 627.974C703.549 629.641 705.951 631.14 708.45 632.458C747.005 652.898 799.227 627.02 827.397 573.466C839.254 550.961 845.104 526.208 843.931 503.831C842.63 478.734 832.674 458.159 815.961 445.955C813.678 444.287 811.277 442.789 808.777 441.47C770.222 421.03 718.001 446.908 689.831 500.462C677.986 522.927 672.151 547.659 673.316 570.047Z" fill="#F8F1D7"/>
<path d="M238.329 614.425C258.76 629.272 281.037 634.491 301.058 629.126C303.791 628.394 306.467 627.463 309.064 626.341C349.202 609.108 361.781 551.974 337.677 496.175C327.56 472.712 311.919 452.526 293.726 439.325C273.331 424.51 251.032 419.31 231.024 424.671C228.29 425.404 225.615 426.334 223.018 427.456C182.88 444.69 170.301 501.824 194.405 557.622C204.499 581.051 220.132 601.212 238.329 614.425Z" fill="#F8F1D7"/>
<path d="M661.759 643.928C642.614 632.406 624.517 621.507 612.696 601.93C580.085 547.74 560.391 515.031 508.757 515.031C457.122 515.031 437.38 547.74 404.696 601.93C392.85 621.532 374.717 632.443 355.511 644.013C333.49 657.268 310.737 670.962 300.915 697.911C297.096 707.625 295.173 717.983 295.248 728.423C295.248 772.3 329.371 808 371.292 808C392.923 808 415.944 800.494 440.305 792.548C463.727 784.908 487.942 777.011 508.879 777.011C529.815 777.011 553.969 784.908 577.306 792.548C601.618 800.445 624.529 807.951 646.221 807.951C688.082 807.951 722.143 772.251 722.143 728.374C722.178 717.926 720.213 707.569 716.355 697.862C706.532 670.889 683.768 657.182 661.759 643.928Z" fill="#F8F1D7"/>
</g>
<defs>
<clipPath id="clip0_1449_17061">
<rect width="1024" height="1024" fill="white"/>
</clipPath>
</defs>
</svg>
