<svg width="24" height="24" viewBox="0 0 24 24" fill="none" xmlns="http://www.w3.org/2000/svg">
<path fill-rule="evenodd" clip-rule="evenodd" d="M21 12C21 12.2984 20.8815 12.5845 20.6705 12.7955C20.4595 13.0065 20.1734 13.125 19.875 13.125H6.83999L11.67 17.955C11.7805 18.058 11.8692 18.1822 11.9307 18.3202C11.9921 18.4582 12.0252 18.6072 12.0279 18.7582C12.0305 18.9093 12.0028 19.0593 11.9462 19.1994C11.8896 19.3395 11.8054 19.4667 11.6985 19.5736C11.5917 19.6804 11.4645 19.7646 11.3244 19.8212C11.1843 19.8778 11.0343 19.9056 10.8832 19.9029C10.7321 19.9002 10.5832 19.8672 10.4452 19.8057C10.3072 19.7442 10.183 19.6555 10.08 19.545L3.32999 12.795C3.11931 12.5841 3.00098 12.2981 3.00098 12C3.00098 11.7019 3.11931 11.4159 3.32999 11.205L10.08 4.455C10.2932 4.25628 10.5753 4.14809 10.8668 4.15324C11.1582 4.15838 11.4363 4.27645 11.6424 4.48257C11.8485 4.68869 11.9666 4.96676 11.9717 5.25821C11.9769 5.54967 11.8687 5.83174 11.67 6.045L6.83999 10.875H19.875C20.1734 10.875 20.4595 10.9935 20.6705 11.2045C20.8815 11.4155 21 11.7016 21 12Z" fill="#192215"/>
</svg>
