<svg width="96" height="96" viewBox="0 0 96 96" fill="none" xmlns="http://www.w3.org/2000/svg">
<rect width="96" height="96" rx="24" fill="white"/>
<rect x="0.5" y="0.5" width="95" height="95" rx="23.5" stroke="#192215" stroke-opacity="0.06"/>
<path d="M69.6654 69.6667H26.332V63.1667C26.332 61.975 27.307 61 28.4987 61H67.4987C68.6904 61 69.6654 61.975 69.6654 63.1667V69.6667Z" fill="#3A6B22" stroke="#3A6B22" stroke-width="1.5" stroke-linecap="round" stroke-linejoin="round"/>
<path fill-rule="evenodd" clip-rule="evenodd" d="M37.1654 45.8335V61.0002H32.832V45.8335H37.1654Z" fill="#3A6B22"/>
<path fill-rule="evenodd" clip-rule="evenodd" d="M45.8333 45.8335V61.0002H41.5V45.8335H45.8333Z" fill="#3A6B22"/>
<path fill-rule="evenodd" clip-rule="evenodd" d="M54.5013 45.8335V61.0002H50.168V45.8335H54.5013Z" fill="#3A6B22"/>
<path fill-rule="evenodd" clip-rule="evenodd" d="M63.1654 45.8335V61.0002H58.832V45.8335H63.1654Z" fill="#3A6B22"/>
<path d="M24.168 71.2915C23.2796 71.2915 22.543 70.5548 22.543 69.6665C22.543 68.7782 23.2796 68.0415 24.168 68.0415H71.8346C72.723 68.0415 73.4596 68.7782 73.4596 69.6665C73.4596 70.5548 72.723 71.2915 71.8346 71.2915H24.168Z" fill="#3A6B22"/>
<path fill-rule="evenodd" clip-rule="evenodd" d="M48.8004 26.6578C48.367 26.4845 47.6304 26.4845 47.197 26.6578L27.697 34.4578C26.9387 34.7612 26.332 35.6495 26.332 36.4728V43.6662C26.332 44.8578 27.307 45.8328 28.4987 45.8328H67.4987C68.6904 45.8328 69.6654 44.8578 69.6654 43.6662V36.4728C69.6654 35.6495 69.0587 34.7612 68.3004 34.4578L48.8004 26.6578ZM44.7487 37.1662C44.7487 35.3678 46.2004 33.9162 47.9987 33.9162C49.797 33.9162 51.2487 35.3678 51.2487 37.1662C51.2487 38.9645 49.797 40.4162 47.9987 40.4162C46.2004 40.4162 44.7487 38.9645 44.7487 37.1662Z" fill="#3A6B22"/>
</svg>
