<svg width="96" height="96" viewBox="0 0 96 96" fill="none" xmlns="http://www.w3.org/2000/svg">
<rect width="96" height="96" rx="24" fill="#E5F8CF"/>
<rect x="0.5" y="0.5" width="95" height="95" rx="23.5" stroke="#3A6B22" stroke-opacity="0.2"/>
<path fill-rule="evenodd" clip-rule="evenodd" d="M26.332 48.0002C26.332 59.9385 36.0604 69.6668 47.9987 69.6668C59.937 69.6668 69.6654 59.9385 69.6654 48.0002C69.6654 36.0618 59.937 26.3335 47.9987 26.3335C36.0604 26.3335 26.332 36.0618 26.332 48.0002ZM46.0704 55.3018C45.767 55.6052 45.3554 55.7785 44.922 55.7785C44.4887 55.7785 44.077 55.6052 43.7737 55.3018L37.642 49.1702C37.0137 48.5418 37.0137 47.5018 37.642 46.8735C38.2704 46.2452 39.3104 46.2452 39.9387 46.8735L44.922 51.8568L56.0587 40.7202C56.687 40.0918 57.727 40.0918 58.3554 40.7202C58.9837 41.3485 58.9837 42.3668 58.3554 43.0168L46.0704 55.3018Z" fill="#3A6B22"/>
</svg>
