<svg width="48" height="48" viewBox="0 0 48 48" fill="none" xmlns="http://www.w3.org/2000/svg">
<path d="M0 24C0 10.7452 10.7452 0 24 0C37.2548 0 48 10.7452 48 24C48 37.2548 37.2548 48 24 48C10.7452 48 0 37.2548 0 24Z" fill="#F8F1D7"/>
<path fill-rule="evenodd" clip-rule="evenodd" d="M33 24C33 24.2984 32.8815 24.5845 32.6705 24.7955C32.4595 25.0065 32.1734 25.125 31.875 25.125H18.84L23.67 29.955C23.7805 30.058 23.8692 30.1822 23.9307 30.3202C23.9921 30.4582 24.0252 30.6072 24.0279 30.7582C24.0305 30.9093 24.0028 31.0593 23.9462 31.1994C23.8896 31.3395 23.8054 31.4667 23.6985 31.5736C23.5917 31.6804 23.4645 31.7646 23.3244 31.8212C23.1843 31.8778 23.0343 31.9056 22.8832 31.9029C22.7321 31.9002 22.5832 31.8672 22.4452 31.8057C22.3072 31.7442 22.183 31.6555 22.08 31.545L15.33 24.795C15.1193 24.5841 15.001 24.2981 15.001 24C15.001 23.7019 15.1193 23.416 15.33 23.205L22.08 16.455C22.2932 16.2563 22.5753 16.1481 22.8668 16.1533C23.1582 16.1584 23.4363 16.2765 23.6424 16.4826C23.8485 16.6887 23.9666 16.9668 23.9717 17.2582C23.9769 17.5497 23.8687 17.8318 23.67 18.045L18.84 22.875H31.875C32.1734 22.875 32.4595 22.9935 32.6705 23.2045C32.8815 23.4155 33 23.7016 33 24Z" fill="#192215"/>
</svg>
