<svg width="65" height="64" viewBox="0 0 65 64" fill="none" xmlns="http://www.w3.org/2000/svg">
<rect x="0.75" width="64" height="64" rx="24" fill="#F8F1D7"/>
<g clip-path="url(#clip0_1271_5145)">
<path d="M30.7062 26.803C30.183 27.3276 29.5611 27.7435 28.8765 28.0267C28.1919 28.31 27.4579 28.455 26.717 28.4534C26.5094 28.4534 26.3017 28.4424 26.0995 28.4151C25.8133 28.3885 25.5299 28.3373 25.2525 28.2621V31.2895H24.1596V26.5298C23.788 26.6555 23.4 26.7375 23.0065 26.7757C22.8043 26.803 22.5967 26.814 22.389 26.814C20.9463 26.814 19.5037 26.2675 18.3998 25.1636C17.1429 23.9122 16.6074 22.2073 16.7823 20.5679C16.8314 20.1034 16.9353 19.6498 17.0992 19.2072C17.7297 18.9772 18.3954 18.8589 19.0665 18.8574C20.5747 18.8574 21.9901 19.4421 23.0557 20.5078C24.1104 21.557 24.6569 22.9231 24.7006 24.3002C24.9738 23.5133 25.4219 22.7756 26.0503 22.1472C27.116 21.0815 28.5313 20.4968 30.0395 20.4968C30.7106 20.4983 31.3764 20.6166 32.0068 20.8466C32.1708 21.2892 32.2746 21.7428 32.3238 22.2073C32.4986 23.8467 31.9631 25.5516 30.7062 26.803ZM47.1002 26.803C46.577 27.3276 45.9551 27.7435 45.2705 28.0267C44.5859 28.31 43.8519 28.455 43.111 28.4534C42.9034 28.4534 42.6957 28.4424 42.4935 28.4151C42.2073 28.3885 41.9239 28.3373 41.6465 28.2621V31.2895H40.5536V26.5298C40.182 26.6555 39.794 26.7375 39.4005 26.7757C39.1983 26.803 38.9907 26.814 38.783 26.814C37.3403 26.814 35.8977 26.2675 34.7938 25.1636C33.5369 23.9122 33.0014 22.2073 33.1763 20.5679C33.2255 20.1034 33.3293 19.6498 33.4932 19.2072C34.1237 18.9772 34.7894 18.8589 35.4605 18.8574C36.9687 18.8574 38.3841 19.4421 39.4497 20.5078C40.5044 21.557 41.0509 22.9231 41.0946 24.3002C41.3678 23.5133 41.8159 22.7756 42.4443 22.1472C43.51 21.0815 44.9253 20.4968 46.4336 20.4968C47.1046 20.4983 47.7704 20.6166 48.4008 20.8466C48.5648 21.2892 48.6686 21.7428 48.7178 22.2073C48.8927 23.8467 48.3571 25.5516 47.1002 26.803ZM47.0183 40.268V44.1534C47.0183 44.6944 46.5756 45.1425 46.0292 45.1425H20.154C19.6075 45.1425 19.1649 44.6944 19.1649 44.1534V40.268C19.1649 39.727 19.6075 39.2789 20.154 39.2789H46.0456C46.5866 39.2898 47.0183 39.7325 47.0183 40.268ZM47.0347 33.3169V37.1968C47.0347 37.7433 46.592 38.186 46.0456 38.186H20.154C19.8945 38.1817 19.6471 38.0755 19.4651 37.8905C19.2832 37.7055 19.1812 37.4564 19.1813 37.1968V33.3169C19.1813 32.7759 19.6239 32.3278 20.1704 32.3278H46.0456C46.592 32.3278 47.0347 32.7759 47.0347 33.3169Z" fill="#3A6B22"/>
</g>
<defs>
<clipPath id="clip0_1271_5145">
<rect width="32" height="32" fill="white" transform="translate(16.75 16)"/>
</clipPath>
</defs>
</svg>
