<svg width="20" height="20" viewBox="0 0 20 20" fill="none" xmlns="http://www.w3.org/2000/svg">
<path fill-rule="evenodd" clip-rule="evenodd" d="M10.0009 1.45825C10.0009 1.45825 10.0009 1.45825 9.99254 1.45825C7.05087 1.45825 3.68421 3.18325 2.80921 7.03325C1.83421 11.3333 4.46754 14.9749 6.85087 17.2666C7.73421 18.1166 8.86754 18.5416 10.0009 18.5416C11.1342 18.5416 12.2675 18.1166 13.1425 17.2666C15.5259 14.9749 18.1592 11.3416 17.1842 7.04158C16.3092 3.19159 12.9509 1.45825 10.0009 1.45825ZM7.37587 8.59159C7.37587 7.14158 8.55087 5.96658 10.0009 5.96658C11.4509 5.96658 12.6259 7.14158 12.6259 8.59159C12.6259 10.0416 11.4509 11.2166 10.0009 11.2166C8.55087 11.2166 7.37587 10.0416 7.37587 8.59159Z" fill="#8FB366"/>
</svg>
