<svg width="49" height="48" viewBox="0 0 49 48" fill="none" xmlns="http://www.w3.org/2000/svg">
<path fill-rule="evenodd" clip-rule="evenodd" d="M36.3627 2C34.6227 2 33.3427 2.72 32.7627 4C32.4427 4.58 32.3027 5.26 32.3027 6.06V11.94C32.3027 14.48 33.8227 16 36.3627 16H42.2427C43.0427 16 43.7227 15.86 44.3027 15.54C45.5827 14.96 46.3027 13.68 46.3027 11.94V6.06C46.3027 3.52 44.7827 2 42.2427 2H36.3627ZM43.3027 10.22H40.4827V11.24L40.5027 13C40.4827 13.34 40.3627 13.62 40.1227 13.86C39.9227 14.06 39.6227 14.2 39.3027 14.2C38.6427 14.2 38.1027 13.66 38.1027 13V10.2L35.3027 10.22C34.6427 10.22 34.1027 9.66 34.1027 9C34.1027 8.34 34.6427 7.8 35.3027 7.8L37.0627 7.82H38.1027V5.02C38.1027 4.36 38.6427 3.8 39.3027 3.8C39.9627 3.8 40.5027 4.36 40.5027 5.02L40.4827 6.44V7.8H43.3027C43.9627 7.8 44.5027 8.34 44.5027 9C44.4827 9.34 44.3427 9.62 44.1227 9.86C43.9227 10.06 43.6227 10.2 43.3027 10.22Z" fill="#8FB366"/>
<path fill-rule="evenodd" clip-rule="evenodd" d="M18.3049 20.7622C15.676 20.7622 13.5449 18.6311 13.5449 16.0022C13.5449 13.3733 15.676 11.2422 18.3049 11.2422C20.9338 11.2422 23.0649 13.3733 23.0649 16.0022C23.0649 18.6311 20.9338 20.7622 18.3049 20.7622Z" fill="#8FB366"/>
<path d="M41.3027 16V25.22L41.0427 25C39.4827 23.66 36.9627 23.66 35.4027 25L27.0827 32.14C25.5227 33.48 23.0027 33.48 21.4427 32.14L20.7627 31.58C19.3427 30.34 17.0827 30.22 15.4827 31.3L8.00273 36.32C7.56273 35.2 7.30273 33.9 7.30273 32.38V15.62C7.30273 9.98 10.2827 7 15.9227 7H32.3027V6.06C32.3027 5.26 32.4427 4.58 32.7627 4H15.9227C8.64273 4 4.30273 8.34 4.30273 15.62V32.38C4.30273 34.56 4.68273 36.46 5.42273 38.06C7.14273 41.86 10.8227 44 15.9227 44H32.6827C39.9627 44 44.3027 39.66 44.3027 32.38V15.54C43.7227 15.86 43.0427 16 42.2427 16H41.3027Z" fill="#8FB366"/>
</svg>
