<svg width="96" height="96" viewBox="0 0 96 96" fill="none" xmlns="http://www.w3.org/2000/svg">
<rect width="96" height="96" rx="24" fill="#FFDFE0"/>
<rect x="0.5" y="0.5" width="95" height="95" rx="23.5" stroke="#E31C20" stroke-opacity="0.2"/>
<path fill-rule="evenodd" clip-rule="evenodd" d="M27.0496 56.7317C26.703 57.035 26.378 57.36 26.0963 57.7283C24.883 59.2233 24.168 61.1083 24.168 63.1667C24.168 67.955 28.068 71.8333 32.8346 71.8333C34.9146 71.8333 36.7996 71.0967 38.2946 69.905C39.508 68.8867 40.4613 67.565 40.9813 66.0483C41.328 65.16 41.5013 64.185 41.5013 63.1667C41.5013 58.4 37.623 54.5 32.8346 54.5C30.6246 54.5 28.588 55.345 27.0496 56.7317Z" fill="#E31C20"/>
<path d="M54.1763 38.7934H50.9263V30.56C50.9263 29.975 50.4063 29.6934 50.0596 29.6934C49.9513 29.6934 49.843 29.715 49.7346 29.7584L32.553 36.2367C31.4046 36.67 30.668 37.7534 30.668 38.9884V40.44C28.6963 41.9134 27.418 44.275 27.418 46.94V38.9884C27.418 36.41 28.9996 34.1134 31.4046 33.2034L48.608 26.7034C49.0846 26.53 49.583 26.4434 50.0596 26.4434C52.2263 26.4434 54.1763 28.1984 54.1763 30.56V38.7934Z" fill="#E31C20"/>
<path d="M68.5841 55.583C68.5841 56.168 68.1291 56.6447 67.5225 56.6663H64.3591C63.2108 56.6663 62.1708 55.8213 62.0841 54.6947C62.0191 54.023 62.2791 53.3947 62.7125 52.9613C63.1025 52.5497 63.6441 52.333 64.2291 52.333H67.5008C68.1291 52.3547 68.5841 52.8313 68.5841 53.4163V55.583Z" fill="#E31C20"/>
<path fill-rule="evenodd" clip-rule="evenodd" d="M66.418 50.0587C67.6096 50.0587 68.5846 49.0837 68.5846 47.892V46.9387C68.5846 42.4537 64.923 38.792 60.438 38.792H35.5646C33.723 38.792 32.033 39.3987 30.668 40.4387C28.6963 41.912 27.418 44.2737 27.418 46.9387V50.7953C27.418 51.6187 28.2846 52.1387 29.0646 51.8787C30.278 51.467 31.5563 51.2503 32.8346 51.2503C39.3996 51.2503 44.7513 56.602 44.7513 63.167C44.7513 64.727 44.3396 66.4387 43.6896 67.9553C43.343 68.7353 43.8846 69.667 44.7296 69.667H60.438C64.923 69.667 68.5846 66.0053 68.5846 61.5203V61.1087C68.5846 59.917 67.6096 58.942 66.418 58.942H64.533C62.453 58.942 60.4596 57.6637 59.918 55.6487C59.4846 54.002 60.0046 52.3987 61.088 51.3587C61.8896 50.5353 62.9946 50.0587 64.208 50.0587H66.418ZM41.5013 49.6253C40.613 49.6253 39.8763 48.8887 39.8763 48.0003C39.8763 47.112 40.613 46.3753 41.5013 46.3753H52.3346C53.223 46.3753 53.9596 47.112 53.9596 48.0003C53.9596 48.8887 53.223 49.6253 52.3346 49.6253H41.5013Z" fill="#E31C20"/>
<path fill-rule="evenodd" clip-rule="evenodd" d="M35.14 66.6C34.76 66.6 34.38 66.46 34.08 66.16L33.02 65.1L31.92 66.2C31.62 66.5 31.24 66.64 30.86 66.64C30.48 66.64 30.1 66.5 29.8 66.2C29.22 65.62 29.22 64.66 29.8 64.08L30.9 62.98L29.84 61.92C29.26 61.34 29.26 60.38 29.84 59.8C30.42 59.22 31.38 59.22 31.96 59.8L33.02 60.86L34.02 59.86C34.6 59.28 35.56 59.28 36.14 59.86C36.72 60.44 36.72 61.4 36.14 61.98L35.14 62.98L36.2 64.04C36.78 64.62 36.78 65.56 36.2 66.16C35.9 66.46 35.52 66.6 35.14 66.6Z" fill="#FFDFE0"/>
</svg>
