<svg preserveAspectRatio="none" width="100%" height="100%" overflow="visible" style="display: block;" viewBox="0 0 22 22" fill="none" xmlns="http://www.w3.org/2000/svg">
<g id="Frame">
<path id="Vector" fill-rule="evenodd" clip-rule="evenodd" d="M1.375 4.125C1.375 3.39565 1.66473 2.69618 2.18046 2.18046C2.69618 1.66473 3.39565 1.375 4.125 1.375H5.38267C6.171 1.375 6.8585 1.91217 7.05008 2.67667L8.063 6.73108C8.14508 7.05925 8.1285 7.40434 8.01534 7.72312C7.90217 8.04191 7.69746 8.32021 7.42683 8.52317L6.24158 9.41233C6.11783 9.50492 6.09125 9.64058 6.12608 9.735C6.64343 11.1419 7.46038 12.4196 8.52037 13.4796C9.58035 14.5396 10.8581 15.3566 12.265 15.8739C12.3594 15.9087 12.4942 15.8822 12.5877 15.7584L13.4768 14.5732C13.6798 14.3025 13.9581 14.0978 14.2769 13.9847C14.5957 13.8715 14.9408 13.8549 15.2689 13.937L19.3233 14.9499C20.0878 15.1415 20.625 15.829 20.625 16.6183V17.875C20.625 18.6043 20.3353 19.3038 19.8195 19.8195C19.3038 20.3353 18.6043 20.625 17.875 20.625H15.8125C7.83933 20.625 1.375 14.1607 1.375 6.1875V4.125Z" fill="var(--fill-0, #3A6B22)"/>
</g>
</svg>
