<svg width="20" height="20" viewBox="0 0 20 20" fill="none" xmlns="http://www.w3.org/2000/svg">
<path fill-rule="evenodd" clip-rule="evenodd" d="M13.4944 5.35775C14.5078 5.35775 15.3617 6.25658 15.6215 7.48181H13.0505C12.7261 6.99134 12.3149 6.59494 11.8464 6.33013C12.2508 5.73349 12.8392 5.35775 13.4944 5.35775ZM4.48878 6.02701C4.04108 6.28548 3.72421 6.79525 3.93276 7.15642L4.56163 8.2456C4.598 8.30861 4.67296 8.33798 4.75026 8.29333L15.3439 2.17712C15.4212 2.13244 15.4332 2.05287 15.3968 1.9899L14.768 0.900717C14.5576 0.536303 13.9596 0.559076 13.5119 0.817553L10.7679 2.40181C10.6612 2.20314 10.5272 1.90548 10.404 1.72955C10.2172 1.43533 9.82866 1.34185 9.52362 1.50568L7.09616 2.90693C6.77507 3.09232 6.66546 3.50431 6.85073 3.82517L7.2137 4.45384L4.48878 6.02701ZM7.75366 4.14205L7.39026 3.51263C7.37753 3.4906 7.38671 3.45912 7.40862 3.44642L9.81898 2.05494C9.83663 2.04548 9.86831 2.04572 9.87921 2.06525L10.2275 2.71376L7.75366 4.14205ZM6.32339 8.10681H16.1327L15.1769 18.5128C15.1318 19.0026 14.7157 19.375 14.2133 19.375H7.09249C6.59003 19.375 6.1739 19.0027 6.12886 18.5128L5.23101 8.73748L6.32339 8.10681ZM14.0245 10.3485H12.9404L12.4069 16.1563H13.491L14.0245 10.3485ZM11.2001 10.3485H10.1206L10.106 16.1563H11.1855L11.2001 10.3485ZM7.08769 10.3485L7.62112 16.1563H8.70523L8.17179 10.3485H7.08769ZM10.4755 6.58697C9.78562 6.58697 9.15581 6.92498 8.67601 7.48181H12.2749C11.7951 6.92498 11.1653 6.58697 10.4755 6.58697Z" fill="#3A6B22"/>
</svg>
