<svg width="20" height="20" viewBox="0 0 20 20" fill="none" xmlns="http://www.w3.org/2000/svg">
<path d="M8.33366 5.25008C7.16699 3.33342 5.83366 1.66675 5.83366 1.66675C5.83366 1.66675 1.66699 6.83342 1.66699 9.16675C1.66699 11.1667 3.08366 12.9167 5.00033 13.2501V12.6667C5.00033 10.6667 6.66699 7.66675 8.33366 5.25008ZM12.5003 2.50008C12.5003 2.50008 6.66699 9.58342 6.66699 12.6667C6.66699 15.7501 9.25033 18.3334 12.5003 18.3334C15.7503 18.3334 18.3337 15.8334 18.3337 12.6667C18.3337 9.50008 12.5003 2.50008 12.5003 2.50008ZM16.5837 13.5834C16.5837 13.8334 16.417 14.0834 16.3337 14.3334C16.167 14.5001 16.0837 14.7501 15.917 14.9167C15.7503 15.0834 15.5837 15.2501 15.417 15.3334C15.0837 15.5834 14.667 15.6667 14.417 15.7501C14.0837 15.8334 13.8337 15.7501 13.667 15.7501C13.5003 15.7501 13.417 15.6667 13.417 15.6667L14.0003 15.0834C16.0003 13.4167 15.667 10.7501 15.667 10.7501C15.667 10.7501 15.7503 10.8334 15.917 10.9167C16.0837 11.0834 16.2503 11.2501 16.417 11.5834C16.5837 11.9167 16.7503 12.3334 16.7503 12.7501C16.667 13.0834 16.667 13.3334 16.5837 13.5834Z" fill="#3A6B22"/>
</svg>
