<svg width="20" height="20" viewBox="0 0 20 20" fill="none" xmlns="http://www.w3.org/2000/svg">
<path fill-rule="evenodd" clip-rule="evenodd" d="M6.45833 4.58345C6.4584 4.50138 6.44223 4.42011 6.41077 4.34431C6.37931 4.26852 6.33316 4.19969 6.275 4.14179L4.60833 2.47512C4.55036 2.41707 4.48152 2.37101 4.40573 2.33959C4.32995 2.30817 4.24871 2.29199 4.16667 2.29199C4.08463 2.29199 4.00339 2.30817 3.9276 2.33959C3.85182 2.37101 3.78297 2.41707 3.725 2.47512L2.05833 4.14179C2.00017 4.19969 1.95403 4.26852 1.92256 4.34431C1.8911 4.42011 1.87494 4.50138 1.875 4.58345V17.0835C1.875 17.4285 2.155 17.7085 2.5 17.7085H5.83333C5.99909 17.7085 6.15806 17.6426 6.27528 17.5254C6.39249 17.4082 6.45833 17.2492 6.45833 17.0835V4.58345ZM12.2917 4.58345C12.2917 4.50138 12.2756 4.42011 12.2441 4.34431C12.2126 4.26852 12.1665 4.19969 12.1083 4.14179L10.4417 2.47512C10.3837 2.41707 10.3148 2.37101 10.2391 2.33959C10.1633 2.30817 10.082 2.29199 10 2.29199C9.91796 2.29199 9.83672 2.30817 9.76094 2.33959C9.68515 2.37101 9.6163 2.41707 9.55833 2.47512L7.89167 4.14179C7.8335 4.19969 7.78736 4.26852 7.7559 4.34431C7.72443 4.42011 7.70827 4.50138 7.70833 4.58345V17.0835C7.70833 17.4285 7.98833 17.7085 8.33333 17.7085H11.6667C11.8324 17.7085 11.9914 17.6426 12.1086 17.5254C12.2258 17.4082 12.2917 17.2492 12.2917 17.0835V4.58345ZM18.125 4.58345C18.1251 4.50138 18.1089 4.42011 18.0774 4.34431C18.046 4.26852 17.9998 4.19969 17.9417 4.14179L16.275 2.47512C16.217 2.41707 16.1482 2.37101 16.0724 2.33959C15.9966 2.30817 15.9154 2.29199 15.8333 2.29199C15.7513 2.29199 15.6701 2.30817 15.5943 2.33959C15.5185 2.37101 15.4496 2.41707 15.3917 2.47512L13.725 4.14179C13.6668 4.19969 13.6207 4.26852 13.5892 4.34431C13.5578 4.42011 13.5416 4.50138 13.5417 4.58345V17.0835C13.5417 17.4285 13.8217 17.7085 14.1667 17.7085H17.5C17.6658 17.7085 17.8247 17.6426 17.9419 17.5254C18.0592 17.4082 18.125 17.2492 18.125 17.0835V4.58345Z" fill="#3A6B22"/>
<path fill-rule="evenodd" clip-rule="evenodd" d="M18.3337 6.875H17.5003C17.3346 6.875 17.1756 6.94085 17.0584 7.05806C16.9412 7.17527 16.8753 7.33424 16.8753 7.5C16.8753 7.66576 16.9412 7.82473 17.0584 7.94194C17.1756 8.05915 17.3346 8.125 17.5003 8.125H18.3337C18.4994 8.125 18.6584 8.05915 18.7756 7.94194C18.8928 7.82473 18.9587 7.66576 18.9587 7.5C18.9587 7.33424 18.8928 7.17527 18.7756 7.05806C18.6584 6.94085 18.4994 6.875 18.3337 6.875ZM14.167 6.875H11.667C11.5012 6.875 11.3423 6.94085 11.2251 7.05806C11.1078 7.17527 11.042 7.33424 11.042 7.5C11.042 7.66576 11.1078 7.82473 11.2251 7.94194C11.3423 8.05915 11.5012 8.125 11.667 8.125H14.167C14.3328 8.125 14.4917 8.05915 14.6089 7.94194C14.7261 7.82473 14.792 7.66576 14.792 7.5C14.792 7.33424 14.7261 7.17527 14.6089 7.05806C14.4917 6.94085 14.3328 6.875 14.167 6.875ZM8.33366 6.875H5.83366C5.6679 6.875 5.50893 6.94085 5.39172 7.05806C5.27451 7.17527 5.20866 7.33424 5.20866 7.5C5.20866 7.66576 5.27451 7.82473 5.39172 7.94194C5.50893 8.05915 5.6679 8.125 5.83366 8.125H8.33366C8.49942 8.125 8.65839 8.05915 8.7756 7.94194C8.89281 7.82473 8.95866 7.66576 8.95866 7.5C8.95866 7.33424 8.89281 7.17527 8.7756 7.05806C8.65839 6.94085 8.49942 6.875 8.33366 6.875ZM2.50033 6.875H1.66699C1.50123 6.875 1.34226 6.94085 1.22505 7.05806C1.10784 7.17527 1.04199 7.33424 1.04199 7.5C1.04199 7.66576 1.10784 7.82473 1.22505 7.94194C1.34226 8.05915 1.50123 8.125 1.66699 8.125H2.50033C2.66609 8.125 2.82506 8.05915 2.94227 7.94194C3.05948 7.82473 3.12533 7.66576 3.12533 7.5C3.12533 7.33424 3.05948 7.17527 2.94227 7.05806C2.82506 6.94085 2.66609 6.875 2.50033 6.875ZM18.3337 12.7083H17.5003C17.3346 12.7083 17.1756 12.7742 17.0584 12.8914C16.9412 13.0086 16.8753 13.1676 16.8753 13.3333C16.8753 13.4991 16.9412 13.6581 17.0584 13.7753C17.1756 13.8925 17.3346 13.9583 17.5003 13.9583H18.3337C18.4994 13.9583 18.6584 13.8925 18.7756 13.7753C18.8928 13.6581 18.9587 13.4991 18.9587 13.3333C18.9587 13.1676 18.8928 13.0086 18.7756 12.8914C18.6584 12.7742 18.4994 12.7083 18.3337 12.7083ZM14.167 12.7083H11.667C11.5012 12.7083 11.3423 12.7742 11.2251 12.8914C11.1078 13.0086 11.042 13.1676 11.042 13.3333C11.042 13.4991 11.1078 13.6581 11.2251 13.7753C11.3423 13.8925 11.5012 13.9583 11.667 13.9583H14.167C14.3328 13.9583 14.4917 13.8925 14.6089 13.7753C14.7261 13.6581 14.792 13.4991 14.792 13.3333C14.792 13.1676 14.7261 13.0086 14.6089 12.8914C14.4917 12.7742 14.3328 12.7083 14.167 12.7083ZM8.33366 12.7083H5.83366C5.6679 12.7083 5.50893 12.7742 5.39172 12.8914C5.27451 13.0086 5.20866 13.1676 5.20866 13.3333C5.20866 13.4991 5.27451 13.6581 5.39172 13.7753C5.50893 13.8925 5.6679 13.9583 5.83366 13.9583H8.33366C8.49942 13.9583 8.65839 13.8925 8.7756 13.7753C8.89281 13.6581 8.95866 13.4991 8.95866 13.3333C8.95866 13.1676 8.89281 13.0086 8.7756 12.8914C8.65839 12.7742 8.49942 12.7083 8.33366 12.7083ZM2.50033 12.7083H1.66699C1.50123 12.7083 1.34226 12.7742 1.22505 12.8914C1.10784 13.0086 1.04199 13.1676 1.04199 13.3333C1.04199 13.4991 1.10784 13.6581 1.22505 13.7753C1.34226 13.8925 1.50123 13.9583 1.66699 13.9583H2.50033C2.66609 13.9583 2.82506 13.8925 2.94227 13.7753C3.05948 13.6581 3.12533 13.4991 3.12533 13.3333C3.12533 13.1676 3.05948 13.0086 2.94227 12.8914C2.82506 12.7742 2.66609 12.7083 2.50033 12.7083Z" fill="#3A6B22"/>
</svg>
