<svg width="21" height="20" viewBox="0 0 21 20" fill="none" xmlns="http://www.w3.org/2000/svg">
<path d="M10.2042 17.4251L10.1983 17.4226L10.18 17.4126C10.0727 17.3535 9.96634 17.293 9.86083 17.2309C8.59234 16.4771 7.4069 15.5917 6.32417 14.5892C4.40667 12.8001 2.375 10.1451 2.375 6.87506C2.375 4.43506 4.42833 2.50006 6.90667 2.50006C7.59563 2.49668 8.27648 2.64868 8.8986 2.94473C9.52072 3.24078 10.0681 3.67328 10.5 4.21006C10.932 3.67317 11.4795 3.24061 12.1018 2.94455C12.724 2.64849 13.4051 2.49656 14.0942 2.50006C16.5717 2.50006 18.625 4.43506 18.625 6.87506C18.625 10.1459 16.5933 12.8009 14.6758 14.5884C13.5931 15.5909 12.4077 16.4763 11.1392 17.2301C11.0337 17.2924 10.9273 17.3533 10.82 17.4126L10.8017 17.4226L10.7958 17.4259L10.7933 17.4267C10.703 17.4746 10.6023 17.4996 10.5 17.4996C10.3977 17.4996 10.297 17.4746 10.2067 17.4267L10.2042 17.4251Z" fill="#8D8D8D"/>
</svg>
