<svg width="20" height="20" viewBox="0 0 20 20" fill="none" xmlns="http://www.w3.org/2000/svg">
<path d="M14.1666 1.66675H5.83329C3.53329 1.66675 1.66663 3.52508 1.66663 5.81675V10.8001V11.6334C1.66663 13.9251 3.53329 15.7834 5.83329 15.7834H7.08329C7.30829 15.7834 7.60829 15.9334 7.74996 16.1167L8.99996 17.7751C9.54996 18.5084 10.45 18.5084 11 17.7751L12.25 16.1167C12.4083 15.9084 12.6583 15.7834 12.9166 15.7834H14.1666C16.4666 15.7834 18.3333 13.9251 18.3333 11.6334V5.81675C18.3333 3.52508 16.4666 1.66675 14.1666 1.66675ZM10.8333 11.4584H5.83329C5.49163 11.4584 5.20829 11.1751 5.20829 10.8334C5.20829 10.4917 5.49163 10.2084 5.83329 10.2084H10.8333C11.175 10.2084 11.4583 10.4917 11.4583 10.8334C11.4583 11.1751 11.175 11.4584 10.8333 11.4584ZM14.1666 7.29175H5.83329C5.49163 7.29175 5.20829 7.00841 5.20829 6.66675C5.20829 6.32508 5.49163 6.04175 5.83329 6.04175H14.1666C14.5083 6.04175 14.7916 6.32508 14.7916 6.66675C14.7916 7.00841 14.5083 7.29175 14.1666 7.29175Z" fill="#8FB366"/>
</svg>
