<svg width="25" height="24" viewBox="0 0 25 24" fill="none" xmlns="http://www.w3.org/2000/svg">
<path d="M12.0203 9.32031C8.13028 9.32031 4.71028 12.4703 4.38028 16.3503C4.25028 17.8503 4.73028 19.2703 5.72028 20.3403C6.70028 21.4103 8.08028 22.0003 9.58028 22.0003H14.2603C15.9503 22.0003 17.4303 21.3403 18.4403 20.1503C19.4503 18.9603 19.8503 17.3803 19.5803 15.7203C18.9903 12.1903 15.6003 9.32031 12.0203 9.32031Z" fill="#192215"/>
<path fill-rule="evenodd" clip-rule="evenodd" d="M10.7796 7.86C9.16141 7.86 7.84961 6.54819 7.84961 4.93C7.84961 3.31181 9.16141 2 10.7796 2C12.3978 2 13.7096 3.31181 13.7096 4.93C13.7096 6.54819 12.3978 7.86 10.7796 7.86Z" fill="#192215"/>
<path fill-rule="evenodd" clip-rule="evenodd" d="M17.44 9.02844C16.0924 9.02844 15 7.93601 15 6.58844C15 5.24086 16.0924 4.14844 17.44 4.14844C18.7876 4.14844 19.88 5.24086 19.88 6.58844C19.88 7.93601 18.7876 9.02844 17.44 9.02844Z" fill="#192215"/>
<path fill-rule="evenodd" clip-rule="evenodd" d="M21.0496 12.9313C19.9727 12.9313 19.0996 12.0582 19.0996 10.9812C19.0996 9.90429 19.9727 9.03125 21.0496 9.03125C22.1266 9.03125 22.9996 9.90429 22.9996 10.9812C22.9996 12.0582 22.1266 12.9313 21.0496 12.9313Z" fill="#192215"/>
<path fill-rule="evenodd" clip-rule="evenodd" d="M4.44 10.9816C3.09243 10.9816 2 9.88914 2 8.54156C2 7.19399 3.09243 6.10156 4.44 6.10156C5.78757 6.10156 6.88 7.19399 6.88 8.54156C6.88 9.88914 5.78757 10.9816 4.44 10.9816Z" fill="#192215"/>
</svg>
