<svg width="21" height="21" viewBox="0 0 21 21" fill="none" xmlns="http://www.w3.org/2000/svg">
<path d="M9.99616 18.0222L9.99032 18.0197L9.97199 18.0097C9.86473 17.9507 9.75833 17.8902 9.65283 17.8281C8.38434 17.0743 7.19889 16.1888 6.11616 15.1864C4.19866 13.3972 2.16699 10.7422 2.16699 7.47223C2.16699 5.03223 4.22033 3.09723 6.69866 3.09723C7.38762 3.09385 8.06848 3.24584 8.69059 3.5419C9.31271 3.83795 9.86008 4.27045 10.292 4.80723C10.724 4.27034 11.2715 3.83778 11.8938 3.54172C12.516 3.24566 13.1971 3.09373 13.8862 3.09723C16.3637 3.09723 18.417 5.03223 18.417 7.47223C18.417 10.7431 16.3853 13.3981 14.4678 15.1856C13.3851 16.188 12.1997 17.0735 10.9312 17.8272C10.8257 17.8896 10.7193 17.9504 10.612 18.0097L10.5937 18.0197L10.5878 18.0231L10.5853 18.0239C10.495 18.0718 10.3943 18.0968 10.292 18.0968C10.1897 18.0968 10.089 18.0718 9.99866 18.0239L9.99616 18.0222Z" fill="#FFBD00"/>
</svg>
