<svg width="16" height="16" viewBox="0 0 16 16" fill="none" xmlns="http://www.w3.org/2000/svg">
<path fill-rule="evenodd" clip-rule="evenodd" d="M8.31754 2.12247C8.2318 2.04383 8.11815 2 8 2C7.88185 2 7.76821 2.04383 7.68246 2.12247C6.37617 3.32255 4.63639 3.98064 2.83508 3.95603C2.73695 3.9548 2.64096 3.98386 2.56107 4.03899C2.48117 4.09412 2.42152 4.17246 2.39077 4.26262C2.13106 5.02829 1.99915 5.82911 2 6.63494C2 10.1723 4.50093 13.1435 7.88493 13.9859C7.96041 14.0047 8.0396 14.0047 8.11508 13.9859C11.4991 13.1435 14 10.1723 14 6.63494C14 5.80746 13.8628 5.00974 13.6092 4.26262C13.5786 4.17235 13.519 4.09388 13.4391 4.03864C13.3592 3.98339 13.2631 3.95424 13.1649 3.95544L13.0769 3.95603C11.2332 3.95603 9.55877 3.25952 8.31754 2.12247ZM10.2215 6.8945C10.2585 6.84691 10.2852 6.79265 10.3001 6.73493C10.3151 6.6772 10.3179 6.61717 10.3085 6.55836C10.2991 6.49955 10.2777 6.44315 10.2455 6.39247C10.2132 6.34179 10.1708 6.29786 10.1208 6.26326C10.0707 6.22866 10.014 6.20408 9.95404 6.19098C9.89404 6.17787 9.83193 6.1765 9.77137 6.18695C9.71081 6.19739 9.65303 6.21945 9.6014 6.25181C9.54978 6.28417 9.50537 6.32618 9.47077 6.37539L7.47939 9.07216L6.48 8.10537C6.39251 8.0265 6.27679 7.98357 6.15722 7.98561C6.03765 7.98765 5.92357 8.03451 5.83901 8.11631C5.75444 8.19811 5.706 8.30848 5.7039 8.42415C5.70179 8.53982 5.74617 8.65176 5.8277 8.7364L7.21231 10.0759C7.25969 10.1217 7.3168 10.1569 7.37969 10.1792C7.44257 10.2015 7.50972 10.2103 7.57647 10.205C7.64322 10.1997 7.70798 10.1804 7.76624 10.1484C7.8245 10.1164 7.87487 10.0726 7.91385 10.0199L10.2215 6.8945Z" fill="#3A6B22"/>
</svg>
