<svg width="32" height="32" viewBox="0 0 32 32" fill="none" xmlns="http://www.w3.org/2000/svg">
<path d="M24.5 16C20.3646 16 17 19.3646 17 23.5C17 27.6354 20.3646 31 24.5 31C28.6354 31 32 27.6354 32 23.5C32 19.3646 28.6354 16 24.5 16ZM28.9128 22.2878L24.2253 26.9753C24.1384 27.0625 24.0351 27.1317 23.9213 27.1788C23.8076 27.2259 23.6856 27.2501 23.5625 27.25C23.4394 27.2501 23.3174 27.226 23.2037 27.1788C23.0899 27.1317 22.9866 27.0625 22.8997 26.9753L20.0872 24.1628C19.721 23.7966 19.721 23.2033 20.0872 22.8371C20.4534 22.4709 21.0467 22.4709 21.4129 22.8371L23.5625 24.9868L27.5872 20.9621C27.9534 20.5959 28.5467 20.5959 28.9129 20.9621C29.2791 21.3283 29.2791 21.9216 28.9128 22.2878ZM25.4375 1H2.8125C1.26163 1 0 2.26163 0 3.8125V4.75H28.25V3.8125C28.25 2.26163 26.9884 1 25.4375 1ZM0 6.625H28.25V8.5H0V6.625Z" fill="#3A6B22"/>
<path d="M0 10.375V20.6875C0 22.2384 1.26163 23.5 2.8125 23.5H15.125C15.125 18.3309 19.3309 14.125 24.5 14.125C25.8346 14.125 27.0995 14.4146 28.25 14.9197V10.375H0ZM10.4375 19.75H4.6875C4.16931 19.75 3.75 19.3307 3.75 18.8125C3.75 18.2943 4.16931 17.875 4.6875 17.875H10.4375C10.9557 17.875 11.375 18.2943 11.375 18.8125C11.375 19.3307 10.9557 19.75 10.4375 19.75ZM10.4375 16H4.6875C4.16931 16 3.75 15.5807 3.75 15.0625C3.75 14.5443 4.16931 14.125 4.6875 14.125H10.4375C10.9557 14.125 11.375 14.5443 11.375 15.0625C11.375 15.5807 10.9557 16 10.4375 16Z" fill="#3A6B22"/>
</svg>
