<svg width="32" height="32" viewBox="0 0 32 32" fill="none" xmlns="http://www.w3.org/2000/svg">
<path d="M21.3333 2.99998C21.3333 2.07951 20.5871 1.33331 19.6667 1.33331C18.7462 1.33331 18 2.07951 18 2.99998V4.99998C18 5.92045 18.7462 6.66665 19.6667 6.66665C20.5871 6.66665 21.3333 5.92045 21.3333 4.99998V2.99998Z" fill="#3A6B22"/>
<path d="M22.6663 3.33331V4.99998C22.6663 5.79563 22.3503 6.55869 21.7877 7.1213C21.2251 7.68391 20.462 7.99998 19.6663 7.99998C18.8707 7.99998 18.1076 7.68391 17.545 7.1213C16.9824 6.55869 16.6663 5.79563 16.6663 4.99998V3.33331H10.6663V4.99998C10.6663 5.79563 10.3503 6.55869 9.78766 7.1213C9.22505 7.68391 8.46199 7.99998 7.66634 7.99998C6.87069 7.99998 6.10763 7.68391 5.54502 7.1213C4.98241 6.55869 4.66634 5.79563 4.66634 4.99998V3.33331C3.78229 3.33331 2.93444 3.6845 2.30932 4.30962C1.6842 4.93475 1.33301 5.78259 1.33301 6.66665V9.99998H25.9997V6.66665C25.9997 5.78259 25.6485 4.93475 25.0234 4.30962C24.3982 3.6845 23.5504 3.33331 22.6663 3.33331Z" fill="#3A6B22"/>
<path d="M9.33333 2.99998C9.33333 2.07951 8.58714 1.33331 7.66667 1.33331C6.74619 1.33331 6 2.07951 6 2.99998V4.99998C6 5.92045 6.74619 6.66665 7.66667 6.66665C8.58714 6.66665 9.33333 5.92045 9.33333 4.99998V2.99998Z" fill="#3A6B22"/>
<path d="M15.9997 24C15.9992 22.6793 16.326 21.3792 16.951 20.2158C17.576 19.0524 18.4796 18.062 19.581 17.3333H18.6663C18.3127 17.3333 17.9736 17.1928 17.7235 16.9428C17.4735 16.6927 17.333 16.3536 17.333 16V14.6666C17.333 14.313 17.4735 13.9739 17.7235 13.7238C17.9736 13.4738 18.3127 13.3333 18.6663 13.3333H19.9997C20.3533 13.3333 20.6924 13.4738 20.9425 13.7238C21.1925 13.9739 21.333 14.313 21.333 14.6666V16C21.3329 16.172 21.2991 16.3423 21.2337 16.5013C22.7588 15.9277 24.4248 15.844 25.9997 16.262V11.3333H1.33301V24C1.33301 24.4377 1.41923 24.8712 1.58674 25.2756C1.75426 25.68 1.99979 26.0475 2.30932 26.357C2.61885 26.6665 2.98631 26.9121 3.39073 27.0796C3.79515 27.2471 4.2286 27.3333 4.66634 27.3333H16.733C16.2501 26.2884 15.9999 25.1511 15.9997 24ZM9.33301 22.6666C9.33301 23.0203 9.19253 23.3594 8.94248 23.6095C8.69243 23.8595 8.3533 24 7.99967 24H6.66634C6.31272 24 5.97358 23.8595 5.72353 23.6095C5.47348 23.3594 5.33301 23.0203 5.33301 22.6666V21.3333C5.33301 20.9797 5.47348 20.6406 5.72353 20.3905C5.97358 20.1405 6.31272 20 6.66634 20H7.99967C8.3533 20 8.69243 20.1405 8.94248 20.3905C9.19253 20.6406 9.33301 20.9797 9.33301 21.3333V22.6666ZM9.33301 16C9.33301 16.3536 9.19253 16.6927 8.94248 16.9428C8.69243 17.1928 8.3533 17.3333 7.99967 17.3333H6.66634C6.31272 17.3333 5.97358 17.1928 5.72353 16.9428C5.47348 16.6927 5.33301 16.3536 5.33301 16V14.6666C5.33301 14.313 5.47348 13.9739 5.72353 13.7238C5.97358 13.4738 6.31272 13.3333 6.66634 13.3333H7.99967C8.3533 13.3333 8.69243 13.4738 8.94248 13.7238C9.19253 13.9739 9.33301 14.313 9.33301 14.6666V16ZM15.333 22.6666C15.333 23.0203 15.1925 23.3594 14.9425 23.6095C14.6924 23.8595 14.3533 24 13.9997 24H12.6663C12.3127 24 11.9736 23.8595 11.7235 23.6095C11.4735 23.3594 11.333 23.0203 11.333 22.6666V21.3333C11.333 20.9797 11.4735 20.6406 11.7235 20.3905C11.9736 20.1405 12.3127 20 12.6663 20H13.9997C14.3533 20 14.6924 20.1405 14.9425 20.3905C15.1925 20.6406 15.333 20.9797 15.333 21.3333V22.6666ZM15.333 16C15.333 16.3536 15.1925 16.6927 14.9425 16.9428C14.6924 17.1928 14.3533 17.3333 13.9997 17.3333H12.6663C12.3127 17.3333 11.9736 17.1928 11.7235 16.9428C11.4735 16.6927 11.333 16.3536 11.333 16V14.6666C11.333 14.313 11.4735 13.9739 11.7235 13.7238C11.9736 13.4738 12.3127 13.3333 12.6663 13.3333H13.9997C14.3533 13.3333 14.6924 13.4738 14.9425 13.7238C15.1925 13.9739 15.333 14.313 15.333 14.6666V16Z" fill="#3A6B22"/>
<path d="M23.9997 17.3333C22.6811 17.3333 21.3922 17.7243 20.2959 18.4568C19.1995 19.1894 18.3451 20.2306 17.8405 21.4488C17.3359 22.6669 17.2039 24.0074 17.4611 25.3006C17.7183 26.5938 18.3533 27.7817 19.2856 28.714C20.218 29.6464 21.4059 30.2813 22.6991 30.5385C23.9923 30.7958 25.3327 30.6638 26.5509 30.1592C27.7691 29.6546 28.8103 28.8001 29.5428 27.7038C30.2754 26.6075 30.6663 25.3185 30.6663 24C30.6663 23.1245 30.4939 22.2576 30.1589 21.4488C29.8238 20.6399 29.3328 19.905 28.7137 19.2859C28.0947 18.6669 27.3597 18.1758 26.5509 17.8408C25.7421 17.5058 24.8752 17.3333 23.9997 17.3333ZM26.471 26.4713C26.346 26.5963 26.1765 26.6665 25.9997 26.6665C25.8229 26.6665 25.6534 26.5963 25.5283 26.4713L23.5283 24.4713C23.4033 24.3463 23.333 24.1768 23.333 24V20C23.333 19.8232 23.4032 19.6536 23.5283 19.5286C23.6533 19.4036 23.8229 19.3333 23.9997 19.3333C24.1765 19.3333 24.3461 19.4036 24.4711 19.5286C24.5961 19.6536 24.6663 19.8232 24.6663 20V23.724L26.471 25.5286C26.596 25.6537 26.6662 25.8232 26.6662 26C26.6662 26.1768 26.596 26.3463 26.471 26.4713Z" fill="#3A6B22"/>
</svg>
