<svg width="32" height="32" viewBox="0 0 32 32" fill="none" xmlns="http://www.w3.org/2000/svg">
<path d="M5.33593 23.3075V25.8441H6.97655V23.3075C8.46159 23.0662 10.2578 22.0457 10.2578 18.4613C10.2578 15.0359 8.69729 10.2582 6.15624 10.2582C3.61519 10.2582 2 15.0359 2 18.4613C2 22.0457 3.85089 23.0662 5.33593 23.3075ZM25.8437 13.8072V11.7532C27.255 11.2947 28.3046 9.70265 28.3046 7.79723C28.3046 5.84817 27.1462 2.00037 25.0234 2.00037C22.9005 2.00037 21.7421 5.84817 21.7421 7.79723C21.7421 9.70259 22.7918 11.2947 24.2031 11.7532V13.5395H16V11.7533C17.4113 11.2948 18.4609 9.7027 18.4609 7.79728C18.4609 5.84823 17.3025 2.00042 15.1797 2.00042C13.0568 2.00042 11.8984 5.84823 11.8984 7.79728C11.8984 9.70265 12.948 11.2947 14.3594 11.7533V13.5395H11.0918C11.4467 14.6087 11.6819 15.7412 11.8021 16.8207H20.1015C21.0059 16.8207 21.7421 17.5569 21.7421 18.4613C21.7421 19.3657 21.0059 20.1019 20.1015 20.1019H18.4609C13.938 20.1019 10.2578 23.8368 10.2578 28.3597V30.0004H20.1015V28.3597C20.1015 26.5501 21.5731 25.0238 23.3828 25.0238H24.2031C27.369 25.0238 29.9999 22.4475 29.9999 19.2816C29.9999 16.6896 28.2072 14.5185 25.8437 13.8072Z" fill="#3A6B22"/>
</svg>
