<svg width="56" height="56" viewBox="0 0 56 56" fill="none" xmlns="http://www.w3.org/2000/svg">
<rect width="56" height="56" rx="10" fill="#F8F1D7"/>
<path d="M32 19V14.13C32.4877 14.2655 32.9328 14.5233 33.293 14.879L37.121 18.707C37.4771 19.067 37.7353 19.5121 37.871 20H33C32.7349 19.9997 32.4807 19.8943 32.2932 19.7068C32.1057 19.5193 32.0003 19.2651 32 19ZM38 22V39C37.9992 39.7954 37.6829 40.558 37.1204 41.1204C36.558 41.6829 35.7954 41.9992 35 42H21C20.2046 41.9992 19.442 41.6829 18.8796 41.1204C18.3171 40.558 18.0008 39.7954 18 39V17C18.0008 16.2046 18.3171 15.442 18.8796 14.8796C19.442 14.3171 20.2046 14.0008 21 14H30V19C30.0008 19.7954 30.3171 20.558 30.8796 21.1204C31.442 21.6829 32.2046 21.9992 33 22H38ZM23 33C23 32.8022 22.9414 32.6089 22.8315 32.4444C22.7216 32.28 22.5654 32.1518 22.3827 32.0761C22.2 32.0004 21.9989 31.9806 21.8049 32.0192C21.6109 32.0578 21.4327 32.153 21.2929 32.2929C21.153 32.4327 21.0578 32.6109 21.0192 32.8049C20.9806 32.9989 21.0004 33.2 21.0761 33.3827C21.1518 33.5654 21.28 33.7216 21.4444 33.8315C21.6089 33.9414 21.8022 34 22 34C22.2652 34 22.5196 33.8946 22.7071 33.7071C22.8946 33.5196 23 33.2652 23 33ZM23 29C23 28.8022 22.9414 28.6089 22.8315 28.4444C22.7216 28.28 22.5654 28.1518 22.3827 28.0761C22.2 28.0004 21.9989 27.9806 21.8049 28.0192C21.6109 28.0578 21.4327 28.153 21.2929 28.2929C21.153 28.4327 21.0578 28.6109 21.0192 28.8049C20.9806 28.9989 21.0004 29.2 21.0761 29.3827C21.1518 29.5654 21.28 29.7216 21.4444 29.8315C21.6089 29.9414 21.8022 30 22 30C22.2652 30 22.5196 29.8946 22.7071 29.7071C22.8946 29.5196 23 29.2652 23 29ZM23 25C23 24.8022 22.9414 24.6089 22.8315 24.4444C22.7216 24.28 22.5654 24.1518 22.3827 24.0761C22.2 24.0004 21.9989 23.9806 21.8049 24.0192C21.6109 24.0578 21.4327 24.153 21.2929 24.2929C21.153 24.4327 21.0578 24.6109 21.0192 24.8049C20.9806 24.9989 21.0004 25.2 21.0761 25.3827C21.1518 25.5654 21.28 25.7216 21.4444 25.8315C21.6089 25.9414 21.8022 26 22 26C22.2652 26 22.5196 25.8946 22.7071 25.7071C22.8946 25.5196 23 25.2652 23 25ZM35 33C35 32.7348 34.8946 32.4804 34.7071 32.2929C34.5196 32.1054 34.2652 32 34 32H25C24.7348 32 24.4804 32.1054 24.2929 32.2929C24.1054 32.4804 24 32.7348 24 33C24 33.2652 24.1054 33.5196 24.2929 33.7071C24.4804 33.8946 24.7348 34 25 34H34C34.2652 34 34.5196 33.8946 34.7071 33.7071C34.8946 33.5196 35 33.2652 35 33ZM35 29C35 28.7348 34.8946 28.4804 34.7071 28.2929C34.5196 28.1054 34.2652 28 34 28H25C24.7348 28 24.4804 28.1054 24.2929 28.2929C24.1054 28.4804 24 28.7348 24 29C24 29.2652 24.1054 29.5196 24.2929 29.7071C24.4804 29.8946 24.7348 30 25 30H34C34.2652 30 34.5196 29.8946 34.7071 29.7071C34.8946 29.5196 35 29.2652 35 29ZM35 25C35 24.7348 34.8946 24.4804 34.7071 24.2929C34.5196 24.1054 34.2652 24 34 24H25C24.7348 24 24.4804 24.1054 24.2929 24.2929C24.1054 24.4804 24 24.7348 24 25C24 25.2652 24.1054 25.5196 24.2929 25.7071C24.4804 25.8946 24.7348 26 25 26H34C34.2652 26 34.5196 25.8946 34.7071 25.7071C34.8946 25.5196 35 25.2652 35 25Z" fill="#3A6B22"/>
</svg>
