<svg width="32" height="32" viewBox="0 0 32 32" fill="none" xmlns="http://www.w3.org/2000/svg">
<path d="M20 7V2.13C20.4877 2.26552 20.9328 2.52333 21.293 2.879L25.121 6.707C25.4771 7.06701 25.7353 7.51211 25.871 8H21C20.7349 7.99974 20.4807 7.89429 20.2932 7.70681C20.1057 7.51934 20.0003 7.26514 20 7ZM26 10V27C25.9992 27.7954 25.6829 28.558 25.1204 29.1204C24.558 29.6829 23.7954 29.9992 23 30H9C8.20459 29.9992 7.44199 29.6829 6.87956 29.1204C6.31712 28.558 6.00079 27.7954 6 27V5C6.00079 4.20459 6.31712 3.44199 6.87956 2.87956C7.44199 2.31712 8.20459 2.00079 9 2H18V7C18.0008 7.79541 18.3171 8.55801 18.8796 9.12044C19.442 9.68288 20.2046 9.99921 21 10H26ZM11 21C11 20.8022 10.9414 20.6089 10.8315 20.4444C10.7216 20.28 10.5654 20.1518 10.3827 20.0761C10.2 20.0004 9.99889 19.9806 9.80491 20.0192C9.61093 20.0578 9.43275 20.153 9.29289 20.2929C9.15304 20.4327 9.0578 20.6109 9.01921 20.8049C8.98063 20.9989 9.00043 21.2 9.07612 21.3827C9.15181 21.5654 9.27998 21.7216 9.44443 21.8315C9.60888 21.9414 9.80222 22 10 22C10.2652 22 10.5196 21.8946 10.7071 21.7071C10.8946 21.5196 11 21.2652 11 21ZM11 17C11 16.8022 10.9414 16.6089 10.8315 16.4444C10.7216 16.28 10.5654 16.1518 10.3827 16.0761C10.2 16.0004 9.99889 15.9806 9.80491 16.0192C9.61093 16.0578 9.43275 16.153 9.29289 16.2929C9.15304 16.4327 9.0578 16.6109 9.01921 16.8049C8.98063 16.9989 9.00043 17.2 9.07612 17.3827C9.15181 17.5654 9.27998 17.7216 9.44443 17.8315C9.60888 17.9414 9.80222 18 10 18C10.2652 18 10.5196 17.8946 10.7071 17.7071C10.8946 17.5196 11 17.2652 11 17ZM11 13C11 12.8022 10.9414 12.6089 10.8315 12.4444C10.7216 12.28 10.5654 12.1518 10.3827 12.0761C10.2 12.0004 9.99889 11.9806 9.80491 12.0192C9.61093 12.0578 9.43275 12.153 9.29289 12.2929C9.15304 12.4327 9.0578 12.6109 9.01921 12.8049C8.98063 12.9989 9.00043 13.2 9.07612 13.3827C9.15181 13.5654 9.27998 13.7216 9.44443 13.8315C9.60888 13.9414 9.80222 14 10 14C10.2652 14 10.5196 13.8946 10.7071 13.7071C10.8946 13.5196 11 13.2652 11 13ZM23 21C23 20.7348 22.8946 20.4804 22.7071 20.2929C22.5196 20.1054 22.2652 20 22 20H13C12.7348 20 12.4804 20.1054 12.2929 20.2929C12.1054 20.4804 12 20.7348 12 21C12 21.2652 12.1054 21.5196 12.2929 21.7071C12.4804 21.8946 12.7348 22 13 22H22C22.2652 22 22.5196 21.8946 22.7071 21.7071C22.8946 21.5196 23 21.2652 23 21ZM23 17C23 16.7348 22.8946 16.4804 22.7071 16.2929C22.5196 16.1054 22.2652 16 22 16H13C12.7348 16 12.4804 16.1054 12.2929 16.2929C12.1054 16.4804 12 16.7348 12 17C12 17.2652 12.1054 17.5196 12.2929 17.7071C12.4804 17.8946 12.7348 18 13 18H22C22.2652 18 22.5196 17.8946 22.7071 17.7071C22.8946 17.5196 23 17.2652 23 17ZM23 13C23 12.7348 22.8946 12.4804 22.7071 12.2929C22.5196 12.1054 22.2652 12 22 12H13C12.7348 12 12.4804 12.1054 12.2929 12.2929C12.1054 12.4804 12 12.7348 12 13C12 13.2652 12.1054 13.5196 12.2929 13.7071C12.4804 13.8946 12.7348 14 13 14H22C22.2652 14 22.5196 13.8946 22.7071 13.7071C22.8946 13.5196 23 13.2652 23 13Z" fill="#3A6B22"/>
</svg>
