<svg width="32" height="32" viewBox="0 0 32 32" fill="none" xmlns="http://www.w3.org/2000/svg">
<path d="M30.6665 9.1733C29.6483 7.4683 28.2178 5.84618 27.2518 4.99499C25.1275 3.12268 23.3509 3.17156 22.4811 3.36724C22.1312 3.44599 21.8092 3.57406 21.5226 3.74287C20.0218 2.64674 18.1999 2.10968 16 2.10968C13.8 2.10968 11.9781 2.64674 10.4773 3.74287C10.1906 3.57406 9.86864 3.44599 9.51883 3.36724C8.64902 3.17156 6.87245 3.12262 4.7482 4.99493C3.78208 5.84618 2.35152 7.46831 1.33345 9.17337C-0.0546707 11.4981 -0.360858 13.3841 0.423517 14.7792C1.3482 16.4236 2.77383 16.8826 3.91189 17.0075C3.63977 18.0825 3.47289 19.2359 3.47289 20.6654C3.47289 22.6116 3.91889 24.287 4.79852 25.6449C5.57183 26.8389 6.6842 27.7945 8.10489 28.4852C10.3214 29.563 12.9163 29.833 14.9568 29.8903V23.3838C13.6931 22.7879 12.4623 21.2961 12.4623 20.1073C12.4623 18.1049 14.677 18.1049 16.0001 18.1049C17.3232 18.1049 19.5378 18.1049 19.5378 20.1073C19.5378 21.2962 18.307 22.7879 17.0433 23.3838V29.8902C19.0839 29.8329 21.6789 29.5629 23.8953 28.4852C25.3159 27.7944 26.4283 26.8388 27.2016 25.6449C28.0812 24.2869 28.5273 22.6115 28.5273 20.6653C28.5273 19.2357 28.3605 18.0824 28.0883 17.0074C29.2263 16.8826 30.652 16.4234 31.5766 14.7791C32.3608 13.3841 32.0546 11.4981 30.6665 9.1733ZM12.7545 15.0734C12.0489 15.0734 11.4746 14.4959 11.4746 13.7835C11.4746 13.071 12.0488 12.4939 12.7545 12.4939C13.4609 12.4939 14.035 13.071 14.035 13.7835C14.0351 14.4959 13.461 15.0734 12.7545 15.0734ZM19.2358 15.0831C18.5234 15.0831 17.9455 14.5013 17.9455 13.7836C17.9455 13.0658 18.5234 12.484 19.2358 12.484C19.9474 12.484 20.5252 13.0658 20.5252 13.7836C20.5252 14.5013 19.9473 15.0831 19.2358 15.0831Z" fill="#3A6B22"/>
</svg>
