<svg width="18" height="18" viewBox="0 0 18 18" fill="none" xmlns="http://www.w3.org/2000/svg">
<path d="M9 14.625C12.1066 14.625 14.625 12.1066 14.625 9C14.625 5.8934 12.1066 3.375 9 3.375C5.8934 3.375 3.375 5.8934 3.375 9C3.375 12.1066 5.8934 14.625 9 14.625Z" stroke="#3A6B22" stroke-width="1.5" stroke-linecap="round" stroke-linejoin="round"/>
<path d="M9 11.25C10.2426 11.25 11.25 10.2426 11.25 9C11.25 7.75736 10.2426 6.75 9 6.75C7.75736 6.75 6.75 7.75736 6.75 9C6.75 10.2426 7.75736 11.25 9 11.25Z" stroke="#3A6B22" stroke-width="1.5" stroke-linecap="round" stroke-linejoin="round"/>
<path d="M9 3V1.5" stroke="#3A6B22" stroke-width="1.5" stroke-linecap="round" stroke-linejoin="round"/>
<path d="M3 9H1.5" stroke="#3A6B22" stroke-width="1.5" stroke-linecap="round" stroke-linejoin="round"/>
<path d="M9 15V16.5" stroke="#3A6B22" stroke-width="1.5" stroke-linecap="round" stroke-linejoin="round"/>
<path d="M15 9H16.5" stroke="#3A6B22" stroke-width="1.5" stroke-linecap="round" stroke-linejoin="round"/>
</svg>
