<svg width="65" height="64" viewBox="0 0 65 64" fill="none" xmlns="http://www.w3.org/2000/svg">
<rect x="0.25" width="64" height="64" rx="24" fill="#F8F1D7"/>
<path d="M38.5838 18.6667C38.5838 18.1201 38.1305 17.6667 37.5838 17.6667C37.0371 17.6667 36.5838 18.1201 36.5838 18.6667V20.6667H27.9171V18.6667C27.9171 18.1201 27.4638 17.6667 26.9171 17.6667C26.3705 17.6667 25.9171 18.1201 25.9171 18.6667V20.7467C22.3171 21.0801 20.5705 23.2267 20.3038 26.4134C20.2771 26.8001 20.5971 27.1201 20.9705 27.1201H43.5305C43.9171 27.1201 44.2371 26.7867 44.1971 26.4134C43.9305 23.2267 42.1838 21.0801 38.5838 20.7467V18.6667Z" fill="#3A6B22"/>
<path fill-rule="evenodd" clip-rule="evenodd" d="M21.5833 29.1199C20.85 29.1199 20.25 29.7199 20.25 30.4532V38.6665C20.25 42.6665 22.25 45.3332 26.9167 45.3332H37.5833C42.25 45.3332 44.25 42.6665 44.25 38.6665V30.4532C44.25 29.7199 43.65 29.1199 42.9167 29.1199H21.5833ZM28.33 40.4399C28.25 40.4932 28.17 40.5332 28.09 40.5599C28.01 40.5999 27.93 40.6265 27.85 40.6399C27.7567 40.6532 27.6767 40.6665 27.5833 40.6665C27.41 40.6665 27.2367 40.6265 27.0767 40.5599C26.9033 40.4932 26.77 40.3999 26.6367 40.2799C26.3967 40.0265 26.25 39.6799 26.25 39.3332C26.25 38.9865 26.3967 38.6399 26.6367 38.3865C26.77 38.2665 26.9033 38.1732 27.0767 38.1065C27.3167 37.9999 27.5833 37.9732 27.85 38.0265C27.93 38.0399 28.01 38.0665 28.09 38.1065C28.17 38.1332 28.25 38.1732 28.33 38.2265C28.3967 38.2799 28.4633 38.3332 28.53 38.3865C28.77 38.6399 28.9167 38.9865 28.9167 39.3332C28.9167 39.6799 28.77 40.0265 28.53 40.2799C28.4633 40.3332 28.3967 40.3999 28.33 40.4399ZM27.5833 35.9999C27.2367 35.9999 26.89 35.8532 26.6367 35.6132C26.3967 35.3599 26.25 35.0132 26.25 34.6665C26.25 34.3199 26.3967 33.9732 26.6367 33.7199C27.01 33.3465 27.5967 33.2265 28.09 33.4399C28.2633 33.5065 28.41 33.5999 28.53 33.7199C28.77 33.9732 28.9167 34.3199 28.9167 34.6665C28.9167 35.0132 28.77 35.3599 28.53 35.6132C28.2767 35.8532 27.93 35.9999 27.5833 35.9999ZM32.25 40.6665C31.9033 40.6665 31.5567 40.5199 31.3033 40.2799C31.0633 40.0265 30.9167 39.6799 30.9167 39.3332C30.9167 38.9865 31.0633 38.6399 31.3033 38.3865C31.7967 37.8932 32.7033 37.8932 33.1967 38.3865C33.4367 38.6399 33.5833 38.9865 33.5833 39.3332C33.5833 39.6799 33.4367 40.0265 33.1967 40.2799C32.9433 40.5199 32.5967 40.6665 32.25 40.6665ZM32.9967 35.7732C32.9167 35.8265 32.8367 35.8665 32.7567 35.8932C32.6767 35.9332 32.5967 35.9599 32.5167 35.9732C32.4233 35.9865 32.3433 35.9999 32.25 35.9999C31.9033 35.9999 31.5567 35.8532 31.3033 35.6132C31.0633 35.3599 30.9167 35.0132 30.9167 34.6665C30.9167 34.3199 31.0633 33.9732 31.3033 33.7199C31.4233 33.5999 31.57 33.5065 31.7433 33.4399C32.2367 33.2265 32.8233 33.3465 33.1967 33.7199C33.4367 33.9732 33.5833 34.3199 33.5833 34.6665C33.5833 35.0132 33.4367 35.3599 33.1967 35.6132C33.13 35.6665 33.0633 35.7199 32.9967 35.7732ZM36.9167 40.6665C36.57 40.6665 36.2233 40.5199 35.97 40.2799C35.73 40.0265 35.5833 39.6799 35.5833 39.3332C35.5833 38.9865 35.73 38.6399 35.97 38.3865C36.4633 37.8932 37.37 37.8932 37.8633 38.3865C38.1033 38.6399 38.25 38.9865 38.25 39.3332C38.25 39.6799 38.1033 40.0265 37.8633 40.2799C37.61 40.5199 37.2633 40.6665 36.9167 40.6665ZM37.6633 35.7732C37.5833 35.8265 37.5033 35.8665 37.4233 35.8932C37.3433 35.9332 37.2633 35.9599 37.1833 35.9732C37.09 35.9865 36.9967 35.9999 36.9167 35.9999C36.57 35.9999 36.2233 35.8532 35.97 35.6132C35.73 35.3599 35.5833 35.0132 35.5833 34.6665C35.5833 34.3199 35.73 33.9732 35.97 33.7199C36.1033 33.5999 36.2367 33.5065 36.41 33.4399C36.65 33.3332 36.9167 33.3065 37.1833 33.3599C37.2633 33.3732 37.3433 33.3999 37.4233 33.4399C37.5033 33.4665 37.5833 33.5065 37.6633 33.5599C37.73 33.6132 37.7967 33.6665 37.8633 33.7199C38.1033 33.9732 38.25 34.3199 38.25 34.6665C38.25 35.0132 38.1033 35.3599 37.8633 35.6132C37.7967 35.6665 37.73 35.7199 37.6633 35.7732Z" fill="#3A6B22"/>
</svg>
