<svg width="64" height="64" viewBox="0 0 64 64" fill="none" xmlns="http://www.w3.org/2000/svg">
<rect width="64" height="64" rx="24" fill="#F8F1D7"/>
<path d="M33.8667 37.227C34.7333 37.227 35.4533 36.4537 35.4533 35.5203C35.4533 34.3603 35.04 34.1337 34.36 33.8937L33.0133 33.427V37.227H33H33.8667Z" fill="#3A6B22"/>
<path fill-rule="evenodd" clip-rule="evenodd" d="M18.6666 31.9046C18.6933 39.2646 24.6799 45.2246 32.0399 45.1979C39.3999 45.1713 45.3599 39.1846 45.3333 31.8246C45.3066 24.4646 39.3199 18.5179 31.9599 18.5313C24.5999 18.5579 18.6399 24.5446 18.6666 31.9046ZM37.4533 35.5179C37.4533 37.5713 35.8399 39.2246 33.8666 39.2246H32.9999V39.9979C32.9999 40.5446 32.5466 40.9979 31.9999 40.9979C31.4533 40.9979 30.9999 40.5446 30.9999 39.9979V39.2246H30.5199C28.3333 39.2246 26.5599 37.3846 26.5599 35.1179C26.5599 34.5713 27.0133 34.1179 27.5599 34.1179C28.1066 34.1179 28.5599 34.5713 28.5599 35.1179C28.5599 36.2779 29.4399 37.2246 30.5199 37.2246H30.9999V32.7179L28.9866 31.9979C27.9466 31.6379 26.5466 30.8646 26.5466 28.4779C26.5466 26.4246 28.1599 24.7713 30.1333 24.7713H30.9999V23.9979C30.9999 23.4513 31.4533 22.9979 31.9999 22.9979C32.5466 22.9979 32.9999 23.4513 32.9999 23.9979V24.7713H33.4799C35.6666 24.7713 37.4399 26.6113 37.4399 28.8779C37.4399 29.4246 36.9866 29.8779 36.4399 29.8779C35.8933 29.8779 35.4399 29.4246 35.4399 28.8779C35.4399 27.7179 34.5599 26.7713 33.4799 26.7713H32.9999V31.2779L35.0133 31.9979C36.0533 32.3579 37.4533 33.1313 37.4533 35.5179Z" fill="#3A6B22"/>
<path d="M29.6558 30.1174L31.0025 30.5841V26.7708H30.1358C29.2692 26.7708 28.5625 27.5441 28.5625 28.4908C28.5625 29.6508 28.9758 29.8774 29.6558 30.1174Z" fill="#3A6B22"/>
</svg>
