<svg width="65" height="64" viewBox="0 0 65 64" fill="none" xmlns="http://www.w3.org/2000/svg">
<rect x="0.5" width="64" height="64" rx="24" fill="#F8F1D7"/>
<path d="M26.4998 24C26.4998 22.4087 27.1319 20.8826 28.2572 19.7574C29.3824 18.6321 30.9085 18 32.4998 18C34.0911 18 35.6172 18.6321 36.7424 19.7574C37.8677 20.8826 38.4998 22.4087 38.4998 24C38.4998 25.5913 37.8677 27.1174 36.7424 28.2426C35.6172 29.3679 34.0911 30 32.4998 30C30.9085 30 29.3824 29.3679 28.2572 28.2426C27.1319 27.1174 26.4998 25.5913 26.4998 24ZM21.5011 42.8067C21.5461 39.9193 22.7247 37.1654 24.7824 35.1394C26.8402 33.1135 29.6121 31.9779 32.4998 31.9779C35.3875 31.9779 38.1594 33.1135 40.2172 35.1394C42.2749 37.1654 43.4535 39.9193 43.4985 42.8067C43.5019 43.001 43.4487 43.1922 43.3452 43.3568C43.2417 43.5214 43.0925 43.6522 42.9158 43.7333C39.648 45.2316 36.0947 46.0049 32.4998 46C28.7851 46 25.2558 45.1893 22.0838 43.7333C21.9071 43.6522 21.7579 43.5214 21.6544 43.3568C21.5509 43.1922 21.4977 43.001 21.5011 42.8067Z" fill="#3A6B22"/>
</svg>
