<svg preserveAspectRatio="none" width="100%" height="100%" overflow="visible" style="display: block;" viewBox="0 0 24 24" fill="none" xmlns="http://www.w3.org/2000/svg">
<g id="Frame">
<path id="Vector" fill-rule="evenodd" clip-rule="evenodd" d="M21.0002 12C21.0002 12.2984 20.8816 12.5845 20.6707 12.7955C20.4597 13.0065 20.1735 13.125 19.8752 13.125H6.84017L11.6702 17.955C11.7807 18.058 11.8694 18.1822 11.9308 18.3202C11.9923 18.4582 12.0254 18.6072 12.0281 18.7582C12.0307 18.9093 12.0029 19.0593 11.9464 19.1994C11.8898 19.3395 11.8056 19.4667 11.6987 19.5736C11.5919 19.6804 11.4646 19.7646 11.3246 19.8212C11.1845 19.8778 11.0344 19.9056 10.8834 19.9029C10.7323 19.9002 10.5834 19.8672 10.4454 19.8057C10.3074 19.7442 10.1832 19.6555 10.0802 19.545L3.33017 12.795C3.11949 12.5841 3.00116 12.2981 3.00116 12C3.00116 11.7019 3.11949 11.4159 3.33017 11.205L10.0802 4.455C10.2934 4.25628 10.5755 4.1481 10.867 4.15324C11.1584 4.15838 11.4365 4.27645 11.6426 4.48257C11.8487 4.68869 11.9668 4.96677 11.9719 5.25822C11.9771 5.54967 11.8689 5.83174 11.6702 6.045L6.84017 10.875H19.8752C20.1735 10.875 20.4597 10.9935 20.6707 11.2045C20.8816 11.4155 21.0002 11.7016 21.0002 12Z" fill="var(--fill-0, #192215)"/>
</g>
</svg>
