<svg preserveAspectRatio="none" width="100%" height="100%" overflow="visible" style="display: block;" viewBox="0 0 20 20" fill="none" xmlns="http://www.w3.org/2000/svg">
<g id="search-normal">
<path id="Vector" d="M9.58366 17.4998C13.9559 17.4998 17.5003 13.9554 17.5003 9.58317C17.5003 5.21092 13.9559 1.6665 9.58366 1.6665C5.2114 1.6665 1.66699 5.21092 1.66699 9.58317C1.66699 13.9554 5.2114 17.4998 9.58366 17.4998Z" fill="var(--fill-0, #192215)"/>
<path id="Vector_2" d="M17.7501 18.3335C17.6001 18.3335 17.4501 18.2751 17.3418 18.1668L15.7918 16.6168C15.5668 16.3918 15.5668 16.0251 15.7918 15.7918C16.0168 15.5668 16.3835 15.5668 16.6168 15.7918L18.1668 17.3418C18.3918 17.5668 18.3918 17.9335 18.1668 18.1668C18.0501 18.2751 17.9001 18.3335 17.7501 18.3335Z" fill="var(--fill-0, #192215)"/>
<g id="Vector_3" opacity="0">
</g>
</g>
</svg>
