<svg preserveAspectRatio="none" width="100%" height="100%" overflow="visible" style="display: block;" viewBox="0 0 22 22" fill="none" xmlns="http://www.w3.org/2000/svg">
<g id="Frame">
<path id="Vector" d="M1.375 7.9475V15.8125C1.375 16.5418 1.66473 17.2413 2.18046 17.757C2.69618 18.2728 3.39565 18.5625 4.125 18.5625H17.875C18.6043 18.5625 19.3038 18.2728 19.8195 17.757C20.3353 17.2413 20.625 16.5418 20.625 15.8125V7.9475L12.441 12.9828C12.0076 13.2494 11.5088 13.3905 11 13.3905C10.4912 13.3905 9.99236 13.2494 9.559 12.9828L1.375 7.9475Z" fill="var(--fill-0, #3A6B22)"/>
<path id="Vector_2" d="M20.625 6.33233V6.1875C20.625 5.45815 20.3353 4.75868 19.8195 4.24296C19.3038 3.72723 18.6043 3.4375 17.875 3.4375H4.125C3.39565 3.4375 2.69618 3.72723 2.18046 4.24296C1.66473 4.75868 1.375 5.45815 1.375 6.1875V6.33233L10.2795 11.8122C10.4962 11.9455 10.7456 12.0161 11 12.0161C11.2544 12.0161 11.5038 11.9455 11.7205 11.8122L20.625 6.33233Z" fill="var(--fill-0, #3A6B22)"/>
</g>
</svg>
