<svg width="270" height="270" viewBox="0 0 270 270" fill="none" xmlns="http://www.w3.org/2000/svg">
<path d="M170.437 201.723L158.133 255.13L163.335 255.12L175.661 202.223L170.437 201.723Z" fill="#E0E0E0"/>
<path d="M192.877 201.723L205.219 255.13H210.163L198.219 201.723H192.877Z" fill="#E0E0E0"/>
<path d="M162.131 161.604L169.136 198.377H177.098L169.614 161.604H162.131Z" fill="#E0E0E0"/>
<path d="M40.1333 201.723L30.0996 255.13H35.2106L45.6909 201.723H40.1333Z" fill="#E0E0E0"/>
<path d="M61.2344 201.723L72.7045 254.84H77.751L66.6736 201.723H61.2344Z" fill="#E0E0E0"/>
<path d="M31.832 161.604L38.8368 198.377H46.7938L39.3156 161.604H31.832Z" fill="#E0E0E0"/>
<path d="M16.0742 158.264L17.5053 164.946H177.334L175.467 158.264H16.0742Z" fill="#EBEBEB"/>
<path d="M19.125 171.246L20.8143 177.933H179.562L178.12 171.246H19.125Z" fill="#EBEBEB"/>
<path d="M22.2832 184.685L23.8542 191.372H182.107L180.611 184.685H22.2832Z" fill="#EBEBEB"/>
<path d="M205.031 198.377H34.377V205.064H205.031V198.377Z" fill="#EBEBEB"/>
<path d="M215.79 168.007C204.82 165.145 195.239 157.935 189.907 148.531C187.27 143.867 185.663 138.693 185.195 133.356C184.726 128.018 185.406 122.643 187.19 117.591C190.02 109.72 195.465 102.796 197.799 94.785C200.452 85.6928 198.875 76.0519 197.261 66.7552C195.647 57.4586 193.953 47.8391 196.438 38.7093C198.924 29.5794 206.719 21.0037 216.791 20.3527C226.125 19.7502 234.749 26.2115 238.644 34.1739C242.54 42.1363 242.566 51.2339 241.657 59.9334C240.748 68.6328 238.967 77.3162 239.505 86.0425C240.635 103.7 251.228 120.324 249.98 137.981C249.334 147.175 245.525 153.045 239.005 159.969C233.383 165.93 224.043 169.852 215.769 168.039" fill="#F4F7F0"/>
<path d="M219.094 255.518C218.997 255.518 218.922 216.394 218.922 168.141C218.922 119.888 218.997 80.7593 219.094 80.7593C219.191 80.7593 219.272 119.877 219.272 168.141C219.272 216.405 219.191 255.518 219.094 255.518Z" fill="#E0E0E0"/>
<path d="M218.583 137.47C218.007 137.042 217.467 136.567 216.969 136.05C216.006 135.14 214.699 133.854 213.327 132.386C211.955 130.917 210.68 129.615 209.765 128.663C209.245 128.178 208.767 127.65 208.334 127.086C208.909 127.518 209.448 127.995 209.948 128.512C210.911 129.421 212.213 130.702 213.59 132.176C214.968 133.65 216.232 134.941 217.146 135.893C217.666 136.38 218.147 136.907 218.583 137.47Z" fill="#E0E0E0"/>
<path d="M219.632 100.886C220.895 100.585 222.101 100.084 223.205 99.4011C224.348 98.6489 225.323 97.6669 226.067 96.5174C226.966 95.1525 227.502 93.5801 227.621 91.9498V91.7938L227.826 91.9659C226.172 92.2646 224.66 93.0959 223.522 94.3331C222.592 95.3062 221.786 96.3904 221.122 97.5611C220.552 98.551 220.143 99.3796 219.874 99.9552C219.747 100.26 219.598 100.555 219.428 100.838C219.502 100.517 219.609 100.206 219.745 99.9068C220.082 99.0659 220.47 98.2466 220.907 97.4535C221.549 96.248 222.349 95.1335 223.285 94.1394C224.461 92.8328 226.041 91.9577 227.772 91.6539L227.993 91.6162V91.8206V91.982C227.868 93.525 227.384 95.0174 226.58 96.3401C225.775 97.6628 224.673 98.7792 223.361 99.6001C222.541 100.116 221.643 100.498 220.703 100.73C220.448 100.794 220.189 100.842 219.928 100.875C219.831 100.896 219.731 100.9 219.632 100.886Z" fill="#E0E0E0"/>
<path d="M219.632 100.886C219.562 100.827 220.654 99.4657 222.08 97.8409C223.506 96.2161 224.727 94.9518 224.802 95.011C224.878 95.0702 223.785 96.426 222.354 98.0507C220.923 99.6755 219.713 100.929 219.632 100.886Z" fill="#E0E0E0"/>
<path d="M140.315 46.01C140.584 44.0893 137.867 42.5076 135.828 42.3408C134.854 42.2655 133.843 42.4107 132.923 42.0879C130.927 41.3939 130.125 38.8169 128.178 37.9938C126.725 37.3804 125.046 37.9238 123.631 38.634C122.217 39.3441 120.829 40.248 119.247 40.3448C117.875 40.4309 116.385 39.9198 115.185 40.5923C114.292 41.0926 113.824 42.1202 112.995 42.7443C112.138 43.2739 111.146 43.5448 110.138 43.5244C109.134 43.4992 108.135 43.6616 107.19 44.0032C106.276 44.4229 105.522 45.3859 105.711 46.3704L140.315 46.01Z" fill="#F5F5F5"/>
<path d="M167.898 73.448C168.285 70.6396 164.315 68.3208 161.334 68.068C159.908 67.9496 158.429 68.1702 157.084 67.7021C154.163 66.6799 152.995 62.9085 150.149 61.7088C147.997 60.8103 145.565 61.6066 143.499 62.6503C141.433 63.694 139.394 64.996 137.086 65.1412C135.08 65.2704 132.901 64.5279 131.168 65.5071C129.861 66.2388 129.172 67.7452 127.967 68.6329C126.762 69.5206 125.25 69.7089 123.787 69.768C122.324 69.8272 120.807 69.8649 119.483 70.4728C118.16 71.0808 117.046 72.4957 117.331 73.9322L167.898 73.448Z" fill="#EBEBEB"/>
<path d="M67.1092 70.5158C67.4427 68.0679 63.9888 66.0558 61.3956 65.846C60.1582 65.7437 58.8724 65.9374 57.6996 65.5285C55.1602 64.6408 54.1434 61.359 51.6686 60.3153C49.8125 59.5352 47.682 60.2292 45.8851 61.1331C44.0882 62.0369 42.3128 63.1721 40.306 63.2851C38.5575 63.3981 36.6638 62.7471 35.1358 63.6025C33.9953 64.2373 33.4035 65.5501 32.3544 66.3248C31.3053 67.0995 29.9872 67.2394 28.7121 67.3093C27.4371 67.3793 26.1243 67.3954 24.9461 67.9226C23.7679 68.4499 22.8264 69.6819 23.0685 70.9354L67.1092 70.5158Z" fill="#F5F5F5"/>
<path d="M257.696 255.131C257.696 255.211 202.82 255.27 135.172 255.27C67.5235 255.27 12.6367 255.211 12.6367 255.131C12.6367 255.05 67.5127 254.991 135.172 254.991C202.83 254.991 257.696 255.055 257.696 255.131Z" fill="#192215"/>
<path d="M148.288 231.157C149.434 231.686 150.328 232.642 150.779 233.82C151.193 234.953 151.332 236.169 151.183 237.366C150.962 239.658 149.644 241.95 148.208 243.752C146.131 242.014 145.593 239.06 145.421 237.549C145.146 235.16 146.169 230.754 148.288 231.157Z" fill="#3A6B22"/>
<path d="M150.661 247.545C150.505 246.895 150.535 246.214 150.748 245.58C150.961 244.946 151.349 244.385 151.866 243.962C152.971 243.106 154.368 242.719 155.756 242.886C156.082 242.888 156.404 242.958 156.702 243.09C157 243.223 157.268 243.415 157.488 243.655C157.652 243.896 157.745 244.178 157.756 244.469C157.768 244.76 157.697 245.048 157.553 245.301C157.252 245.801 156.818 246.207 156.299 246.474C154.562 247.485 152.668 248.153 150.661 247.55" fill="#3A6B22"/>
<path d="M148.219 254.528C148.221 254.37 148.241 254.213 148.278 254.06C148.337 253.732 148.407 253.301 148.493 252.79C148.691 251.378 149.127 250.01 149.784 248.745C150.484 247.473 151.524 246.421 152.786 245.705C153.18 245.491 153.597 245.325 154.029 245.21C154.147 245.175 154.268 245.148 154.39 245.129H154.519C153.942 245.305 153.385 245.54 152.856 245.829C151.633 246.557 150.626 247.599 149.94 248.847C149.294 250.093 148.847 251.433 148.617 252.817C148.509 253.355 148.418 253.78 148.348 254.076C148.321 254.231 148.278 254.383 148.219 254.528Z" fill="#192215"/>
<path d="M147.825 234.541C147.842 234.61 147.851 234.68 147.852 234.751C147.852 234.902 147.884 235.101 147.906 235.343C147.949 235.881 147.997 236.602 148.046 237.522C148.153 239.367 148.261 241.912 148.315 244.72C148.369 247.529 148.358 250.073 148.315 251.908C148.315 252.828 148.277 253.57 148.256 254.087C148.256 254.329 148.256 254.523 148.223 254.679C148.232 254.746 148.232 254.815 148.223 254.883C148.215 254.813 148.215 254.743 148.223 254.673C148.223 254.523 148.223 254.324 148.223 254.081C148.223 253.543 148.223 252.806 148.223 251.903C148.223 250.063 148.223 247.523 148.17 244.715C148.116 241.906 148.024 239.367 147.949 237.522C147.917 236.618 147.884 235.881 147.863 235.343C147.863 235.101 147.863 234.902 147.863 234.751C147.841 234.683 147.828 234.613 147.825 234.541Z" fill="#192215"/>
<path d="M147.175 248.911C146.867 247.478 146.233 246.135 145.321 244.987C144.409 243.839 143.245 242.918 141.918 242.294C141.23 241.966 140.337 241.756 139.766 242.213C139.196 242.67 139.363 243.547 139.653 244.225C140.319 245.651 141.37 246.863 142.687 247.725C144.005 248.586 145.537 249.062 147.11 249.099" fill="#3A6B22"/>
<path d="M142.3 244.43C142.45 244.481 142.596 244.544 142.736 244.618C142.904 244.695 143.067 244.781 143.226 244.876C143.414 244.989 143.635 245.102 143.855 245.258C144.076 245.414 144.334 245.581 144.581 245.796C144.829 246.011 145.087 246.221 145.351 246.463C145.908 247.004 146.404 247.605 146.83 248.255C147.241 248.899 147.575 249.589 147.826 250.31C147.931 250.62 148.017 250.936 148.084 251.257C148.152 251.535 148.201 251.817 148.229 252.102C148.26 252.332 148.276 252.563 148.278 252.796C148.292 252.975 148.292 253.155 148.278 253.334C148.281 253.482 148.268 253.629 148.24 253.775C148.197 253.775 148.24 253.14 148.111 252.118C148.072 251.841 148.018 251.566 147.949 251.295C147.877 250.979 147.785 250.668 147.675 250.364C147.422 249.656 147.09 248.979 146.685 248.346C146.267 247.709 145.784 247.118 145.243 246.582C144.99 246.34 144.743 246.103 144.495 245.909C144.248 245.716 144.011 245.538 143.796 245.371C142.898 244.742 142.279 244.462 142.3 244.43Z" fill="#192215"/>
<path d="M212.45 242.568V247.76C212.45 247.76 208.006 247.383 207.877 251.391H212.762L216.706 248.384L217.082 241.627L212.45 242.568Z" fill="#333D2F"/>
<path d="M198.951 238.356C198.951 238.356 198.951 241.223 196.579 245.398L194.884 247.851L196.907 252.914C196.907 252.914 200.049 253.086 200.296 255.13H195.207L191.527 249.245C192.339 247.684 192.626 245.903 192.345 244.166C191.972 241.855 191.396 239.581 190.623 237.371L194.206 236.198L198.951 238.356Z" fill="#333D2F"/>
<path d="M196.229 218.315C195.601 217.76 194.907 217.283 194.163 216.895C192.778 216.208 191.204 216.002 189.688 216.309C188.173 216.615 186.802 217.417 185.793 218.588C184.783 219.759 184.192 221.233 184.112 222.777C184.032 224.321 184.468 225.848 185.351 227.117L187.035 225.793C186.895 225.403 186.849 224.986 186.9 224.575C186.952 224.163 187.099 223.77 187.331 223.426C187.804 222.745 188.384 222.144 189.047 221.645C190.392 220.526 192.054 219.343 193.738 219.822C194.335 219.994 194.863 220.36 195.471 220.5C196.079 220.639 196.853 220.419 197.009 219.816C197.165 219.214 196.681 218.708 196.229 218.315Z" fill="#333D2F"/>
<path d="M185.84 226.509C186.672 225.45 187.888 224.762 189.224 224.594C190.543 224.415 191.874 224.332 193.205 224.346C195.868 224.411 209.657 226.186 209.657 226.186L216.942 224.341L222.946 219.838C222.946 219.838 228.751 216.222 231.414 216.497C233.139 216.719 234.794 217.324 236.256 218.267L237.687 220.042L243.605 222.162C243.605 222.162 242.992 224.481 242.034 225.164C241.076 225.847 239.511 226.186 237.87 226.595C236.229 227.004 232.888 226.939 231.387 229.124C229.886 231.308 226.335 234.993 226.335 234.993C226.335 234.993 223.742 241.067 221.079 242.229C218.416 243.391 214.322 244.758 210.905 243.843C207.489 242.929 195.615 237.629 195.341 237.559C195.067 237.49 192.543 235.784 190.902 238.313C189.262 240.841 187.9 243.569 182.832 245.479C182.832 245.479 180.853 246.436 180.578 248.142C180.304 249.847 179.282 255.104 179.282 255.104C179.282 255.104 177.167 254.151 177.033 252.306C176.898 250.461 177.646 250.396 177.646 250.396L178.184 243.639C179.55 243.192 180.728 242.302 181.53 241.11C182.456 239.877 183.242 238.545 183.876 237.14C183.642 235.098 183.523 233.045 183.521 230.991C183.629 229.608 184.823 227.795 185.84 226.509Z" fill="#192215"/>
<path d="M236.31 218.267C234.848 217.324 233.194 216.719 231.468 216.497C230.037 216.346 227.702 217.32 225.852 218.256L227.702 221.936C228.095 223.476 229.081 224.797 230.446 225.61C230.722 225.802 231.027 225.947 231.35 226.041C231.701 226.105 232.062 226.09 232.406 225.997C232.75 225.903 233.07 225.735 233.341 225.503C233.733 225.185 234.056 224.782 234.46 224.47C235.305 223.905 236.29 223.585 237.306 223.544C237.993 223.547 238.669 223.361 239.259 223.006C239.8 222.467 240.146 221.763 240.243 221.005L237.709 220.101L236.31 218.267Z" fill="#333D2F"/>
<path d="M215.172 237.07C215.172 237.07 217.48 243.488 220.116 245.608C222.752 247.728 227.82 255.109 227.82 255.109H234.4C234.4 255.109 233.184 252.828 230.919 252.392C230.919 252.392 227.928 251.058 227.465 249.342C227.002 247.625 223.29 234.547 223.29 234.547C223.29 234.547 218.766 230.781 217.006 233.325C215.247 235.87 215.172 237.07 215.172 237.07Z" fill="#192215"/>
<path d="M230.865 216.857C230.449 216.4 229.9 216.084 229.295 215.954C228.69 215.824 228.06 215.886 227.492 216.131C226.771 216.506 226.159 217.063 225.717 217.745C225.284 218.43 224.81 219.087 224.296 219.714C224.17 219.828 224.078 219.975 224.033 220.139C223.995 220.392 224.2 220.613 224.388 220.79C224.615 221.025 224.872 221.229 225.152 221.398C226.083 221.909 227.239 221.57 228.224 221.167C228.786 220.963 229.312 220.672 229.784 220.306C230.02 220.121 230.215 219.891 230.359 219.628C230.502 219.365 230.59 219.076 230.618 218.778C230.527 218.88 230.93 216.954 230.865 216.857Z" fill="#333D2F"/>
<path d="M237.117 220.171C237.085 220.171 236.983 220.101 236.789 220.048C236.671 220.008 236.545 220 236.423 220.022C236.3 220.045 236.186 220.098 236.09 220.177C235.891 220.37 235.719 220.589 235.579 220.828C235.444 221.011 235.347 221.113 235.315 221.097C235.283 221.081 235.315 220.941 235.406 220.731C235.507 220.436 235.681 220.171 235.912 219.962C236.064 219.836 236.253 219.766 236.45 219.762C236.602 219.756 236.753 219.791 236.886 219.865C237.09 219.994 237.15 220.155 237.117 220.171Z" fill="#192215"/>
<path d="M236.525 219.886C236.43 219.869 236.333 219.878 236.244 219.911C236.154 219.944 236.074 220 236.014 220.074C235.943 220.144 235.887 220.228 235.851 220.321C235.815 220.414 235.799 220.513 235.804 220.612C235.794 220.677 235.803 220.742 235.831 220.801C235.872 220.894 235.935 220.977 236.014 221.043C236.07 221.094 236.139 221.131 236.213 221.15C236.296 221.163 236.381 221.149 236.456 221.112C236.531 221.074 236.592 221.014 236.632 220.941C236.713 220.794 236.757 220.629 236.761 220.462C236.778 220.257 236.74 219.967 236.525 219.886Z" fill="#7F8F79"/>
<path d="M242.836 221.855C242.724 221.837 242.608 221.845 242.499 221.879C242.39 221.912 242.29 221.97 242.207 222.049C242.126 222.129 242.065 222.226 242.029 222.334C241.993 222.441 241.982 222.555 241.997 222.668C241.997 222.691 242.003 222.714 242.014 222.735C242.025 222.756 242.042 222.773 242.062 222.786C242.131 222.824 242.201 222.754 242.266 222.711C242.315 222.682 242.371 222.667 242.427 222.667C242.484 222.667 242.54 222.682 242.589 222.711C242.659 222.743 242.718 222.834 242.68 222.904C242.643 222.974 242.605 222.964 242.562 222.996C242.505 223.045 242.467 223.112 242.455 223.185C242.442 223.259 242.455 223.334 242.492 223.399C242.571 223.528 242.68 223.635 242.809 223.711C242.896 223.789 243.01 223.83 243.127 223.824C243.277 223.798 243.358 223.636 243.412 223.491L243.869 222.307C243.874 222.286 243.874 222.264 243.869 222.243C243.863 222.221 243.853 222.201 243.839 222.183C243.825 222.166 243.808 222.151 243.789 222.14C243.488 221.93 243.128 221.823 242.761 221.834" fill="#333D2F"/>
<path d="M229.784 220.322C229.368 220.758 228.85 221.083 228.277 221.269C227.685 221.55 227.051 221.732 226.4 221.807C225.999 221.836 225.597 221.77 225.227 221.613C224.851 221.419 224.511 221.162 224.221 220.855C224.033 220.696 223.915 220.47 223.893 220.225C223.919 219.992 224.035 219.778 224.215 219.628C224.464 219.336 224.694 219.028 224.904 218.708C225.254 218.168 225.634 217.649 226.045 217.153C226.33 216.816 226.668 216.528 227.045 216.298C227.177 216.201 227.33 216.138 227.492 216.115C227.002 216.433 226.565 216.825 226.195 217.277C225.856 217.696 225.517 218.245 225.119 218.853C224.907 219.179 224.674 219.49 224.42 219.784C224.285 219.929 224.162 220.069 224.172 220.198C224.196 220.368 224.285 220.522 224.42 220.629C224.686 220.913 224.997 221.153 225.34 221.339C225.669 221.481 226.026 221.543 226.384 221.522C227.009 221.466 227.623 221.313 228.202 221.07C228.604 220.921 228.995 220.741 229.369 220.532C229.501 220.45 229.64 220.38 229.784 220.322Z" fill="#192215"/>
<path d="M217.975 223.604C218.636 224.524 218.384 225.869 217.679 226.762C216.91 227.604 215.943 228.24 214.865 228.613C213.79 228.98 212.774 229.5 211.847 230.157C210.233 231.464 209.447 233.75 207.543 234.52C206.566 234.864 205.501 234.864 204.525 234.52C203.558 234.171 202.634 233.714 201.77 233.159C200.404 232.346 198.87 231.27 198.811 229.683C197.305 229.683 195.712 229.489 194.507 228.569C193.302 227.65 193.275 225.487 194.244 224.33L209.792 226.111L216.942 224.341L217.975 223.604Z" fill="#333D2F"/>
<path d="M224.168 229.522C222.925 228.112 218.045 223.528 218.045 223.528L216.969 224.341L209.975 226.116L208.797 226.073L211.928 244.058C212.393 244.286 212.904 244.404 213.421 244.404C213.938 244.404 214.449 244.286 214.914 244.058L211.562 228.677L211.024 226.342L217.055 224.927C217.055 224.927 223.038 230.226 224.141 232.943C224.683 234.193 225.135 235.48 225.491 236.795L226.357 234.993C226.357 234.993 225.405 230.926 224.168 229.522Z" fill="#8FB366"/>
<path d="M219.137 244.597C218.835 244.313 218.575 243.989 218.362 243.634C217.792 242.816 217.277 241.963 216.818 241.078C216.354 240.197 215.946 239.288 215.597 238.356C215.428 237.977 215.311 237.577 215.247 237.167C215.328 237.14 215.99 238.899 217.066 240.933C218.142 242.966 219.201 244.532 219.137 244.597Z" fill="#333D2F"/>
<path d="M215.93 236.844C215.636 236.461 215.444 236.011 215.37 235.534C215.297 235.057 215.345 234.569 215.511 234.116C215.592 234.116 215.511 234.751 215.645 235.493C215.78 236.236 216.006 236.806 215.93 236.844Z" fill="#192215"/>
<path d="M216.759 237.495C216.694 237.533 216.425 237.172 216.221 236.661C216.016 236.15 216.016 235.703 216.086 235.693C216.156 235.682 216.307 236.08 216.484 236.57C216.662 237.059 216.828 237.457 216.759 237.495Z" fill="#333D2F"/>
<path d="M193.845 234.713C193.759 234.713 193.845 233.842 193.619 232.825C193.393 231.808 192.963 231.06 193.033 231.017C193.457 231.522 193.752 232.122 193.894 232.765C194.035 233.409 194.019 234.078 193.845 234.713Z" fill="#333D2F"/>
<path d="M193.055 235.8C192.985 235.757 193.2 235.332 193.249 234.767C193.297 234.202 193.173 233.75 193.249 233.724C193.324 233.697 193.582 234.154 193.523 234.8C193.464 235.445 193.109 235.849 193.055 235.8Z" fill="#333D2F"/>
<path d="M198.531 220.085C198.483 220.085 198.531 219.849 198.456 219.494C198.394 219.033 198.23 218.592 197.977 218.202C197.72 217.816 197.382 217.489 196.987 217.245C196.681 217.062 196.449 216.986 196.449 216.943C196.449 216.9 196.702 216.917 197.057 217.073C197.517 217.288 197.908 217.627 198.186 218.051C198.465 218.476 198.62 218.97 198.633 219.477C198.665 219.686 198.629 219.899 198.531 220.085Z" fill="#192215"/>
<path d="M200.13 219.203C199.987 218.672 199.793 218.157 199.549 217.664C199.233 217.216 198.872 216.802 198.473 216.427C199.026 216.628 199.494 217.014 199.797 217.52C200.099 218.025 200.219 218.62 200.135 219.203H200.13Z" fill="#192215"/>
<path d="M76.7823 54.3651C76.4146 53.7709 76.1766 53.1057 76.0839 52.4131C75.9912 51.7206 76.0458 51.0162 76.2443 50.3462C76.8744 48.6738 77.9096 47.1839 79.2571 46.0099C78.9343 46.3112 79.3754 45.9239 79.2571 46.0099C79.4179 45.6753 79.551 45.328 79.6552 44.9716C80.091 44.0947 80.403 43.8472 80.7312 43.7503C81.1498 43.5941 81.5848 43.4858 82.0278 43.4275C82.7842 43.4387 83.521 43.6706 84.1475 44.0947C84.2593 43.7055 84.4703 43.3521 84.7598 43.0692C85.0494 42.7862 85.4076 42.5834 85.7992 42.4807C86.1898 42.3854 86.596 42.3731 86.9917 42.4445C87.3873 42.5158 87.7637 42.6693 88.0964 42.8949C88.1635 42.9492 88.2469 42.9795 88.3331 42.981C88.43 42.981 88.4945 42.8842 88.5591 42.8088C88.7875 42.5158 89.0917 42.2908 89.4387 42.158C89.7858 42.0253 90.1625 41.9899 90.5282 42.0556C90.8875 42.1371 91.2057 42.3448 91.4249 42.641C91.6441 42.9372 91.7497 43.3022 91.7225 43.6696C92.0041 43.4493 92.3458 43.3193 92.7026 43.2969C93.0595 43.2745 93.4148 43.3607 93.7217 43.5441C94.0286 43.7276 94.2727 43.9997 94.422 44.3246C94.5712 44.6495 94.6186 45.012 94.5578 45.3643C94.8096 45.2727 95.0781 45.2358 95.3453 45.2562C95.6125 45.2766 95.8723 45.3539 96.1072 45.4827C96.3633 45.7212 96.5586 46.0176 96.6765 46.3471C96.7944 46.6766 96.8317 47.0296 96.7851 47.3765C96.66 47.9784 96.3757 48.5357 95.962 48.9905C95.4724 49.4209 95.0581 49.1519 94.4179 49.2917C93.4868 49.5808 92.496 49.6197 91.545 49.4047" fill="#192215"/>
<path d="M97.5916 55.0053C97.3819 52.3283 96.1715 49.8285 94.2013 48.0039C92.2312 46.1793 89.646 45.1639 86.9607 45.1599H86.4227C80.4563 45.4935 77.4112 50.7497 77.9116 56.7L78.9876 84.2026H92.6635L92.5398 75.2503C92.5398 75.2503 98.2749 74.3733 98.361 68.6382C98.3771 65.8729 97.9951 60.1647 97.5916 55.0053Z" fill="#B78876"/>
<path d="M92.5666 75.2449C89.9045 75.2387 87.2999 74.4695 85.0615 73.0283C85.0615 73.0283 86.8208 77.1602 92.5397 76.6544L92.5666 75.2449Z" fill="#995037"/>
<path d="M96.1766 59.9388C96.1767 60.1517 96.0944 60.3563 95.947 60.5098C95.7995 60.6632 95.5984 60.7536 95.3857 60.762C95.2812 60.77 95.1762 60.7571 95.0768 60.7239C94.9774 60.6907 94.8856 60.638 94.8069 60.5688C94.7282 60.4996 94.6641 60.4154 94.6184 60.321C94.5728 60.2267 94.5465 60.1242 94.541 60.0195C94.5395 59.8063 94.6213 59.6009 94.7691 59.4472C94.9168 59.2934 95.1188 59.2034 95.3319 59.1964C95.4364 59.1884 95.5414 59.2013 95.6408 59.2345C95.7402 59.2677 95.832 59.3204 95.9107 59.3896C95.9894 59.4588 96.0535 59.543 96.0991 59.6374C96.1448 59.7317 96.1711 59.8342 96.1766 59.9388Z" fill="#192215"/>
<path d="M96.3494 57.8029C96.2525 57.9105 95.6338 57.4532 94.7354 57.4532C93.8369 57.4532 93.2074 57.8889 93.1214 57.7813C93.0353 57.6737 93.1805 57.5446 93.4603 57.3402C93.8424 57.0755 94.2975 56.9363 94.7623 56.9421C95.2205 56.9409 95.6673 57.086 96.0373 57.3563C96.3117 57.5661 96.4301 57.7598 96.3494 57.8029Z" fill="#192215"/>
<path d="M88.0428 60.3154C88.0443 60.5286 87.9625 60.734 87.8147 60.8878C87.667 61.0416 87.465 61.1315 87.2519 61.1386C87.1479 61.1466 87.0432 61.1338 86.9442 61.101C86.8451 61.0681 86.7536 61.0159 86.6749 60.9472C86.5963 60.8786 86.5321 60.795 86.4862 60.7013C86.4402 60.6076 86.4134 60.5057 86.4072 60.4015C86.4057 60.1877 86.4873 59.9817 86.6349 59.8271C86.7825 59.6725 86.9845 59.5813 87.1981 59.573C87.3024 59.5657 87.4072 59.5791 87.5063 59.6126C87.6054 59.6461 87.6968 59.6988 87.7754 59.7679C87.854 59.8369 87.918 59.9209 87.9639 60.0149C88.0098 60.1089 88.0366 60.211 88.0428 60.3154Z" fill="#192215"/>
<path d="M87.6819 58.2441C87.5797 58.3517 86.961 57.889 86.0679 57.8944C85.1748 57.8998 84.54 58.3302 84.4539 58.2226C84.3678 58.115 84.5077 57.9859 84.7928 57.7814C85.1725 57.5158 85.6261 57.3765 86.0894 57.3833C86.5482 57.379 86.9958 57.5245 87.3645 57.7976C87.6388 58.002 87.7303 58.1957 87.6819 58.2441Z" fill="#192215"/>
<path d="M90.8772 64.4901C91.3416 64.3456 91.8225 64.2606 92.3083 64.2373C92.5342 64.2373 92.7441 64.1673 92.7817 64.0167C92.8033 63.7846 92.7525 63.5516 92.6365 63.3496L91.9747 61.6118C91.0547 59.1693 90.3876 57.1626 90.4898 57.1303C90.5921 57.098 91.4098 59.0402 92.3298 61.4827C92.5504 62.0853 92.7602 62.6555 92.9646 63.2043C93.1069 63.4773 93.147 63.7921 93.0776 64.092C93.0441 64.1709 92.9933 64.2413 92.9291 64.2981C92.8649 64.3549 92.7888 64.3966 92.7064 64.4202C92.5818 64.4531 92.4533 64.4694 92.3244 64.4686C91.8449 64.5373 91.3585 64.5446 90.8772 64.4901Z" fill="#192215"/>
<path d="M88.2847 65.0929C88.4246 65.0929 88.4246 66.0451 89.2423 66.7069C90.0601 67.3686 91.0769 67.2825 91.0877 67.417C91.0984 67.5515 90.8563 67.6053 90.4259 67.6161C89.8658 67.6227 89.3212 67.4323 88.8872 67.0781C88.4729 66.7376 88.2067 66.2497 88.1448 65.7169C88.1125 65.3242 88.2147 65.0875 88.2847 65.0929Z" fill="#192215"/>
<path d="M88.1341 56.232C88.048 56.4741 87.1711 56.3719 86.1381 56.5064C85.1051 56.6409 84.2712 56.9314 84.1314 56.7162C84.0722 56.614 84.2121 56.388 84.551 56.1513C84.9948 55.8578 85.5018 55.6735 86.0305 55.6133C86.5582 55.5423 87.0952 55.5996 87.5961 55.7801C87.9781 55.9469 88.1717 56.1352 88.1341 56.232Z" fill="#192215"/>
<path d="M96.5648 55.2581C96.398 55.4787 95.6394 55.3442 94.7463 55.4249C93.8532 55.5056 93.1323 55.7262 92.9279 55.5325C92.8418 55.441 92.9279 55.2312 93.2453 54.9945C93.6783 54.7126 94.1769 54.5476 94.6925 54.5157C95.2028 54.469 95.7164 54.5562 96.1828 54.7685C96.5163 54.9622 96.6401 55.1559 96.5648 55.2581Z" fill="#192215"/>
<path d="M78.7568 60.9449C78.66 60.9019 74.824 59.7721 74.937 63.6941C75.05 67.6161 78.9666 66.6854 78.972 66.5724C78.9774 66.4594 78.7568 60.9449 78.7568 60.9449Z" fill="#B78876"/>
<path d="M78.0733 65.125C78.0733 65.125 78.0087 65.1735 77.8904 65.2273C77.8103 65.261 77.7244 65.2784 77.6375 65.2784C77.5507 65.2784 77.4647 65.261 77.3847 65.2273C77.1264 65.0751 76.9135 64.8567 76.7678 64.5948C76.6222 64.3328 76.5491 64.0367 76.5561 63.737C76.5356 63.4009 76.5907 63.0644 76.7175 62.7525C76.7507 62.6296 76.813 62.5165 76.8991 62.4228C76.9853 62.3292 77.0928 62.2577 77.2125 62.2145C77.29 62.1904 77.3736 62.1944 77.4484 62.2259C77.5232 62.2574 77.5845 62.3143 77.6214 62.3866C77.6806 62.4942 77.659 62.5749 77.6752 62.5803C77.6913 62.5857 77.7613 62.5157 77.7236 62.3543C77.7004 62.257 77.6432 62.1711 77.5622 62.1122C77.451 62.0347 77.3145 62.002 77.1802 62.0208C77.0205 62.0579 76.873 62.1353 76.7515 62.2454C76.63 62.3556 76.5387 62.4949 76.4862 62.6502C76.3349 62.988 76.2649 63.3565 76.2818 63.7262C76.3302 64.5117 76.7552 65.238 77.3309 65.3887C77.4366 65.4163 77.5473 65.4195 77.6545 65.3981C77.7617 65.3766 77.8626 65.3311 77.9496 65.2649C78.0679 65.2165 78.0894 65.1304 78.0733 65.125Z" fill="#995037"/>
<path d="M81.3281 49.2971L83.2649 47.6239L89.4358 48.5654L93.7397 47.4517L96.3329 47.8499C95.8433 48.5008 96.2415 47.6239 95.2569 46.8815C93.1374 45.2254 90.5476 44.2837 87.8594 44.1915C85.1694 44.143 79.7894 47.3872 77.8365 49.2271C76.2924 50.6959 76.3032 51.9709 76.3032 51.9709C76.0557 54.0907 77.2393 56.4955 77.7127 58.5776C77.9548 59.6536 78.4229 62.8816 78.4229 62.8816C79.3213 62.8816 79.6549 62.1607 79.4989 61.2676L79.3267 57.7706C80.2313 57.0607 80.8787 56.0743 81.1701 54.9621C81.4615 53.8498 81.381 52.6727 80.9407 51.6105C80.7471 51.3469 80.2467 49.8889 81.3281 49.2971Z" fill="#192215"/>
<path d="M80.5262 50.2279C80.738 49.6801 81.1159 49.2122 81.607 48.89C82.0981 48.5677 82.6777 48.4072 83.2646 48.431C84.4442 48.5041 85.5553 49.0098 86.385 49.8513C86.5915 50.0735 86.8267 50.2671 87.0844 50.427C87.2127 50.5079 87.3593 50.5553 87.5107 50.5647C87.662 50.5741 87.8133 50.5452 87.9506 50.4808C88.0313 50.4378 88.1174 50.3732 88.2089 50.4001C88.2712 50.4244 88.3227 50.4702 88.3541 50.5292C88.5754 50.8899 88.8869 51.1866 89.258 51.39C89.447 51.4848 89.6608 51.5187 89.8699 51.4869C90.079 51.4551 90.2731 51.3592 90.4254 51.2125C90.6399 51.4113 90.9079 51.5429 91.1964 51.591C91.4848 51.6391 91.7811 51.6016 92.0484 51.4831C92.3158 51.3646 92.5425 51.1703 92.7006 50.9243C92.8587 50.6782 92.9412 50.3912 92.9379 50.0988C93.2021 50.1559 93.4772 50.1355 93.7301 50.04C93.983 49.9446 94.2029 49.7782 94.3636 49.5608C94.6496 49.2384 94.8602 48.8564 94.9803 48.4425C95.1004 48.0286 95.1269 47.5932 95.0579 47.1678C94.9889 46.7424 94.8261 46.3376 94.5813 45.9829C94.3365 45.6282 94.0159 45.3324 93.6427 45.1169C93.0505 44.8211 92.4082 44.6387 91.7489 44.5789C90.7203 44.4346 89.6833 44.3574 88.6446 44.3476C88.1885 44.3198 87.731 44.3745 87.2943 44.509C86.6971 44.7242 86.2183 45.2084 85.5727 45.2891C85.1674 45.3047 84.7631 45.2388 84.3837 45.0954C83.8279 44.9079 83.2429 44.8223 82.6567 44.8426C81.5108 44.9448 80.5585 45.7679 79.7999 46.6341C79.2337 47.2117 78.8213 47.922 78.6002 48.7C78.4982 49.094 78.5165 49.5095 78.6526 49.893C78.7888 50.2765 79.0366 50.6105 79.3641 50.852C79.4953 50.9428 79.6462 51.0009 79.8044 51.0215C79.9626 51.042 80.1233 51.0245 80.2734 50.9704C80.3469 50.9409 80.4138 50.897 80.4702 50.8414C80.5266 50.7858 80.5714 50.7195 80.602 50.6464C80.6325 50.5733 80.6482 50.4948 80.6481 50.4156C80.6481 50.3364 80.6322 50.2579 80.6015 50.1849" fill="#192215"/>
<path d="M93.7988 86.1125C95.2261 87.2516 96.5642 88.498 97.8015 89.8409C99.3886 91.654 113.667 118.393 113.667 118.393L139.271 130.175L136.731 139.321C136.731 139.321 110.767 130.976 106.705 127.786C102.644 124.596 96.2198 110.468 96.2198 110.468L93.7988 86.1125Z" fill="#3A6B22"/>
<path d="M73.8335 81.518C73.8335 81.518 67.9155 85.822 66.6673 88.5497C65.4192 91.2773 73.8335 127.953 73.8335 127.953C73.8335 127.953 71.0735 140.892 71.0735 147.891C71.0678 152.079 72.0114 156.214 73.8335 159.985L83.3722 150.662C83.3722 150.662 100.142 159.56 104.596 158.5C109.051 157.441 110.961 157.64 110.961 157.64L104.171 110.129L93.1746 84.3048L92.9056 81.6148L78.2989 73.448L77.664 78.1125L73.8335 81.518Z" fill="#3A6B22"/>
<path d="M102.063 107.88C101.947 107.601 101.854 107.313 101.783 107.019C101.6 106.417 101.364 105.615 101.073 104.652C100.46 102.661 99.5614 99.9229 98.4316 96.9478C97.3018 93.9726 96.1989 91.3149 95.365 89.4158L94.3697 87.1562C94.2347 86.8852 94.1196 86.6047 94.0254 86.3169C94.1978 86.5655 94.3456 86.8304 94.4666 87.1078C94.7356 87.6458 95.1068 88.3882 95.5426 89.3351C96.4195 91.2288 97.5708 93.8812 98.6898 96.8671C99.8089 99.853 100.691 102.602 101.261 104.614C101.541 105.62 101.756 106.438 101.88 107.008C101.967 107.293 102.028 107.585 102.063 107.88Z" fill="#192215"/>
<path d="M103.649 132.989C103.625 132.688 103.624 132.386 103.647 132.084C103.658 131.455 103.679 130.619 103.698 129.613C103.726 127.531 103.712 124.649 103.55 121.47C103.388 118.292 103.155 115.424 102.944 113.361L102.691 110.904C102.646 110.605 102.622 110.303 102.621 110C102.709 110.29 102.768 110.587 102.798 110.888C102.889 111.483 103.014 112.303 103.138 113.338C103.391 115.41 103.672 118.288 103.821 121.473C103.969 124.658 103.964 127.545 103.889 129.635C103.846 130.679 103.8 131.523 103.743 132.104C103.737 132.401 103.706 132.698 103.649 132.989Z" fill="#192215"/>
<path d="M92.9168 81.6418C92.8858 81.9175 92.8281 82.1895 92.7447 82.4541L92.2067 84.6384C92.1421 84.8751 92.0829 85.1119 92.013 85.3647C91.953 85.638 91.8572 85.9021 91.7279 86.1502C91.6514 86.296 91.5382 86.4193 91.3995 86.508C91.2608 86.5966 91.1014 86.6476 90.937 86.6559C90.5942 86.652 90.2598 86.5493 89.974 86.36C88.898 85.666 87.7789 84.8805 86.5738 84.0628C84.1743 82.4219 82.0116 80.9262 80.4568 79.8287L78.6168 78.5214C78.3859 78.3695 78.1682 78.1985 77.9658 78.0103C78.216 78.1293 78.4554 78.2697 78.6814 78.4299L80.5644 79.6673C82.1515 80.7433 84.3304 82.1905 86.7298 83.8314L90.1031 86.1394C90.3401 86.2978 90.6148 86.3907 90.8993 86.4084C91.0244 86.403 91.1459 86.3649 91.2516 86.2979C91.3574 86.2309 91.4437 86.1373 91.5019 86.0265C91.6237 85.7945 91.7176 85.5489 91.7817 85.2948C91.8516 85.0473 91.9215 84.8106 91.9915 84.5792C92.2497 83.7023 92.4703 82.9652 92.6371 82.4272C92.7097 82.1585 92.8033 81.8959 92.9168 81.6418Z" fill="#192215"/>
<g opacity="0.3">
<path d="M92.7819 82.325C92.2439 83.4763 92.1202 84.8375 91.5822 85.9888C91.5144 86.1188 91.4207 86.2337 91.3069 86.3262C91.1931 86.4187 91.0616 86.487 90.9204 86.5268C90.716 86.5591 90.2533 86.2094 90.0811 86.091C86.5303 83.6108 82.958 81.3674 79.4072 78.8872V79.0271C82.9419 82.2551 85.9977 85.1388 89.9843 88.2861C90.6084 88.781 91.5176 89.2007 92.1847 88.7649C92.3886 88.5849 92.5535 88.3651 92.6692 88.119C92.7848 87.8729 92.8488 87.6056 92.8572 87.3338C93.0844 85.6699 93.059 83.9813 92.7819 82.325Z" fill="black"/>
</g>
<path d="M84.632 149.064C84.5717 148.874 84.5356 148.677 84.5244 148.477C84.4652 148.095 84.406 147.541 84.3522 146.863C84.0704 143.273 84.2076 139.662 84.7611 136.103C84.8687 135.426 84.9655 134.877 85.0516 134.489C85.0782 134.29 85.1307 134.095 85.2076 133.908C85.2135 134.109 85.1972 134.309 85.1592 134.506C85.1054 134.947 85.0355 135.485 84.9548 136.12C84.788 137.481 84.6051 139.348 84.5244 141.462C84.4437 143.576 84.4867 145.449 84.5244 146.842C84.5513 147.477 84.5836 148.02 84.6051 148.456C84.6394 148.657 84.6484 148.861 84.632 149.064Z" fill="#192215"/>
<path d="M95.4287 236.569L95.7139 255.114L118.789 254.878C118.627 252.677 106.646 248.373 106.646 248.373L106.953 236.483L95.4287 236.569Z" fill="#3A6B22"/>
<g opacity="0.6">
<path d="M99.5022 247.443C99.2828 247.513 99.0967 247.662 98.9789 247.86C98.861 248.058 98.8194 248.292 98.862 248.519C98.924 248.744 99.0706 248.936 99.2712 249.055C99.4717 249.174 99.7107 249.212 99.938 249.159C100.173 249.086 100.372 248.928 100.497 248.716C100.621 248.504 100.662 248.253 100.61 248.013C100.52 247.788 100.347 247.607 100.126 247.507C99.906 247.407 99.6555 247.395 99.4269 247.475" fill="white"/>
</g>
<g opacity="0.6">
<path d="M95.7139 255.114L95.7569 253.242L117.863 253.716C117.863 253.716 118.896 254.151 118.789 254.878L95.7139 255.114Z" fill="white"/>
</g>
<path d="M107.023 248.25C107.023 248.363 106.452 248.422 105.904 248.788C105.355 249.153 105.064 249.632 104.957 249.589C104.849 249.546 105.016 248.895 105.689 248.459C106.361 248.024 107.044 248.147 107.023 248.25Z" fill="#192215"/>
<path d="M109.449 249.229C109.476 249.336 108.992 249.535 108.615 250.014C108.239 250.493 108.131 250.999 108.018 250.993C107.905 250.988 107.83 250.353 108.309 249.767C108.787 249.18 109.449 249.121 109.449 249.229Z" fill="#192215"/>
<path d="M110.853 252.112C110.751 252.112 110.59 251.574 110.853 250.956C111.117 250.337 111.66 250.084 111.709 250.176C111.757 250.267 111.434 250.601 111.208 251.117C110.982 251.634 110.956 252.096 110.853 252.112Z" fill="#192215"/>
<path d="M106.792 245.533C106.743 245.635 106.254 245.484 105.587 245.533C104.919 245.581 104.457 245.785 104.398 245.689C104.338 245.592 104.812 245.188 105.56 245.151C106.307 245.113 106.845 245.447 106.792 245.533Z" fill="#192215"/>
<path d="M106.21 242.8C105.832 242.908 105.432 242.908 105.054 242.8C104.637 242.732 104.23 242.612 103.843 242.445C103.613 242.345 103.39 242.23 103.176 242.1C103.048 242.027 102.93 241.937 102.826 241.831C102.751 241.752 102.704 241.649 102.694 241.54C102.683 241.431 102.709 241.322 102.767 241.229C102.823 241.15 102.896 241.086 102.981 241.041C103.066 240.996 103.161 240.972 103.257 240.971C103.404 240.964 103.551 240.982 103.692 241.024C103.94 241.08 104.181 241.16 104.413 241.261C104.805 241.434 105.168 241.666 105.489 241.95C106.027 242.439 106.216 242.859 106.178 242.88C106.14 242.902 105.866 242.568 105.317 242.165C104.995 241.933 104.647 241.742 104.279 241.595C104.062 241.513 103.839 241.449 103.612 241.401C103.37 241.336 103.16 241.336 103.074 241.449C102.988 241.562 103.074 241.503 103.101 241.578C103.176 241.656 103.264 241.721 103.359 241.772C103.557 241.897 103.762 242.012 103.972 242.116C104.331 242.289 104.706 242.428 105.091 242.531C105.47 242.594 105.844 242.684 106.21 242.8Z" fill="#192215"/>
<path d="M106.065 242.966C105.847 242.637 105.738 242.247 105.753 241.853C105.725 241.424 105.772 240.995 105.893 240.583C105.967 240.339 106.065 240.103 106.183 239.878C106.245 239.726 106.345 239.593 106.473 239.49C106.601 239.387 106.753 239.319 106.915 239.292C107.018 239.293 107.118 239.324 107.203 239.38C107.289 239.436 107.357 239.516 107.399 239.609C107.463 239.741 107.505 239.883 107.523 240.029C107.56 240.287 107.56 240.55 107.523 240.809C107.459 241.242 107.293 241.653 107.039 242.009C106.592 242.611 106.124 242.746 106.113 242.708C106.103 242.67 106.468 242.434 106.807 241.853C107.001 241.523 107.122 241.156 107.162 240.777C107.186 240.554 107.177 240.329 107.136 240.11C107.093 239.862 107.001 239.668 106.91 239.69C106.818 239.711 106.603 239.878 106.512 240.077C106.397 240.277 106.304 240.488 106.232 240.707C106.102 241.077 106.03 241.466 106.017 241.858C106.006 242.525 106.113 242.945 106.065 242.966Z" fill="#192215"/>
<path d="M54.0085 215.884L38.5303 226.106L51.141 245.431C52.911 244.112 50.0973 231.695 50.0973 231.695L60.2816 225.557L54.0085 215.884Z" fill="#3A6B22"/>
<g opacity="0.6">
<path d="M47.0303 225.164C46.8531 225.015 46.6268 224.936 46.3953 224.944C46.1637 224.952 45.9434 225.046 45.7768 225.207C45.6209 225.378 45.5373 225.603 45.5433 225.835C45.5493 226.066 45.6445 226.287 45.8091 226.45C45.9976 226.607 46.2375 226.689 46.4828 226.68C46.728 226.671 46.9614 226.572 47.1379 226.401C47.2809 226.204 47.3423 225.959 47.3092 225.717C47.2761 225.476 47.1512 225.256 46.9604 225.105" fill="white"/>
</g>
<g opacity="0.6">
<path d="M38.5303 226.1L40.1443 225.132L51.636 244.021C51.636 244.021 51.8243 245.124 51.1571 245.425L38.5303 226.1Z" fill="white"/>
</g>
<path d="M50.3988 231.937C50.302 231.997 49.9523 231.555 49.3228 231.286C48.6933 231.017 48.1607 231.034 48.1392 230.921C48.1177 230.808 48.7579 230.598 49.4842 230.921C50.2105 231.243 50.4956 231.905 50.3988 231.937Z" fill="#192215"/>
<path d="M50.8832 234.514C50.8025 234.595 50.3775 234.288 49.7696 234.229C49.1616 234.17 48.6936 234.353 48.6236 234.229C48.5537 234.106 49.0594 233.724 49.8126 233.815C50.5658 233.906 50.9693 234.45 50.8832 234.514Z" fill="#192215"/>
<path d="M49.2098 237.247C49.1291 237.172 49.5164 236.736 50.1943 236.64C50.8722 236.543 51.3618 236.855 51.308 236.946C51.2542 237.038 50.8022 236.946 50.232 237.027C49.6617 237.108 49.2797 237.334 49.2098 237.247Z" fill="#192215"/>
<path d="M52.5617 230.28C52.4541 230.28 52.2981 229.78 51.9161 229.274C51.5341 228.769 51.0929 228.457 51.1414 228.354C51.1898 228.252 51.787 228.435 52.2174 229.038C52.6478 229.64 52.6693 230.28 52.5617 230.28Z" fill="#192215"/>
<path d="M54.5571 228.327C54.5194 228.354 54.2182 228.021 53.9277 227.354C53.7646 226.963 53.6472 226.555 53.5779 226.138C53.539 225.89 53.5175 225.64 53.5134 225.39C53.501 225.242 53.5137 225.093 53.5511 224.949C53.5776 224.844 53.6386 224.75 53.7245 224.684C53.8104 224.618 53.916 224.582 54.0245 224.583C54.1205 224.588 54.2141 224.614 54.2981 224.661C54.3821 224.708 54.4541 224.773 54.5087 224.852C54.5901 224.975 54.6535 225.109 54.697 225.25C54.78 225.49 54.8413 225.737 54.8799 225.987C54.9475 226.41 54.9475 226.84 54.8799 227.262C54.851 227.654 54.7069 228.028 54.4657 228.338C54.4065 228.311 54.5571 227.902 54.6002 227.225C54.6259 226.828 54.6005 226.431 54.5248 226.041C54.4782 225.814 54.4153 225.591 54.3365 225.374C54.2558 225.137 54.1428 224.96 54.0191 224.965C53.8954 224.97 53.9545 224.965 53.9223 225.062C53.9065 225.169 53.9065 225.278 53.9223 225.385C53.9225 225.618 53.9369 225.852 53.9653 226.084C54.0133 226.48 54.098 226.871 54.2182 227.251C54.3532 227.603 54.4664 227.962 54.5571 228.327Z" fill="#192215"/>
<path d="M54.342 228.29C54.3044 228.29 54.5196 227.859 55.1114 227.429C55.6672 227.028 56.322 226.786 57.0052 226.73C57.1665 226.699 57.3331 226.711 57.4886 226.763C57.6442 226.816 57.7834 226.908 57.8929 227.031C57.9485 227.118 57.978 227.218 57.978 227.321C57.978 227.424 57.9485 227.525 57.8929 227.612C57.8114 227.734 57.7136 227.844 57.6023 227.94C57.4092 228.115 57.1895 228.259 56.9514 228.365C56.5541 228.548 56.1183 228.631 55.6817 228.607C54.9339 228.553 54.568 228.236 54.6057 228.204C54.9611 228.269 55.3206 228.311 55.6817 228.327C56.0673 228.313 56.4452 228.216 56.7899 228.042C56.9856 227.94 57.1666 227.811 57.3279 227.66C57.5109 227.494 57.6292 227.311 57.5593 227.246C57.4845 227.186 57.3978 227.143 57.3049 227.12C57.2121 227.097 57.1154 227.094 57.0213 227.112C56.7912 227.128 56.5628 227.162 56.338 227.214C55.9598 227.31 55.5975 227.461 55.262 227.66C54.6756 228.005 54.3905 228.333 54.342 228.29Z" fill="#192215"/>
<path d="M74.0003 157.602C73.3493 158.42 77.6909 193.443 77.6909 193.443C77.6909 193.443 64.1495 203.014 53.7607 212.585C53.0075 213.285 45.2334 220.069 45.2334 220.069L53.7607 231.157C53.7607 231.157 90.7105 207.609 93.0078 203.208C95.3051 198.807 105.791 157.182 105.791 157.182L91.2216 149.844C89.5535 149.001 87.6678 148.689 85.817 148.947C83.9661 149.206 82.2384 150.024 80.8651 151.291L74.0003 157.602Z" fill="#192215"/>
<path d="M87.2842 161.088C87.4725 162.621 91.1094 230.006 92.067 235.37C92.5542 238.375 93.5243 241.282 94.9399 243.978H108.46C108.46 243.978 107.96 207.604 108.341 202.552C108.723 197.5 109.487 197.86 109.299 191.351C109.111 184.841 108.148 157.085 108.148 156.321C108.148 155.558 87.2842 161.088 87.2842 161.088Z" fill="#192215"/>
<path d="M100.955 159.985V160.168L100.89 160.706C100.82 161.185 100.729 161.874 100.605 162.756C100.352 164.553 99.9811 167.141 99.5292 170.374C98.5769 176.862 97.2481 185.917 95.7363 196.247C95.396 197.686 94.9739 199.105 94.472 200.497C93.9476 201.939 93.1996 203.29 92.2554 204.499C90.2595 207.001 87.6071 208.696 85.1538 210.342L78.0307 215.087L65.9311 223.12L57.7804 228.5L55.5423 229.968L54.9613 230.34C54.8965 230.385 54.8281 230.424 54.7568 230.458L54.9451 230.313C55.085 230.221 55.2733 230.087 55.4831 229.92L57.6782 228.424L65.8181 222.958L77.8586 214.888L84.9709 210.1C87.4242 208.454 90.0496 206.764 92.008 204.317C92.9257 203.126 93.6517 201.799 94.16 200.384C94.6615 199.005 95.0836 197.598 95.4243 196.171C96.9791 185.852 98.3402 176.803 99.314 170.315C99.809 167.087 100.207 164.505 100.487 162.708C100.627 161.831 100.734 161.142 100.81 160.663C100.847 160.443 100.88 160.27 100.901 160.125C100.914 160.077 100.932 160.03 100.955 159.985Z" fill="#333D2F"/>
<path d="M83.787 197.538C82.9233 196.64 81.9468 195.859 80.8818 195.213C79.7717 194.652 78.5922 194.239 77.374 193.987C77.7467 193.942 78.1244 193.968 78.4877 194.062C79.3761 194.226 80.232 194.533 81.0217 194.971C81.8112 195.408 82.5251 195.97 83.136 196.634C83.4054 196.893 83.626 197.2 83.787 197.538Z" fill="#333D2F"/>
<path d="M139.04 131.014L146.276 129.147L150.203 131.229L151.376 135.727C150.892 135.838 150.386 135.8 149.924 135.62C149.461 135.44 149.064 135.124 148.783 134.715L147.777 134.021L145.964 135.097L144.129 140.945L136.877 138.793L139.04 131.014Z" fill="#B78876"/>
<path d="M148.147 134.296C147.812 134.062 147.424 133.916 147.019 133.87C146.613 133.824 146.202 133.88 145.823 134.032C145.483 134.158 145.196 134.398 145.011 134.71C144.921 134.867 144.877 135.046 144.884 135.227C144.892 135.408 144.951 135.583 145.054 135.732C144.954 135.635 144.835 135.559 144.705 135.51C144.574 135.462 144.434 135.441 144.295 135.451C144.156 135.46 144.02 135.498 143.897 135.563C143.774 135.629 143.666 135.719 143.58 135.829C143.418 136.068 143.333 136.352 143.338 136.64C143.343 136.929 143.437 137.21 143.607 137.443C143.335 137.528 143.097 137.699 142.93 137.93C142.762 138.16 142.673 138.439 142.676 138.724C142.688 139.296 142.908 139.845 143.295 140.268C143.498 140.545 143.76 140.773 144.063 140.937C144.365 141.101 144.7 141.195 145.043 141.214C145.387 141.219 145.718 141.087 145.965 140.848C146.212 140.61 146.354 140.283 146.361 139.939C146.582 140.13 146.859 140.244 147.15 140.262C147.442 140.281 147.731 140.204 147.975 140.044C148.218 139.883 148.403 139.647 148.5 139.372C148.597 139.097 148.602 138.797 148.513 138.519C149.175 138.788 149.907 138.245 150.262 137.626C150.435 137.397 150.523 137.114 150.509 136.827C150.495 136.54 150.381 136.267 150.186 136.055C149.993 135.878 149.718 135.732 149.53 135.549C148.992 135.011 148.454 134.834 148.137 134.274" fill="#B78876"/>
<path d="M148.487 138.438C147.743 138.124 147.058 137.684 146.464 137.136C145.808 136.663 145.242 136.076 144.791 135.404C145.436 135.874 146.054 136.381 146.642 136.921C147.288 137.388 147.904 137.895 148.487 138.438Z" fill="#995037"/>
<path d="M146.781 140.004C146.781 140.031 146.56 139.88 146.243 139.665C145.926 139.45 145.436 139.181 144.92 138.853C144.46 138.58 144.049 138.232 143.704 137.825C143.445 137.502 143.365 137.255 143.392 137.239C143.419 137.223 143.569 137.422 143.849 137.691C144.223 138.041 144.632 138.351 145.07 138.616C145.519 138.884 145.951 139.18 146.361 139.504C146.657 139.767 146.808 139.977 146.781 140.004Z" fill="#995037"/>
<path d="M161.732 138.96C161.202 138.123 160.459 137.442 159.58 136.986C156.614 135.136 153.542 133.462 150.38 131.972L150.988 134.307L152.957 135.383C152.957 135.383 154.265 136.023 153.452 137.04C152.623 138.096 151.92 139.246 151.359 140.467C151.139 141.015 150.857 141.536 150.52 142.022C149.762 142.347 148.951 142.53 148.126 142.56C146.932 142.608 144.452 142.022 143.973 141.182C143.893 141.047 143.84 140.897 143.817 140.741L142.612 139.401C142.513 140.091 142.626 140.794 142.936 141.419C143.245 142.043 143.736 142.559 144.344 142.898C145.694 143.652 147.319 143.662 148.863 143.641C149.189 143.612 149.518 143.662 149.821 143.786C150.13 143.984 150.392 144.248 150.585 144.561C152.328 146.777 155.604 147.315 158.289 146.471C159.622 146.129 160.775 145.294 161.517 144.136C161.953 143.258 162.167 142.286 162.141 141.306C162.199 140.502 162.058 139.697 161.732 138.96Z" fill="#192215"/>
<path d="M209.948 226.116C209.883 226.154 198.521 207.991 184.576 185.545C170.631 163.1 159.376 144.867 159.435 144.83C159.494 144.792 170.862 162.949 184.812 185.4C198.763 207.851 210.012 226.073 209.948 226.116Z" fill="#192215"/>
<path d="M150.623 136.475C150.585 136.507 150.036 135.883 148.976 135.076C148.382 134.589 147.711 134.204 146.991 133.935C146.575 133.801 146.127 133.801 145.711 133.935C145.498 134.007 145.307 134.132 145.156 134.299C145.005 134.466 144.9 134.668 144.85 134.888C144.823 135.028 144.823 135.172 144.85 135.313L144.909 135.555L144.672 135.474C144.435 135.4 144.181 135.404 143.946 135.484C143.711 135.565 143.508 135.717 143.365 135.92C143.243 136.111 143.179 136.332 143.179 136.558C143.179 136.784 143.243 137.005 143.365 137.196L143.527 137.438L143.241 137.384C143.014 137.368 142.789 137.434 142.606 137.571C142.423 137.707 142.296 137.904 142.246 138.126C142.202 138.496 142.3 138.869 142.52 139.17C142.859 139.708 143.139 139.982 143.118 140.004C143.036 139.963 142.962 139.906 142.902 139.837C142.716 139.658 142.548 139.459 142.402 139.245C142.293 139.094 142.201 138.932 142.128 138.761C142.03 138.549 142.003 138.311 142.052 138.083C142.111 137.824 142.248 137.589 142.445 137.411C142.556 137.306 142.689 137.227 142.834 137.182C142.98 137.136 143.134 137.124 143.284 137.147L143.166 137.335C142.995 137.095 142.905 136.807 142.909 136.512C142.912 136.217 143.009 135.931 143.186 135.695C143.362 135.459 143.609 135.285 143.891 135.198C144.172 135.11 144.474 135.115 144.753 135.21L144.576 135.377C144.537 135.2 144.537 135.016 144.576 134.839C144.642 134.571 144.775 134.325 144.964 134.123C145.152 133.922 145.389 133.772 145.652 133.688C146.122 133.537 146.628 133.537 147.099 133.688C147.843 133.977 148.532 134.394 149.132 134.92C149.543 135.252 149.932 135.611 150.295 135.996C150.424 136.141 150.534 136.302 150.623 136.475Z" fill="#995037"/>
<path d="M145.872 132.09C145.904 132.015 146.819 132.396 148.062 132.509H148.185V132.628C148.18 132.725 148.18 132.822 148.185 132.918C148.249 133.502 148.464 134.058 148.81 134.532C149.073 134.898 149.294 135.07 149.267 135.119C149.24 135.167 148.982 135.011 148.654 134.656C148.237 134.181 147.976 133.59 147.906 132.961C147.906 132.854 147.906 132.746 147.906 132.644L148.029 132.784C147.262 132.745 146.518 132.506 145.872 132.09Z" fill="#995037"/>
<path d="M146.119 131.283C146.114 131.588 146.039 131.888 145.899 132.16C145.619 132.836 145.216 133.455 144.71 133.984C144.204 134.514 143.604 134.944 142.94 135.253C142.676 135.405 142.382 135.495 142.079 135.517C143.919 134.676 145.366 133.16 146.119 131.283Z" fill="#995037"/>
<path d="M97.5056 123.869C97.5056 123.869 85.8364 115.584 82.5008 114.799L83.3939 95.07C83.3939 95.07 83.6252 86.3437 76.2869 86.1231C68.9486 85.9025 66.6782 88.5118 66.6782 88.5118C66.6782 88.5118 63.8376 106.121 64.1442 112.792C64.4509 119.463 68.841 129.314 72.1766 130.072C75.5122 130.831 89.1559 135.99 94.6112 134.618L102.644 134.85V124.628L97.5056 123.869Z" fill="#3A6B22"/>
<path d="M75.3673 115.891C75.3673 115.891 75.3942 115.859 75.4534 115.81C75.5453 115.732 75.6424 115.66 75.7439 115.595C76.1295 115.335 76.5405 115.115 76.9706 114.939C78.6008 114.268 80.407 114.154 82.1085 114.616C83.2835 114.97 84.4123 115.463 85.471 116.085C86.6438 116.714 87.8651 117.451 89.1616 118.237C91.7387 119.851 94.5416 121.691 97.5652 123.751H97.5114L102.665 124.504H102.784V135.006H102.639C100.418 134.909 98.2664 134.766 96.1825 134.576C95.1496 134.479 94.1381 134.366 93.1536 134.328C92.1691 134.29 91.2006 134.382 90.2484 134.355C86.9101 134.214 83.6026 133.655 80.403 132.693C77.713 131.918 75.561 131.197 74.0492 130.718L72.3437 130.18L71.9026 130.035C71.8507 130.02 71.8003 130 71.752 129.976C71.8053 129.979 71.8579 129.99 71.908 130.008L72.3545 130.132L74.0761 130.643C75.5717 131.089 77.7345 131.783 80.4514 132.531C83.6383 133.47 86.9288 134.012 90.2484 134.145C91.1899 134.172 92.1529 134.081 93.1643 134.108C94.1758 134.134 95.1765 134.253 96.2094 134.344C98.27 134.538 100.422 134.672 102.639 134.769L102.493 134.909V124.687L102.612 124.822L97.4737 124.02H97.4415C94.4556 121.954 91.631 120.082 89.0648 118.479C87.779 117.677 86.5631 116.935 85.4064 116.3C84.3626 115.68 83.2505 115.184 82.0923 114.82C80.4226 114.355 78.6475 114.44 77.0297 115.062C76.6008 115.228 76.1884 115.433 75.7977 115.676C75.6632 115.756 75.561 115.826 75.4964 115.869C75.4544 115.881 75.411 115.889 75.3673 115.891Z" fill="#192215"/>
<path d="M81.9737 91.3257C82.0538 91.6222 82.1114 91.9243 82.1459 92.2295C82.2427 92.8159 82.3611 93.6606 82.4848 94.7151C82.7377 96.8133 82.9798 99.7292 83.0228 102.963C83.0658 106.196 82.969 109.117 82.8076 111.226C82.7269 112.302 82.6462 113.136 82.5709 113.723C82.547 114.028 82.5021 114.332 82.4364 114.632C82.4181 114.325 82.4271 114.017 82.4633 113.712C82.5009 113.077 82.5494 112.232 82.6085 111.216C82.7215 109.107 82.8076 106.191 82.743 102.968C82.6785 99.7454 82.4633 96.8348 82.2642 94.7312C82.162 93.7198 82.0759 92.8805 82.0114 92.2457C81.9733 91.9406 81.9607 91.6329 81.9737 91.3257Z" fill="#192215"/>
<path d="M81.2047 88.4797C81.1617 88.512 80.7851 87.9417 79.9619 87.1885C78.8952 86.2211 77.5971 85.545 76.1929 85.2256C74.7888 84.9061 73.326 84.954 71.9457 85.3647C70.8697 85.6713 70.2887 86.0372 70.2618 85.9888C70.2349 85.9403 70.3909 85.8704 70.6653 85.7144C71.0536 85.4951 71.4627 85.3148 71.8865 85.1764C73.2942 84.7018 74.8057 84.6249 76.2542 84.9543C77.7028 85.2837 79.0324 86.0066 80.0964 87.0432C80.4171 87.3517 80.7071 87.6904 80.9626 88.0547C81.0683 88.1806 81.1503 88.3246 81.2047 88.4797Z" fill="#192215"/>
<path d="M98.3503 134.602C98.2745 134.097 98.2457 133.585 98.2642 133.075C98.2642 132.042 98.2104 130.783 98.1781 129.395C98.1458 128.007 98.0866 126.748 98.049 125.715C98.0032 125.206 98.0032 124.695 98.049 124.187C98.1664 124.685 98.2349 125.193 98.2534 125.704C98.3395 126.64 98.4202 127.947 98.4632 129.384C98.5063 130.82 98.5009 132.133 98.4632 133.075C98.4733 133.586 98.4355 134.098 98.3503 134.602Z" fill="#192215"/>
<path d="M100.427 132.036C100.515 132.011 100.607 132.008 100.697 132.026C100.786 132.044 100.87 132.083 100.941 132.139C101.013 132.196 101.07 132.269 101.108 132.352C101.145 132.435 101.163 132.526 101.159 132.617C101.145 132.706 101.109 132.79 101.054 132.862C100.999 132.933 100.927 132.99 100.845 133.027C100.763 133.063 100.673 133.078 100.583 133.071C100.493 133.064 100.406 133.034 100.331 132.984C100.256 132.935 100.194 132.867 100.152 132.788C100.11 132.708 100.088 132.619 100.089 132.529C100.09 132.439 100.113 132.351 100.157 132.272C100.201 132.193 100.264 132.127 100.341 132.079" fill="#192215"/>
<g opacity="0.3">
<path d="M82.5876 114.723C81.5339 113.918 80.237 113.497 78.9114 113.529C77.5857 113.561 76.3108 114.045 75.2976 114.901C75.1605 115.003 75.0513 115.138 74.9802 115.293C74.9493 115.373 74.9468 115.461 74.9733 115.543C74.9998 115.624 75.0535 115.694 75.1255 115.74C75.2976 115.821 75.4967 115.708 75.6635 115.6C76.681 114.94 77.8333 114.516 79.036 114.358C80.2387 114.201 81.4613 114.315 82.6145 114.691" fill="black"/>
</g>
<g opacity="0.3">
<path d="M90.7381 134.242C88.4341 134.157 86.1396 133.901 83.8732 133.478C80.2525 132.865 76.8146 131.531 73.3392 130.487L73.1562 131.45C75.7548 133.414 78.4771 134.177 81.4952 135.383C83.7925 136.297 86.235 136.997 88.7044 136.857C92.3682 136.674 95.8276 134.705 99.4644 134.646C96.5539 134.576 93.6379 134.296 90.7381 134.242Z" fill="black"/>
</g>
<path d="M102.596 124.789L105.791 124.413L108.955 125.284C108.955 125.284 117.8 131.584 117.789 133.946C117.789 133.946 117.907 136.195 116.713 136.023C116.807 136.113 116.883 136.222 116.936 136.342C116.989 136.462 117.017 136.591 117.019 136.722C117.005 136.962 116.93 137.194 116.802 137.397C116.673 137.601 116.495 137.768 116.285 137.883C116.074 137.999 115.837 138.059 115.597 138.058C115.357 138.057 115.12 137.996 114.911 137.879C114.486 137.647 114.147 137.448 114.292 137.491C114.615 137.588 115.96 138.966 115.244 139.746C114.529 140.526 113.63 139.703 112.204 139.009C111.087 138.387 110.047 137.636 109.105 136.77C109.105 136.77 112.968 141.984 112.333 142.441C111.699 142.898 111.51 143.334 110.719 142.506C109.929 141.677 106.453 137.954 106.453 137.954C106.453 137.954 102.547 135.183 102.639 134.861C102.73 134.538 102.596 124.789 102.596 124.789Z" fill="#B78876"/>
<path d="M109.562 133.091C109.616 133.037 110.703 134.059 112.102 135.275C112.978 135.976 113.768 136.78 114.453 137.669C114.399 137.717 113.307 136.701 111.914 135.485C111.036 134.785 110.246 133.981 109.562 133.091Z" fill="#995037"/>
<path d="M111.8 131.014C112.123 131.185 112.424 131.396 112.693 131.643C113.386 132.187 114.047 132.769 114.673 133.386C115.304 134.007 115.876 134.684 116.384 135.409C116.609 135.697 116.79 136.016 116.922 136.356C116.847 136.405 115.921 135.022 114.463 133.586C113.005 132.149 111.736 131.1 111.8 131.014Z" fill="#995037"/>
</svg>
